SplineFontDB: 3.0
FontName: Overlock-BoldItalic
FullName: Overlock-BoldItalic
FamilyName: Overlock
Weight: Bold
Copyright: Copyright (c) 2011, Dario Manuel Muhafara (http://www.tipo.net.ar), with Reserved Font Name "Overlock".
Version: 1.001
ItalicAngle: 0
UnderlinePosition: -113
UnderlineWidth: 20
Ascent: 800
Descent: 200
sfntRevision: 0x00010042
LayerCount: 2
Layer: 0 1 "Back"  1
Layer: 1 1 "Fore"  0
XUID: [1021 288 713564382 895621]
FSType: 0
OS2Version: 2
OS2_WeightWidthSlopeOnly: 0
OS2_UseTypoMetrics: 1
CreationTime: 1324052797
ModificationTime: 1324081816
PfmFamily: 17
TTFWeight: 700
TTFWidth: 5
LineGap: 0
VLineGap: 0
Panose: 2 0 8 6 4 0 0 9 0 2
OS2TypoAscent: 166
OS2TypoAOffset: 1
OS2TypoDescent: -54
OS2TypoDOffset: 1
OS2TypoLinegap: 0
OS2WinAscent: 46
OS2WinAOffset: 1
OS2WinDescent: 1
OS2WinDOffset: 1
HheadAscent: 46
HheadAOffset: 1
HheadDescent: -1
HheadDOffset: 1
OS2SubXSize: 700
OS2SubYSize: 650
OS2SubXOff: 0
OS2SubYOff: 140
OS2SupXSize: 700
OS2SupYSize: 650
OS2SupXOff: 0
OS2SupYOff: 477
OS2StrikeYSize: 50
OS2StrikeYPos: 250
OS2Vendor: 'pyrs'
OS2CodePages: 20000001.00000000
OS2UnicodeRanges: 800000af.4000204b.00000000.00000000
Lookup: 258 0 0 "'kern' Horizontal Kerning in Latin lookup 0"  {"'kern' Horizontal Kerning in Latin lookup 0 subtable"  } ['kern' ('DFLT' <'dflt' > 'latn' <'dflt' > ) ]
MarkAttachClasses: 1
DEI: 91125
TtTable: prep
PUSHW_1
 511
SCANCTRL
PUSHB_1
 4
SCANTYPE
EndTTInstrs
ShortTable: maxp 16
  1
  0
  284
  131
  7
  0
  0
  2
  0
  1
  1
  0
  64
  0
  0
  0
EndShort
LangName: 1033 "" "" "Bold Italic" "DarioManuelMuhafara: Overlock Bold Italic: 2011" "" "Version 1.001" "" "Overlock is a trademark of Dario Manuel Muhafara." "Dario Manuel Muhafara" "Dario Muhafara" "" "www.tipo.net.ar" "www.tipo.net.ar" "This Font Software is licensed under the SIL Open Font License,+AA0A-Version 1.1. This license is available with a FAQ at:+AA0A-http://scripts.sil.org/OFL" "http://scripts.sil.org/OFL" 
GaspTable: 1 65535 15
Encoding: UnicodeBmp

StartChar: exclam
Encoding: 33 33 4
Width: 262
GlyphClass: 2
Flags: W
LayerCount: 2
Fore
SplineSet
107 -10 m 0,0,1
 82 -10 82 -10 64.5 7.5 c 128,-1,2
 47 25 47 25 47 54 c 0,3,4
 47 89 47 89 71 116 c 128,-1,5
 95 143 95 143 127 143 c 0,6,7
 152 143 152 143 168.5 124.5 c 128,-1,8
 185 106 185 106 185 78 c 0,9,10
 185 42 185 42 162.5 16 c 128,-1,11
 140 -10 140 -10 107 -10 c 0,0,1
247 640 m 0,12,13
 247 613 247 613 230 550 c 0,14,15
 216 500 216 500 198 402 c 128,-1,16
 180 304 180 304 180 262 c 0,17,18
 180 238 180 238 184 219 c 1,19,20
 151 205 151 205 130 205 c 0,21,22
 80 205 80 205 80 246 c 0,23,24
 80 253 80 253 93 350 c 0,25,26
 124 574 124 574 124 644 c 0,27,28
 124 658 124 658 123 671 c 1,29,30
 164 684 164 684 190 684 c 0,31,32
 247 684 247 684 247 640 c 0,12,13
EndSplineSet
EndChar

StartChar: quotedbl
Encoding: 34 34 5
Width: 399
GlyphClass: 2
Flags: W
LayerCount: 2
Fore
SplineSet
310 706 m 0,0,1
 316 735 316 735 362 735 c 0,2,3
 386 735 386 735 403 723.5 c 128,-1,4
 420 712 420 712 420 689 c 0,5,6
 420 676 420 676 402 615 c 128,-1,7
 384 554 384 554 369 514 c 0,8,9
 354 475 354 475 322 475 c 0,10,11
 307 475 307 475 277 490 c 1,12,13
 291 525 291 525 300 612 c 128,-1,14
 309 699 309 699 310 706 c 0,0,1
113 706 m 0,15,16
 119 735 119 735 165 735 c 0,17,18
 189 735 189 735 206 723.5 c 128,-1,19
 223 712 223 712 223 689 c 0,20,21
 223 676 223 676 205 615 c 128,-1,22
 187 554 187 554 172 514 c 0,23,24
 157 475 157 475 125 475 c 0,25,26
 110 475 110 475 80 490 c 1,27,28
 94 525 94 525 103 612 c 128,-1,29
 112 699 112 699 113 706 c 0,15,16
EndSplineSet
EndChar

StartChar: numbersign
Encoding: 35 35 6
Width: 574
GlyphClass: 2
Flags: W
LayerCount: 2
Fore
SplineSet
446 459 m 1,0,1
 567 464 567 464 576 465 c 1,2,3
 577 457 577 457 577 452 c 0,4,5
 577 422 577 422 562.5 402.5 c 128,-1,6
 548 383 548 383 516 383 c 0,7,8
 478 383 478 383 423 388 c 1,9,10
 413 358 413 358 390 271 c 1,11,12
 464 274 464 274 523 279 c 1,13,14
 524 271 524 271 524 266 c 0,15,16
 524 236 524 236 509.5 216.5 c 128,-1,17
 495 197 495 197 463 197 c 0,18,19
 425 197 425 197 370 202 c 1,20,21
 353 139 353 139 348 104 c 0,22,23
 344 71 344 71 342 39 c 1,24,25
 320 28 320 28 303 28 c 0,26,27
 272 28 272 28 272 58 c 0,28,29
 272 71 272 71 310 205 c 1,30,-1
 192 205 l 1,31,32
 172 130 172 130 168 104 c 0,33,34
 164 71 164 71 162 39 c 1,35,36
 140 28 140 28 123 28 c 0,37,38
 92 28 92 28 92 58 c 0,39,40
 92 69 92 69 130 203 c 1,41,42
 66 199 66 199 4 182 c 1,43,44
 0 198 0 198 0 213 c 0,45,46
 0 244 0 244 21 258 c 128,-1,47
 42 272 42 272 87 272 c 2,48,-1
 152 272 l 1,49,50
 164 320 164 320 184 388 c 1,51,52
 120 384 120 384 58 367 c 1,53,54
 54 383 54 383 54 398 c 0,55,56
 54 429 54 429 75 443 c 128,-1,57
 96 457 96 457 141 457 c 2,58,-1
 202 457 l 1,59,60
 205 471 205 471 214 507 c 128,-1,61
 223 543 223 543 230 573 c 128,-1,62
 237 603 237 603 240 619 c 1,63,64
 255 623 255 623 271 623 c 0,65,66
 306 623 306 623 306 594 c 0,67,68
 306 584 306 584 266 457 c 1,69,-1
 381 457 l 1,70,71
 384 471 384 471 393 507 c 128,-1,72
 402 543 402 543 409 573 c 128,-1,73
 416 603 416 603 419 619 c 1,74,75
 434 623 434 623 450 623 c 0,76,77
 485 623 485 623 485 594 c 0,78,79
 485 583 485 583 446 459 c 1,0,1
210 270 m 1,80,-1
 331 270 l 1,81,-1
 364 391 l 1,82,-1
 246 391 l 1,83,84
 214 288 214 288 210 270 c 1,80,-1
EndSplineSet
EndChar

StartChar: dollar
Encoding: 36 36 7
Width: 574
GlyphClass: 2
Flags: W
LayerCount: 2
Fore
SplineSet
204 -10 m 1,0,1
 137 -8 137 -8 88.5 19 c 128,-1,2
 40 46 40 46 40 84 c 0,3,4
 40 128 40 128 108 159 c 1,5,6
 118 127 118 127 148 104 c 128,-1,7
 178 81 178 81 214 75 c 1,8,-1
 243 286 l 1,9,10
 181 307 181 307 145.5 341 c 128,-1,11
 110 375 110 375 110 445 c 0,12,13
 110 532 110 532 158 590 c 128,-1,14
 206 648 206 648 298 665 c 1,15,16
 300 688 300 688 302 736 c 1,17,18
 317 739 317 739 325 739 c 0,19,20
 356 739 356 739 356 717 c 0,21,22
 356 714 356 714 351 673 c 1,23,24
 406 671 406 671 452.5 647 c 128,-1,25
 499 623 499 623 499 583 c 0,26,27
 499 524 499 524 417 508 c 1,28,29
 411 542 411 542 390 566 c 128,-1,30
 369 590 369 590 343 597 c 1,31,-1
 315 396 l 1,32,33
 344 386 344 386 357.5 380 c 128,-1,34
 371 374 371 374 394.5 360.5 c 128,-1,35
 418 347 418 347 429.5 332.5 c 128,-1,36
 441 318 441 318 450.5 294 c 128,-1,37
 460 270 460 270 460 240 c 0,38,39
 460 143 460 143 408 73.5 c 128,-1,40
 356 4 356 4 259 -7 c 1,41,42
 253 -69 253 -69 253 -76 c 1,43,-1
 233 -78 l 1,44,45
 197 -78 197 -78 197 -56 c 0,46,47
 197 -53 197 -53 204 -10 c 1,0,1
296 268 m 1,48,-1
 269 69 l 1,49,50
 313 74 313 74 338 108.5 c 128,-1,51
 363 143 363 143 363 190 c 0,52,53
 363 220 363 220 345.5 237.5 c 128,-1,54
 328 255 328 255 296 268 c 1,48,-1
262 415 m 1,55,-1
 288 594 l 1,56,57
 251 587 251 587 228.5 556 c 128,-1,58
 206 525 206 525 206 483 c 0,59,60
 206 438 206 438 262 415 c 1,55,-1
EndSplineSet
EndChar

StartChar: percent
Encoding: 37 37 8
Width: 776
GlyphClass: 2
Flags: W
LayerCount: 2
Fore
SplineSet
231 604 m 0,0,1
 199 604 199 604 178.5 565 c 128,-1,2
 158 526 158 526 158 478 c 0,3,4
 158 441 158 441 168.5 415 c 128,-1,5
 179 389 179 389 200 389 c 0,6,7
 231 389 231 389 251 429 c 128,-1,8
 271 469 271 469 271 519 c 0,9,10
 271 555 271 555 261 579.5 c 128,-1,11
 251 604 251 604 231 604 c 0,0,1
577 268 m 0,12,13
 545 268 545 268 524.5 229 c 128,-1,14
 504 190 504 190 504 142 c 0,15,16
 504 105 504 105 514.5 79 c 128,-1,17
 525 53 525 53 546 53 c 0,18,19
 577 53 577 53 597 93 c 128,-1,20
 617 133 617 133 617 182 c 0,21,22
 617 218 617 218 607 243 c 128,-1,23
 597 268 597 268 577 268 c 0,12,13
180 -31 m 1,24,25
 155 -31 155 -31 136 -20.5 c 128,-1,26
 117 -10 117 -10 117 6 c 0,27,28
 117 17 117 17 136.5 45.5 c 128,-1,29
 156 74 156 74 248 199 c 0,30,31
 368 362 368 362 464 493 c 0,32,33
 529 583 529 583 602 693 c 1,34,35
 627 693 627 693 646 682.5 c 128,-1,36
 665 672 665 672 665 656 c 0,37,38
 665 651 665 651 662 644 c 128,-1,39
 659 637 659 637 650 624 c 128,-1,40
 641 611 641 611 632.5 599.5 c 128,-1,41
 624 588 624 588 604.5 562 c 128,-1,42
 585 536 585 536 569 513 c 2,43,-1
 320 171 l 2,44,45
 253 80 253 80 180 -31 c 1,24,25
540 -10 m 0,46,47
 480 -10 480 -10 446 26.5 c 128,-1,48
 412 63 412 63 412 126 c 0,49,50
 412 212 412 212 459.5 270.5 c 128,-1,51
 507 329 507 329 583 329 c 0,52,53
 643 329 643 329 676.5 293 c 128,-1,54
 710 257 710 257 710 194 c 0,55,56
 710 108 710 108 663 49 c 128,-1,57
 616 -10 616 -10 540 -10 c 0,46,47
194 326 m 0,58,59
 134 326 134 326 100 363 c 128,-1,60
 66 400 66 400 66 463 c 0,61,62
 66 549 66 549 113.5 607.5 c 128,-1,63
 161 666 161 666 237 666 c 0,64,65
 297 666 297 666 330.5 630 c 128,-1,66
 364 594 364 594 364 530 c 0,67,68
 364 444 364 444 316.5 385 c 128,-1,69
 269 326 269 326 194 326 c 0,58,59
EndSplineSet
EndChar

StartChar: ampersand
Encoding: 38 38 9
Width: 717
GlyphClass: 2
Flags: W
LayerCount: 2
Fore
SplineSet
472 388 m 0,0,1
 499 388 499 388 552.5 373 c 128,-1,2
 606 358 606 358 624 358 c 0,3,4
 665 358 665 358 665 402 c 0,5,6
 665 425 665 425 652 445 c 1,7,8
 666 475 666 475 709 475 c 0,9,10
 729 475 729 475 738.5 463 c 128,-1,11
 748 451 748 451 748 435 c 0,12,13
 748 388 748 388 710 335.5 c 128,-1,14
 672 283 672 283 621 283 c 0,15,16
 604 283 604 283 581 288 c 1,17,18
 573 208 573 208 543.5 148.5 c 128,-1,19
 514 89 514 89 469.5 55 c 128,-1,20
 425 21 425 21 373.5 5 c 128,-1,21
 322 -11 322 -11 263 -11 c 0,22,23
 160 -11 160 -11 98.5 45 c 128,-1,24
 37 101 37 101 37 179 c 0,25,26
 37 238 37 238 77.5 291 c 128,-1,27
 118 344 118 344 196 375 c 1,28,29
 106 415 106 415 106 492 c 0,30,31
 106 566 106 566 169 620.5 c 128,-1,32
 232 675 232 675 324 675 c 0,33,34
 384 675 384 675 427 648.5 c 128,-1,35
 470 622 470 622 470 590 c 0,36,37
 470 566 470 566 449 550.5 c 128,-1,38
 428 535 428 535 391 531 c 1,39,40
 369 600 369 600 311 600 c 0,41,42
 270 600 270 600 243 573.5 c 128,-1,43
 216 547 216 547 216 504 c 0,44,45
 216 476 216 476 240.5 451 c 128,-1,46
 265 426 265 426 305 426 c 0,47,48
 317 426 317 426 324 427 c 1,49,50
 326 409 326 409 326 404 c 0,51,52
 326 395 326 395 325 388.5 c 128,-1,53
 324 382 324 382 321 377 c 128,-1,54
 318 372 318 372 316 369.5 c 128,-1,55
 314 367 314 367 308.5 364.5 c 128,-1,56
 303 362 303 362 301 361 c 128,-1,57
 299 360 299 360 292 358 c 128,-1,58
 285 356 285 356 283 356 c 0,59,60
 224 341 224 341 188 296 c 128,-1,61
 152 251 152 251 152 199 c 0,62,63
 152 144 152 144 188.5 104 c 128,-1,64
 225 64 225 64 289 64 c 0,65,66
 377 64 377 64 433 122 c 128,-1,67
 489 180 489 180 489 311 c 1,68,69
 475 314 475 314 463 314 c 0,70,71
 445 314 445 314 435 301.5 c 128,-1,72
 425 289 425 289 425 270 c 0,73,74
 425 243 425 243 439 227 c 1,75,76
 424 196 424 196 384 196 c 0,77,78
 363 196 363 196 353.5 208 c 128,-1,79
 344 220 344 220 344 236 c 0,80,81
 344 285 344 285 381.5 336.5 c 128,-1,82
 419 388 419 388 472 388 c 0,0,1
EndSplineSet
EndChar

StartChar: quotesingle
Encoding: 39 39 10
Width: 202
GlyphClass: 2
Flags: W
LayerCount: 2
Fore
SplineSet
113 706 m 0,0,1
 119 735 119 735 165 735 c 0,2,3
 189 735 189 735 206 723.5 c 128,-1,4
 223 712 223 712 223 689 c 0,5,6
 223 676 223 676 205 615 c 128,-1,7
 187 554 187 554 172 514 c 0,8,9
 157 475 157 475 125 475 c 0,10,11
 110 475 110 475 80 490 c 1,12,13
 94 525 94 525 103 612 c 128,-1,14
 112 699 112 699 113 706 c 0,0,1
EndSplineSet
EndChar

StartChar: parenleft
Encoding: 40 40 11
Width: 353
GlyphClass: 2
Flags: W
LayerCount: 2
Fore
SplineSet
258 -166 m 1,0,-1
 257 -174 l 1,1,2
 235 -199 235 -199 210 -199 c 0,3,4
 192 -199 192 -199 169 -170 c 128,-1,5
 146 -141 146 -141 126 -94 c 128,-1,6
 106 -47 106 -47 92 22 c 128,-1,7
 78 91 78 91 78 162 c 0,8,9
 78 261 78 261 109.5 368 c 128,-1,10
 141 475 141 475 184 552 c 128,-1,11
 227 629 227 629 270 679.5 c 128,-1,12
 313 730 313 730 338 730 c 0,13,14
 367 730 367 730 384 701 c 1,15,16
 292 607 292 607 236 454.5 c 128,-1,17
 180 302 180 302 180 150 c 0,18,19
 180 -58 180 -58 258 -166 c 1,0,-1
EndSplineSet
EndChar

StartChar: parenright
Encoding: 41 41 12
Width: 353
GlyphClass: 2
Flags: W
LayerCount: 2
Fore
SplineSet
93 697 m 1,0,-1
 94 705 l 1,1,2
 115 730 115 730 141 730 c 0,3,4
 159 730 159 730 182 700 c 128,-1,5
 205 670 205 670 225.5 622.5 c 128,-1,6
 246 575 246 575 260 506 c 128,-1,7
 274 437 274 437 274 367 c 0,8,9
 274 263 274 263 241.5 154.5 c 128,-1,10
 209 46 209 46 164.5 -28.5 c 128,-1,11
 120 -103 120 -103 78 -151 c 128,-1,12
 36 -199 36 -199 14 -199 c 0,13,14
 -14 -199 -14 -199 -31 -170 c 1,15,16
 61 -74 61 -74 117 77.5 c 128,-1,17
 173 229 173 229 173 378 c 0,18,19
 173 474 173 474 152 560 c 128,-1,20
 131 646 131 646 93 697 c 1,0,-1
EndSplineSet
EndChar

StartChar: asterisk
Encoding: 42 42 13
Width: 468
GlyphClass: 2
Flags: W
LayerCount: 2
Fore
SplineSet
322 623 m 1,0,1
 394 671 394 671 414 686 c 1,2,3
 449 653 449 653 449 625 c 0,4,5
 449 600 449 600 422 585.5 c 128,-1,6
 395 571 395 571 324 548 c 1,7,8
 358 508 358 508 412 456 c 1,9,10
 379 409 379 409 338 409 c 0,11,12
 319 409 319 409 304.5 421 c 128,-1,13
 290 433 290 433 282 448 c 128,-1,14
 274 463 274 463 258 499 c 1,15,16
 217 448 217 448 179 392 c 1,17,18
 153 402 153 402 133 418 c 128,-1,19
 113 434 113 434 113 451 c 0,20,21
 113 459 113 459 120 469 c 128,-1,22
 127 479 127 479 144 494.5 c 128,-1,23
 161 510 161 510 172.5 519.5 c 128,-1,24
 184 529 184 529 209 550 c 1,25,26
 181 563 181 563 94 594 c 1,27,28
 102 620 102 620 121.5 641.5 c 128,-1,29
 141 663 141 663 165 663 c 0,30,31
 191 663 191 663 239 627 c 1,32,33
 241 657 241 657 241 679 c 0,34,35
 241 690 241 690 239 730 c 1,36,37
 263 742 263 742 287 742 c 0,38,39
 343 742 343 742 343 704 c 0,40,41
 343 686 343 686 322 623 c 1,0,1
EndSplineSet
EndChar

StartChar: plus
Encoding: 43 43 14
Width: 574
GlyphClass: 2
Flags: W
LayerCount: 2
Fore
SplineSet
280 486 m 0,0,1
 305 486 305 486 321.5 474 c 128,-1,2
 338 462 338 462 338 443 c 0,3,4
 338 422 338 422 334.5 364.5 c 128,-1,5
 331 307 331 307 331 289 c 1,6,7
 435 289 435 289 511 299 c 1,8,9
 517 282 517 282 517 260 c 0,10,11
 517 240 517 240 502.5 225.5 c 128,-1,12
 488 211 488 211 465 211 c 0,13,14
 446 211 446 211 395 214.5 c 128,-1,15
 344 218 344 218 330 218 c 1,16,17
 330 116 330 116 339 28 c 1,18,19
 310 22 310 22 292 22 c 0,20,21
 269 22 269 22 251.5 33 c 128,-1,22
 234 44 234 44 234 66 c 0,23,24
 234 90 234 90 237.5 139 c 128,-1,25
 241 188 241 188 241 219 c 1,26,27
 148 218 148 218 60 210 c 1,28,29
 56 230 56 230 56 248 c 0,30,31
 56 267 56 267 68.5 282 c 128,-1,32
 81 297 81 297 108 297 c 0,33,34
 130 297 130 297 171.5 293.5 c 128,-1,35
 213 290 213 290 242 290 c 1,36,37
 242 401 242 401 233 479 c 1,38,39
 254 486 254 486 280 486 c 0,0,1
EndSplineSet
EndChar

StartChar: comma
Encoding: 44 44 15
Width: 215
GlyphClass: 2
Flags: W
LayerCount: 2
Fore
SplineSet
98 120 m 1,0,1
 123 120 123 120 140.5 101.5 c 128,-1,2
 158 83 158 83 158 45 c 0,3,4
 158 -18 158 -18 113 -86 c 128,-1,5
 68 -154 68 -154 7 -154 c 0,6,7
 -16 -154 -16 -154 -16 -127 c 0,8,9
 -16 -112 -16 -112 -12 -101 c 1,10,-1
 -8 -101 l 2,11,12
 21 -101 21 -101 44.5 -76 c 128,-1,13
 68 -51 68 -51 68 -23 c 0,14,15
 68 17 68 17 30 25 c 1,16,17
 25 40 25 40 25 51 c 0,18,19
 25 80 25 80 45.5 99 c 128,-1,20
 66 118 66 118 98 120 c 1,0,1
EndSplineSet
EndChar

StartChar: hyphen
Encoding: 45 45 16
Width: 251
GlyphClass: 2
Flags: W
LayerCount: 2
Fore
SplineSet
243 309 m 1,0,1
 246 297 246 297 246 286 c 0,2,3
 246 259 246 259 232 241 c 128,-1,4
 218 223 218 223 190 223 c 0,5,6
 179 223 179 223 156 225.5 c 128,-1,7
 133 228 133 228 117 228 c 0,8,9
 75 228 75 228 26 217 c 1,10,11
 25 223 25 223 25 236 c 0,12,13
 25 303 25 303 81 303 c 0,14,15
 88 303 88 303 114.5 301 c 128,-1,16
 141 299 141 299 159 299 c 0,17,18
 204 299 204 299 243 309 c 1,0,1
EndSplineSet
EndChar

StartChar: period
Encoding: 46 46 17
Width: 223
GlyphClass: 2
Flags: W
LayerCount: 2
Fore
SplineSet
89 -10 m 0,0,1
 64 -10 64 -10 46.5 7.5 c 128,-1,2
 29 25 29 25 29 54 c 0,3,4
 29 89 29 89 53 116 c 128,-1,5
 77 143 77 143 109 143 c 0,6,7
 134 143 134 143 150.5 124.5 c 128,-1,8
 167 106 167 106 167 78 c 0,9,10
 167 42 167 42 144.5 16 c 128,-1,11
 122 -10 122 -10 89 -10 c 0,0,1
EndSplineSet
EndChar

StartChar: slash
Encoding: 47 47 18
Width: 261
GlyphClass: 2
Flags: W
LayerCount: 2
Fore
SplineSet
256 742 m 1,0,1
 298 742 298 742 298 721 c 0,2,3
 298 710 298 710 263.5 592.5 c 128,-1,4
 229 475 229 475 196.5 369 c 128,-1,5
 164 263 164 263 161 254 c 0,6,7
 82 4 82 4 57 -117 c 1,8,9
 35 -122 35 -122 23 -122 c 0,10,11
 -15 -122 -15 -122 -15 -99 c 0,12,13
 -15 -87 -15 -87 162 507 c 0,14,15
 207 659 207 659 225 737 c 1,16,-1
 256 742 l 1,0,1
EndSplineSet
EndChar

StartChar: zero
Encoding: 48 48 19
Width: 574
GlyphClass: 2
Flags: W
LayerCount: 2
Fore
SplineSet
241 -10 m 0,0,1
 150 -10 150 -10 95 59 c 128,-1,2
 40 128 40 128 40 246 c 0,3,4
 40 357 40 357 76.5 454 c 128,-1,5
 113 551 113 551 181.5 612 c 128,-1,6
 250 673 250 673 335 673 c 0,7,8
 426 673 426 673 479.5 604.5 c 128,-1,9
 533 536 533 536 533 417 c 0,10,11
 533 307 533 307 498 210 c 128,-1,12
 463 113 463 113 395 51.5 c 128,-1,13
 327 -10 327 -10 241 -10 c 0,0,1
154 275 m 0,14,15
 154 184 154 184 178 124 c 128,-1,16
 202 64 202 64 250 64 c 0,17,18
 301 64 301 64 341.5 112 c 128,-1,19
 382 160 382 160 402.5 234 c 128,-1,20
 423 308 423 308 423 390 c 0,21,22
 423 478 423 478 399 538.5 c 128,-1,23
 375 599 375 599 326 599 c 0,24,25
 253 599 253 599 203.5 504 c 128,-1,26
 154 409 154 409 154 275 c 0,14,15
EndSplineSet
EndChar

StartChar: one
Encoding: 49 49 20
Width: 574
GlyphClass: 2
Flags: W
LayerCount: 2
Fore
SplineSet
329 68 m 1,0,1
 392 68 392 68 424 72 c 1,2,3
 426 60 426 60 426 52 c 0,4,5
 426 29 426 29 415 13.5 c 128,-1,6
 404 -2 404 -2 380 -2 c 0,7,8
 373 -2 373 -2 314.5 -1 c 128,-1,9
 256 0 256 0 212 0 c 0,10,11
 135 0 135 0 104 -1 c 1,12,13
 102 13 102 13 102 19 c 0,14,15
 102 71 102 71 161 71 c 2,16,-1
 225 71 l 1,17,18
 226 79 226 79 263 353 c 1,19,20
 288 550 288 550 292 590 c 1,21,22
 217 585 217 585 178 577 c 1,23,24
 178 617 178 617 188 635 c 128,-1,25
 198 653 198 653 226 657 c 0,26,27
 336 673 336 673 368 673 c 0,28,29
 406 673 406 673 406 643 c 0,30,31
 406 635 406 635 398 589.5 c 128,-1,32
 390 544 390 544 377 466.5 c 128,-1,33
 364 389 364 389 355 319 c 0,34,35
 331 127 331 127 329 68 c 1,0,1
EndSplineSet
EndChar

StartChar: two
Encoding: 50 50 21
Width: 574
GlyphClass: 2
Flags: W
LayerCount: 2
Fore
SplineSet
155 513 m 1,0,1
 109 521 109 521 109 557 c 0,2,3
 109 597 109 597 178.5 635 c 128,-1,4
 248 673 248 673 321 673 c 0,5,6
 391 673 391 673 441 633 c 128,-1,7
 491 593 491 593 491 520 c 0,8,9
 491 492 491 492 483.5 462.5 c 128,-1,10
 476 433 476 433 467 409.5 c 128,-1,11
 458 386 458 386 436 355.5 c 128,-1,12
 414 325 414 325 401 306.5 c 128,-1,13
 388 288 388 288 354.5 256 c 128,-1,14
 321 224 321 224 307.5 210.5 c 128,-1,15
 294 197 294 197 253 163.5 c 128,-1,16
 212 130 212 130 201 121 c 128,-1,17
 190 112 190 112 146 77 c 1,18,19
 165 76 165 76 213 76 c 0,20,21
 312 76 312 76 359 81 c 128,-1,22
 406 86 406 86 455 104 c 1,23,24
 462 76 462 76 462 52 c 0,25,26
 462 22 462 22 432 12 c 0,27,28
 391 -2 391 -2 269 -2 c 0,29,30
 230 -2 230 -2 159 -1 c 128,-1,31
 88 0 88 0 60 0 c 0,32,33
 21 0 21 0 21 37 c 0,34,35
 21 46 21 46 24 60 c 1,36,37
 66 100 66 100 130 156 c 128,-1,38
 194 212 194 212 231.5 246 c 128,-1,39
 269 280 269 280 308.5 324 c 128,-1,40
 348 368 348 368 366 410 c 128,-1,41
 384 452 384 452 384 498 c 128,-1,42
 384 544 384 544 359.5 571 c 128,-1,43
 335 598 335 598 298 598 c 0,44,45
 262 598 262 598 223 574.5 c 128,-1,46
 184 551 184 551 155 513 c 1,0,1
EndSplineSet
EndChar

StartChar: three
Encoding: 51 51 22
Width: 574
GlyphClass: 2
Flags: W
LayerCount: 2
Fore
SplineSet
337 364 m 1,0,1
 395 341 395 341 424 301 c 128,-1,2
 453 261 453 261 453 214 c 0,3,4
 453 129 453 129 375 59 c 128,-1,5
 297 -11 297 -11 182 -11 c 0,6,7
 111 -11 111 -11 75.5 6.5 c 128,-1,8
 40 24 40 24 40 47 c 128,-1,9
 40 70 40 70 56 85.5 c 128,-1,10
 72 101 72 101 94 104 c 1,11,12
 120 64 120 64 189 64 c 128,-1,13
 258 64 258 64 299.5 107.5 c 128,-1,14
 341 151 341 151 341 206 c 0,15,16
 341 255 341 255 304.5 287.5 c 128,-1,17
 268 320 268 320 195 320 c 0,18,19
 169 320 169 320 169 352 c 0,20,21
 169 364 169 364 173 380 c 1,22,23
 264 380 264 380 314 421 c 128,-1,24
 364 462 364 462 364 518 c 0,25,26
 364 553 364 553 343.5 576 c 128,-1,27
 323 599 323 599 287 599 c 0,28,29
 255 599 255 599 223 579 c 128,-1,30
 191 559 191 559 168 521 c 1,31,32
 146 521 146 521 134 533.5 c 128,-1,33
 122 546 122 546 122 564 c 0,34,35
 122 600 122 600 183 636.5 c 128,-1,36
 244 673 244 673 314 673 c 0,37,38
 389 673 389 673 432 634.5 c 128,-1,39
 475 596 475 596 475 541 c 0,40,41
 475 435 475 435 337 364 c 1,0,1
EndSplineSet
EndChar

StartChar: four
Encoding: 52 52 23
Width: 574
GlyphClass: 2
Flags: W
LayerCount: 2
Fore
SplineSet
349 548 m 1,0,1
 243 430 243 430 136 278 c 1,2,3
 157 277 157 277 200 277 c 0,4,5
 261 277 261 277 315 280 c 1,6,7
 321 328 321 328 332.5 420 c 128,-1,8
 344 512 344 512 349 548 c 1,0,1
356 661 m 1,9,10
 377 674 377 674 420 674 c 0,11,12
 458 674 458 674 474 671 c 1,13,14
 470 647 470 647 460 592 c 128,-1,15
 450 537 450 537 443.5 500 c 128,-1,16
 437 463 437 463 428 403 c 128,-1,17
 419 343 419 343 412 283 c 1,18,19
 484 289 484 289 508 300 c 1,20,21
 513 278 513 278 513 262 c 0,22,23
 513 248 513 248 510.5 238 c 128,-1,24
 508 228 508 228 501 221.5 c 128,-1,25
 494 215 494 215 488.5 211 c 128,-1,26
 483 207 483 207 470 205.5 c 128,-1,27
 457 204 457 204 450.5 203 c 128,-1,28
 444 202 444 202 427 201.5 c 128,-1,29
 410 201 410 201 403 201 c 1,30,31
 390 115 390 115 390 57 c 0,32,33
 390 23 390 23 394 -2 c 1,34,35
 373 -10 373 -10 331 -10 c 0,36,37
 303 -10 303 -10 292 -1 c 128,-1,38
 281 8 281 8 281 28 c 128,-1,39
 281 48 281 48 304 200 c 1,40,41
 106 200 106 200 54 207 c 0,42,43
 37 210 37 210 37 239 c 0,44,45
 37 263 37 263 44 284 c 1,46,47
 94 359 94 359 202 490.5 c 128,-1,48
 310 622 310 622 356 661 c 1,9,10
EndSplineSet
EndChar

StartChar: five
Encoding: 53 53 24
Width: 574
GlyphClass: 2
Flags: W
LayerCount: 2
Fore
SplineSet
417 577 m 0,0,1
 351 577 351 577 246 582 c 1,2,-1
 211 432 l 1,3,4
 236 436 236 436 268 436 c 0,5,6
 364 436 364 436 412.5 389 c 128,-1,7
 461 342 461 342 461 263 c 0,8,9
 461 152 461 152 383.5 71 c 128,-1,10
 306 -10 306 -10 186 -10 c 0,11,12
 115 -10 115 -10 79.5 8 c 128,-1,13
 44 26 44 26 44 49 c 0,14,15
 44 93 44 93 98 105 c 1,16,17
 112 83 112 83 129 73.5 c 128,-1,18
 146 64 146 64 186 64 c 0,19,20
 258 64 258 64 304 116.5 c 128,-1,21
 350 169 350 169 350 234 c 0,22,23
 350 290 350 290 313 327 c 128,-1,24
 276 364 276 364 208 364 c 0,25,26
 168 364 168 364 133 359 c 1,27,28
 127 369 127 369 127 394 c 0,29,30
 127 395 127 395 174 664 c 1,31,32
 203 662 203 662 381 662 c 0,33,34
 451 662 451 662 494 670 c 1,35,36
 499 656 499 656 499 629 c 1,37,38
 494 577 494 577 417 577 c 0,0,1
EndSplineSet
EndChar

StartChar: six
Encoding: 54 54 25
Width: 574
GlyphClass: 2
Flags: W
LayerCount: 2
Fore
SplineSet
286 327 m 0,0,1
 236 327 236 327 182 285 c 1,2,3
 175 251 175 251 175 204 c 0,4,5
 175 65 175 65 265 65 c 0,6,7
 318 65 318 65 349.5 112 c 128,-1,8
 381 159 381 159 381 220 c 0,9,10
 381 270 381 270 355 298.5 c 128,-1,11
 329 327 329 327 286 327 c 0,0,1
245 -10 m 0,12,13
 153 -10 153 -10 109.5 48 c 128,-1,14
 66 106 66 106 66 198 c 0,15,16
 66 279 66 279 94 363 c 128,-1,17
 122 447 122 447 170 516 c 128,-1,18
 218 585 218 585 292 629 c 128,-1,19
 366 673 366 673 450 673 c 0,20,21
 486 673 486 673 486 638 c 0,22,23
 486 615 486 615 472 594 c 1,24,25
 452 598 452 598 442 598 c 0,26,27
 348 598 348 598 282 525.5 c 128,-1,28
 216 453 216 453 193 348 c 1,29,30
 266 401 266 401 333 401 c 0,31,32
 401 401 401 401 446 355.5 c 128,-1,33
 491 310 491 310 491 235 c 0,34,35
 491 143 491 143 419.5 66.5 c 128,-1,36
 348 -10 348 -10 245 -10 c 0,12,13
EndSplineSet
EndChar

StartChar: seven
Encoding: 55 55 26
Width: 574
GlyphClass: 2
Flags: W
LayerCount: 2
Fore
SplineSet
47 44 m 1,0,1
 142 127 142 127 247 286.5 c 128,-1,2
 352 446 352 446 417 578 c 1,3,4
 295 574 295 574 165 574 c 0,5,6
 101 574 101 574 101 622 c 0,7,8
 101 646 101 646 114 670 c 1,9,10
 162 662 162 662 224 662 c 0,11,12
 483 662 483 662 533 664 c 1,13,14
 536 650 536 650 536 637 c 0,15,16
 536 610 536 610 525 589 c 1,17,18
 516 567 516 567 488.5 519.5 c 128,-1,19
 461 472 461 472 419.5 405 c 128,-1,20
 378 338 378 338 344 284.5 c 128,-1,21
 310 231 310 231 262.5 156.5 c 128,-1,22
 215 82 215 82 200 59 c 0,23,24
 173 16 173 16 156 3 c 128,-1,25
 139 -10 139 -10 123 -10 c 0,26,27
 77 -10 77 -10 47 44 c 1,0,1
EndSplineSet
EndChar

StartChar: eight
Encoding: 56 56 27
Width: 574
GlyphClass: 2
Flags: W
LayerCount: 2
Fore
SplineSet
235 513 m 0,0,1
 235 450 235 450 319 412 c 1,2,3
 411 458 411 458 411 534 c 0,4,5
 411 563 411 563 388 581 c 128,-1,6
 365 599 365 599 331 599 c 0,7,8
 291 599 291 599 263 575 c 128,-1,9
 235 551 235 551 235 513 c 0,0,1
385 199 m 0,10,11
 385 240 385 240 359.5 267.5 c 128,-1,12
 334 295 334 295 280 321 c 1,13,14
 165 266 165 266 165 164 c 0,15,16
 165 122 165 122 190.5 93 c 128,-1,17
 216 64 216 64 261 64 c 0,18,19
 317 64 317 64 351 104.5 c 128,-1,20
 385 145 385 145 385 199 c 0,10,11
57 148 m 0,21,22
 57 224 57 224 98.5 279.5 c 128,-1,23
 140 335 140 335 208 363 c 1,24,25
 131 414 131 414 131 498 c 0,26,27
 131 574 131 574 192.5 623.5 c 128,-1,28
 254 673 254 673 342 673 c 0,29,30
 424 673 424 673 468.5 635 c 128,-1,31
 513 597 513 597 513 540 c 0,32,33
 513 493 513 493 481.5 448 c 128,-1,34
 450 403 450 403 392 370 c 1,35,36
 442 338 442 338 468 302 c 128,-1,37
 494 266 494 266 494 208 c 0,38,39
 494 120 494 120 429 55 c 128,-1,40
 364 -10 364 -10 250 -10 c 0,41,42
 158 -10 158 -10 107.5 36 c 128,-1,43
 57 82 57 82 57 148 c 0,21,22
EndSplineSet
EndChar

StartChar: nine
Encoding: 57 57 28
Width: 574
GlyphClass: 2
Flags: W
LayerCount: 2
Fore
SplineSet
294 337 m 0,0,1
 344 337 344 337 398 379 c 1,2,3
 405 413 405 413 405 458 c 0,4,5
 405 598 405 598 315 598 c 0,6,7
 262 598 262 598 230.5 551.5 c 128,-1,8
 199 505 199 505 199 444 c 0,9,10
 199 394 199 394 225 365.5 c 128,-1,11
 251 337 251 337 294 337 c 0,0,1
335 674 m 0,12,13
 427 674 427 674 470 616 c 128,-1,14
 513 558 513 558 513 466 c 0,15,16
 513 356 513 356 467 248 c 128,-1,17
 421 140 421 140 331 65 c 128,-1,18
 241 -10 241 -10 130 -10 c 0,19,20
 94 -10 94 -10 94 26 c 0,21,22
 94 49 94 49 108 70 c 1,23,24
 128 66 128 66 138 66 c 0,25,26
 230 66 230 66 294 135 c 128,-1,27
 358 204 358 204 386 308 c 1,28,29
 313 262 313 262 252 262 c 0,30,31
 184 262 184 262 136.5 308 c 128,-1,32
 89 354 89 354 89 429 c 0,33,34
 89 521 89 521 160.5 597.5 c 128,-1,35
 232 674 232 674 335 674 c 0,12,13
EndSplineSet
EndChar

StartChar: colon
Encoding: 58 58 29
Width: 244
GlyphClass: 2
Flags: W
LayerCount: 2
Fore
SplineSet
136 331 m 0,0,1
 111 331 111 331 93.5 348.5 c 128,-1,2
 76 366 76 366 76 395 c 0,3,4
 76 430 76 430 100 457 c 128,-1,5
 124 484 124 484 156 484 c 0,6,7
 181 484 181 484 197.5 465.5 c 128,-1,8
 214 447 214 447 214 419 c 0,9,10
 214 383 214 383 191.5 357 c 128,-1,11
 169 331 169 331 136 331 c 0,0,1
89 -10 m 0,12,13
 64 -10 64 -10 46.5 7.5 c 128,-1,14
 29 25 29 25 29 54 c 0,15,16
 29 89 29 89 53 116 c 128,-1,17
 77 143 77 143 109 143 c 0,18,19
 134 143 134 143 150.5 124.5 c 128,-1,20
 167 106 167 106 167 78 c 0,21,22
 167 42 167 42 144.5 16 c 128,-1,23
 122 -10 122 -10 89 -10 c 0,12,13
EndSplineSet
EndChar

StartChar: semicolon
Encoding: 59 59 30
Width: 231
GlyphClass: 2
Flags: W
LayerCount: 2
Fore
SplineSet
98 120 m 1,0,1
 123 120 123 120 140.5 101.5 c 128,-1,2
 158 83 158 83 158 45 c 0,3,4
 158 -18 158 -18 113 -86 c 128,-1,5
 68 -154 68 -154 7 -154 c 0,6,7
 -16 -154 -16 -154 -16 -127 c 0,8,9
 -16 -112 -16 -112 -12 -101 c 1,10,-1
 -8 -101 l 2,11,12
 21 -101 21 -101 44.5 -76 c 128,-1,13
 68 -51 68 -51 68 -23 c 0,14,15
 68 17 68 17 30 25 c 1,16,17
 25 40 25 40 25 51 c 0,18,19
 25 80 25 80 45.5 99 c 128,-1,20
 66 118 66 118 98 120 c 1,0,1
108 331 m 0,21,22
 83 331 83 331 65.5 348.5 c 128,-1,23
 48 366 48 366 48 395 c 0,24,25
 48 430 48 430 72 457 c 128,-1,26
 96 484 96 484 128 484 c 0,27,28
 153 484 153 484 169.5 465.5 c 128,-1,29
 186 447 186 447 186 419 c 0,30,31
 186 383 186 383 163.5 357 c 128,-1,32
 141 331 141 331 108 331 c 0,21,22
EndSplineSet
EndChar

StartChar: less
Encoding: 60 60 31
Width: 574
GlyphClass: 2
Flags: W
LayerCount: 2
Fore
SplineSet
456 436 m 1,0,-1
 217 252 l 1,1,2
 319 141 319 141 402 58 c 1,3,4
 376 18 376 18 334 18 c 0,5,6
 312 18 312 18 299 31 c 1,7,-1
 111 253 l 1,8,-1
 361 465 l 2,9,10
 377 478 377 478 397 478 c 0,11,12
 437 478 437 478 456 436 c 1,0,-1
EndSplineSet
EndChar

StartChar: equal
Encoding: 61 61 32
Width: 574
GlyphClass: 2
Flags: W
LayerCount: 2
Fore
SplineSet
496 162 m 128,-1,1
 496 141 496 141 481.5 127 c 128,-1,2
 467 113 467 113 444 113 c 0,3,4
 414 113 414 113 363.5 117 c 128,-1,5
 313 121 313 121 291 121 c 0,6,7
 192 121 192 121 84 111 c 1,8,9
 79 135 79 135 79 150 c 0,10,11
 79 169 79 169 91.5 184 c 128,-1,12
 104 199 104 199 131 199 c 0,13,14
 142 199 142 199 197 195.5 c 128,-1,15
 252 192 252 192 289 192 c 0,16,17
 417 192 417 192 490 201 c 1,18,0
 496 183 496 183 496 162 c 128,-1,1
496 358 m 128,-1,20
 496 337 496 337 481.5 323 c 128,-1,21
 467 309 467 309 444 309 c 0,22,23
 414 309 414 309 363.5 313 c 128,-1,24
 313 317 313 317 291 317 c 0,25,26
 192 317 192 317 84 307 c 1,27,28
 79 331 79 331 79 346 c 0,29,30
 79 365 79 365 91.5 380 c 128,-1,31
 104 395 104 395 131 395 c 0,32,33
 142 395 142 395 197 391.5 c 128,-1,34
 252 388 252 388 289 388 c 0,35,36
 417 388 417 388 490 397 c 1,37,19
 496 379 496 379 496 358 c 128,-1,20
EndSplineSet
EndChar

StartChar: greater
Encoding: 62 62 33
Width: 574
GlyphClass: 2
Flags: W
LayerCount: 2
Fore
SplineSet
109 60 m 1,0,-1
 348 244 l 1,1,2
 246 355 246 355 163 438 c 1,3,4
 189 478 189 478 231 478 c 0,5,6
 253 478 253 478 266 465 c 1,7,-1
 454 243 l 1,8,-1
 204 31 l 2,9,10
 188 18 188 18 168 18 c 0,11,12
 128 18 128 18 109 60 c 1,0,-1
EndSplineSet
EndChar

StartChar: question
Encoding: 63 63 34
Width: 382
GlyphClass: 2
Flags: W
LayerCount: 2
Fore
SplineSet
136 -10 m 0,0,1
 111 -10 111 -10 93.5 7.5 c 128,-1,2
 76 25 76 25 76 54 c 0,3,4
 76 89 76 89 100 116 c 128,-1,5
 124 143 124 143 156 143 c 0,6,7
 181 143 181 143 197.5 124.5 c 128,-1,8
 214 106 214 106 214 78 c 0,9,10
 214 42 214 42 191.5 16 c 128,-1,11
 169 -10 169 -10 136 -10 c 0,0,1
204 223 m 1,12,-1
 194 216 l 1,13,14
 172 205 172 205 149 205 c 0,15,16
 97 205 97 205 97 257 c 0,17,18
 97 301 97 301 121.5 337 c 128,-1,19
 146 373 146 373 193 418 c 0,20,21
 221 445 221 445 235.5 461.5 c 128,-1,22
 250 478 250 478 266 507.5 c 128,-1,23
 282 537 282 537 282 565 c 0,24,25
 282 591 282 591 267.5 603.5 c 128,-1,26
 253 616 253 616 230 616 c 0,27,28
 198 616 198 616 166.5 594 c 128,-1,29
 135 572 135 572 124 539 c 1,30,31
 57 552 57 552 57 585 c 0,32,33
 57 628 57 628 107.5 656 c 128,-1,34
 158 684 158 684 223 684 c 0,35,36
 291 684 291 684 338 653.5 c 128,-1,37
 385 623 385 623 385 561 c 0,38,39
 385 484 385 484 282 393 c 0,40,41
 253 368 253 368 240.5 355 c 128,-1,42
 228 342 228 342 214 315 c 128,-1,43
 200 288 200 288 200 258 c 0,44,45
 200 240 200 240 204 223 c 1,12,-1
EndSplineSet
EndChar

StartChar: at
Encoding: 64 64 35
Width: 862
GlyphClass: 2
Flags: W
LayerCount: 2
Fore
SplineSet
349 54 m 0,0,1
 306 54 306 54 281 82 c 128,-1,2
 256 110 256 110 256 164 c 0,3,4
 256 268 256 268 324.5 355.5 c 128,-1,5
 393 443 393 443 479 443 c 0,6,7
 570 443 570 443 627 397 c 1,8,9
 560 230 560 230 560 170 c 0,10,11
 560 133 560 133 583 133 c 0,12,13
 620 133 620 133 654.5 200 c 128,-1,14
 689 267 689 267 689 356 c 0,15,16
 689 518 689 518 514 518 c 0,17,18
 425 518 425 518 347 459 c 128,-1,19
 269 400 269 400 226.5 314.5 c 128,-1,20
 184 229 184 229 184 146 c 0,21,22
 184 67 184 67 232 17.5 c 128,-1,23
 280 -32 280 -32 376 -32 c 0,24,25
 486 -32 486 -32 520 41 c 1,26,27
 574 24 574 24 574 -10 c 0,28,29
 574 -54 574 -54 508.5 -81.5 c 128,-1,30
 443 -109 443 -109 356 -109 c 0,31,32
 221 -109 221 -109 153 -41.5 c 128,-1,33
 85 26 85 26 85 132 c 0,34,35
 85 210 85 210 120 291.5 c 128,-1,36
 155 373 155 373 215 439 c 128,-1,37
 275 505 275 505 363 547.5 c 128,-1,38
 451 590 451 590 548 590 c 0,39,40
 664 590 664 590 730 530.5 c 128,-1,41
 796 471 796 471 796 376 c 0,42,43
 796 300 796 300 755.5 227 c 128,-1,44
 715 154 715 154 659 111.5 c 128,-1,45
 603 69 603 69 556 69 c 0,46,47
 527 69 527 69 508.5 88.5 c 128,-1,48
 490 108 490 108 486 146 c 1,49,50
 460 103 460 103 422.5 78.5 c 128,-1,51
 385 54 385 54 349 54 c 0,0,1
464 194 m 1,52,53
 472 220 472 220 489.5 283 c 128,-1,54
 507 346 507 346 508 350 c 1,55,56
 486 375 486 375 460 375 c 0,57,58
 421 375 421 375 391.5 319.5 c 128,-1,59
 362 264 362 264 362 193 c 0,60,61
 362 130 362 130 392 130 c 0,62,63
 435 130 435 130 464 194 c 1,52,53
EndSplineSet
EndChar

StartChar: A
Encoding: 65 65 36
Width: 541
GlyphClass: 2
Flags: W
LayerCount: 2
Fore
SplineSet
353 275 m 1,0,1
 322 406 322 406 308 514 c 1,2,3
 253 374 253 374 205 276 c 1,4,5
 259 274 259 274 294 274 c 0,6,7
 334 274 334 274 353 275 c 1,0,1
269 199 m 0,8,9
 246 199 246 199 170 201 c 1,10,11
 86 14 86 14 77 -13 c 1,12,13
 29 -9 29 -9 9.5 0.5 c 128,-1,14
 -10 10 -10 10 -10 29 c 0,15,16
 -10 45 -10 45 9.5 85.5 c 128,-1,17
 29 126 29 126 72 210.5 c 128,-1,18
 115 295 115 295 150 374 c 0,19,20
 157 390 157 390 183.5 446 c 128,-1,21
 210 502 210 502 230.5 550 c 128,-1,22
 251 598 251 598 271 656 c 1,23,24
 300 663 300 663 329 663 c 0,25,26
 356 663 356 663 369.5 652 c 128,-1,27
 383 641 383 641 389 610 c 0,28,29
 390 607 390 607 413.5 479.5 c 128,-1,30
 437 352 437 352 454 280 c 0,31,32
 498 87 498 87 525 10 c 1,33,34
 487 -10 487 -10 454 -10 c 0,35,36
 414 -10 414 -10 406 27 c 0,37,38
 375 173 375 173 370 201 c 1,39,40
 288 199 288 199 269 199 c 0,8,9
EndSplineSet
EndChar

StartChar: B
Encoding: 66 66 37
Width: 525
GlyphClass: 2
Flags: W
LayerCount: 2
Fore
SplineSet
279 596 m 0,0,1
 262 596 262 596 232 592 c 1,2,3
 216 436 216 436 210 391 c 1,4,5
 232 389 232 389 245 389 c 0,6,7
 385 389 385 389 385 509 c 0,8,9
 385 596 385 596 279 596 c 0,0,1
245 59 m 0,10,11
 296 59 296 59 332 100.5 c 128,-1,12
 368 142 368 142 368 210 c 0,13,14
 368 265 368 265 338.5 294 c 128,-1,15
 309 323 309 323 265 323 c 0,16,17
 220 323 220 323 200 318 c 1,18,19
 187 224 187 224 160 95 c 1,20,21
 172 81 172 81 197 70 c 128,-1,22
 222 59 222 59 245 59 c 0,10,11
48 56 m 1,23,24
 76 167 76 167 104 387 c 0,25,26
 128 572 128 572 128 660 c 1,27,28
 202 673 202 673 284 673 c 0,29,30
 345 673 345 673 391 661 c 128,-1,31
 437 649 437 649 468.5 615.5 c 128,-1,32
 500 582 500 582 500 530 c 0,33,34
 500 407 500 407 393 362 c 1,35,36
 443 338 443 338 463 307.5 c 128,-1,37
 483 277 483 277 483 227 c 0,38,39
 483 120 483 120 415 55 c 128,-1,40
 347 -10 347 -10 251 -10 c 0,41,42
 111 -10 111 -10 48 56 c 1,23,24
EndSplineSet
EndChar

StartChar: C
Encoding: 67 67 38
Width: 535
GlyphClass: 2
Flags: W
LayerCount: 2
Fore
SplineSet
423 150 m 1,0,1
 488 126 488 126 488 87 c 0,2,3
 488 49 488 49 429.5 19.5 c 128,-1,4
 371 -10 371 -10 291 -10 c 0,5,6
 177 -10 177 -10 111.5 64.5 c 128,-1,7
 46 139 46 139 46 264 c 0,8,9
 46 445 46 445 142 559 c 128,-1,10
 238 673 238 673 390 673 c 0,11,12
 459 673 459 673 504.5 644.5 c 128,-1,13
 550 616 550 616 550 574 c 0,14,15
 550 543 550 543 526 523 c 128,-1,16
 502 503 502 503 464 498 c 1,17,18
 455 547 455 547 425 571.5 c 128,-1,19
 395 596 395 596 358 596 c 0,20,21
 272 596 272 596 217 503.5 c 128,-1,22
 162 411 162 411 162 290 c 0,23,24
 162 191 162 191 197.5 129 c 128,-1,25
 233 67 233 67 301 67 c 0,26,27
 376 67 376 67 423 150 c 1,0,1
EndSplineSet
EndChar

StartChar: D
Encoding: 68 68 39
Width: 598
GlyphClass: 2
Flags: W
LayerCount: 2
Fore
SplineSet
48 53 m 1,0,1
 77 186 77 186 101 359 c 128,-1,2
 125 532 125 532 128 661 c 1,3,4
 185 673 185 673 277 673 c 0,5,6
 580 673 580 673 580 404 c 0,7,8
 580 296 580 296 541.5 203.5 c 128,-1,9
 503 111 503 111 423.5 50.5 c 128,-1,10
 344 -10 344 -10 239 -10 c 0,11,12
 111 -10 111 -10 48 53 c 1,0,1
234 592 m 1,13,14
 213 339 213 339 164 103 c 1,15,16
 200 67 200 67 261 67 c 0,17,18
 316 67 316 67 357 97.5 c 128,-1,19
 398 128 398 128 420 177 c 128,-1,20
 442 226 442 226 452.5 277 c 128,-1,21
 463 328 463 328 463 379 c 0,22,23
 463 487 463 487 416.5 541.5 c 128,-1,24
 370 596 370 596 284 596 c 0,25,26
 266 596 266 596 234 592 c 1,13,14
EndSplineSet
EndChar

StartChar: E
Encoding: 69 69 40
Width: 470
GlyphClass: 2
Flags: W
LayerCount: 2
Fore
SplineSet
463 564 m 1,0,1
 421 585 421 585 315 585 c 0,2,3
 279 585 279 585 231 582 c 1,4,5
 229 534 229 534 209 394 c 1,6,7
 338 394 338 394 368 398 c 1,8,9
 370 384 370 384 370 370 c 0,10,11
 370 319 370 319 328 316 c 0,12,13
 306 315 306 315 198 315 c 1,14,15
 172 103 172 103 172 77 c 1,16,17
 198 75 198 75 237 75 c 0,18,19
 287 75 287 75 338 82 c 128,-1,20
 389 89 389 89 405 99 c 1,21,22
 418 63 418 63 418 40 c 0,23,24
 418 11 418 11 384.5 4 c 128,-1,25
 351 -3 351 -3 257 -3 c 0,26,27
 123 -3 123 -3 95 -1 c 0,28,29
 74 0 74 0 65.5 8.5 c 128,-1,30
 57 17 57 17 57 34 c 0,31,32
 57 62 57 62 90.5 306 c 128,-1,33
 124 550 124 550 124 631 c 0,34,35
 124 649 124 649 123 656 c 1,36,37
 226 665 226 665 328 665 c 0,38,39
 464 665 464 665 480 650 c 1,40,41
 485 639 485 639 485 622 c 0,42,43
 485 592 485 592 463 564 c 1,0,1
EndSplineSet
EndChar

StartChar: F
Encoding: 70 70 41
Width: 448
GlyphClass: 2
Flags: W
LayerCount: 2
Fore
SplineSet
231 582 m 1,0,1
 229 534 229 534 209 394 c 1,2,3
 338 394 338 394 368 398 c 1,4,5
 370 384 370 384 370 370 c 0,6,7
 370 319 370 319 328 316 c 0,8,9
 306 315 306 315 198 315 c 1,10,11
 195 289 195 289 189 242.5 c 128,-1,12
 183 196 183 196 180 173 c 128,-1,13
 177 150 177 150 174.5 119.5 c 128,-1,14
 172 89 172 89 172 66 c 0,15,16
 172 32 172 32 176 5 c 1,17,18
 141 -3 141 -3 116 -3 c 0,19,20
 57 -3 57 -3 57 49 c 0,21,22
 57 57 57 57 90.5 305 c 128,-1,23
 124 553 124 553 124 631 c 0,24,25
 124 649 124 649 123 656 c 1,26,27
 226 665 226 665 333 665 c 0,28,29
 469 665 469 665 485 650 c 1,30,31
 490 635 490 635 490 622 c 0,32,33
 490 591 490 591 468 564 c 1,34,35
 426 585 426 585 320 585 c 0,36,37
 279 585 279 585 231 582 c 1,0,1
EndSplineSet
EndChar

StartChar: G
Encoding: 71 71 42
Width: 566
GlyphClass: 2
Flags: W
LayerCount: 2
Fore
SplineSet
416 317 m 1,0,1
 441 320 441 320 467 320 c 0,2,3
 527 320 527 320 527 273 c 0,4,5
 527 267 527 267 522 241 c 128,-1,6
 517 215 517 215 509.5 170.5 c 128,-1,7
 502 126 502 126 497 85 c 1,8,9
 489 44 489 44 430.5 17 c 128,-1,10
 372 -10 372 -10 291 -10 c 0,11,12
 177 -10 177 -10 111.5 64.5 c 128,-1,13
 46 139 46 139 46 264 c 0,14,15
 46 445 46 445 142 559 c 128,-1,16
 238 673 238 673 390 673 c 0,17,18
 459 673 459 673 504.5 644.5 c 128,-1,19
 550 616 550 616 550 574 c 0,20,21
 550 543 550 543 526 523.5 c 128,-1,22
 502 504 502 504 464 499 c 1,23,24
 455 547 455 547 425 571.5 c 128,-1,25
 395 596 395 596 358 596 c 0,26,27
 272 596 272 596 217 503.5 c 128,-1,28
 162 411 162 411 162 290 c 0,29,30
 162 191 162 191 197 129 c 128,-1,31
 232 67 232 67 300 67 c 0,32,33
 356 67 356 67 396 107 c 1,34,35
 410 230 410 230 416 317 c 1,0,1
EndSplineSet
EndChar

StartChar: H
Encoding: 72 72 43
Width: 613
GlyphClass: 2
Flags: W
LayerCount: 2
Fore
SplineSet
484 663 m 1,0,1
 512 666 512 666 537 666 c 0,2,3
 597 666 597 666 597 623 c 0,4,5
 597 618 597 618 592.5 593 c 128,-1,6
 588 568 588 568 579.5 515 c 128,-1,7
 571 462 571 462 564 404 c 2,8,-1
 538 203 l 2,9,10
 526 115 526 115 526 66 c 0,11,12
 526 32 526 32 530 5 c 1,13,14
 495 -3 495 -3 470 -3 c 0,15,16
 411 -3 411 -3 411 49 c 0,17,18
 411 55 411 55 414.5 80.5 c 128,-1,19
 418 106 418 106 427.5 175.5 c 128,-1,20
 437 245 437 245 447 323 c 1,21,22
 409 321 409 321 338 321 c 0,23,24
 271 321 271 321 199 323 c 1,25,-1
 184 203 l 2,26,27
 172 115 172 115 172 66 c 0,28,29
 172 32 172 32 176 5 c 1,30,31
 141 -3 141 -3 116 -3 c 0,32,33
 57 -3 57 -3 57 49 c 0,34,35
 57 56 57 56 61.5 90 c 128,-1,36
 66 124 66 124 79.5 220.5 c 128,-1,37
 93 317 93 317 107 431 c 0,38,39
 126 581 126 581 130 663 c 1,40,41
 159 666 159 666 183 666 c 0,42,43
 243 666 243 666 243 623 c 0,44,45
 243 618 243 618 238.5 592.5 c 128,-1,46
 234 567 234 567 225.5 512.5 c 128,-1,47
 217 458 217 458 209 398 c 1,48,49
 309 396 309 396 345 396 c 0,50,51
 389 396 389 396 457 398 c 1,52,53
 481 583 481 583 484 663 c 1,0,1
EndSplineSet
EndChar

StartChar: I
Encoding: 73 73 44
Width: 259
GlyphClass: 2
Flags: W
LayerCount: 2
Fore
SplineSet
130 663 m 1,0,1
 159 666 159 666 183 666 c 0,2,3
 243 666 243 666 243 623 c 0,4,5
 243 618 243 618 238.5 593 c 128,-1,6
 234 568 234 568 225.5 515 c 128,-1,7
 217 462 217 462 210 404 c 2,8,-1
 184 203 l 2,9,10
 172 115 172 115 172 66 c 0,11,12
 172 32 172 32 176 5 c 1,13,14
 141 -3 141 -3 116 -3 c 0,15,16
 57 -3 57 -3 57 49 c 0,17,18
 57 56 57 56 61.5 90 c 128,-1,19
 66 124 66 124 79.5 220.5 c 128,-1,20
 93 317 93 317 107 431 c 0,21,22
 126 581 126 581 130 663 c 1,0,1
EndSplineSet
EndChar

StartChar: J
Encoding: 74 74 45
Width: 327
GlyphClass: 2
Flags: W
LayerCount: 2
Fore
SplineSet
39 -119 m 0,0,1
 0 -119 0 -119 0 -72 c 0,2,3
 0 -52 0 -52 3 -40 c 1,4,5
 33 -37 33 -37 54 -27.5 c 128,-1,6
 75 -18 75 -18 88 -5.5 c 128,-1,7
 101 7 101 7 109.5 33 c 128,-1,8
 118 59 118 59 122.5 81.5 c 128,-1,9
 127 104 127 104 133 148 c 2,10,-1
 173 436 l 2,11,12
 192 571 192 571 198 663 c 1,13,14
 225 666 225 666 250 666 c 0,15,16
 311 666 311 666 311 625 c 0,17,18
 311 615 311 615 305.5 587.5 c 128,-1,19
 300 560 300 560 291 512.5 c 128,-1,20
 282 465 282 465 276 421 c 2,21,-1
 233 114 l 2,22,23
 224 47 224 47 197 -3 c 128,-1,24
 170 -53 170 -53 138 -76 c 128,-1,25
 106 -99 106 -99 81 -109 c 128,-1,26
 56 -119 56 -119 39 -119 c 0,0,1
EndSplineSet
EndChar

StartChar: K
Encoding: 75 75 46
Width: 527
GlyphClass: 2
Flags: W
LayerCount: 2
Fore
SplineSet
130 663 m 1,0,1
 159 666 159 666 183 666 c 0,2,3
 243 666 243 666 243 623 c 0,4,5
 243 618 243 618 239 593 c 128,-1,6
 235 568 235 568 226.5 514.5 c 128,-1,7
 218 461 218 461 210 402 c 1,8,9
 324 493 324 493 371 553 c 128,-1,10
 418 613 418 613 436 668 c 1,11,12
 518 667 518 667 518 616 c 0,13,14
 518 585 518 585 453 513 c 128,-1,15
 388 441 388 441 298 363 c 1,16,17
 401 134 401 134 452 84 c 1,18,19
 467 71 467 71 496 71 c 0,20,21
 517 71 517 71 523 74 c 1,22,23
 527 58 527 58 527 42 c 0,24,25
 527 15 527 15 505.5 2.5 c 128,-1,26
 484 -10 484 -10 456 -10 c 0,27,28
 403 -10 403 -10 360 47 c 0,29,30
 333 83 333 83 290 159.5 c 128,-1,31
 247 236 247 236 218 298 c 1,32,-1
 194 278 l 1,33,-1
 184 203 l 2,34,35
 172 115 172 115 172 66 c 0,36,37
 172 32 172 32 176 5 c 1,38,39
 141 -3 141 -3 116 -3 c 0,40,41
 57 -3 57 -3 57 49 c 0,42,43
 57 56 57 56 61.5 90 c 128,-1,44
 66 124 66 124 79.5 220.5 c 128,-1,45
 93 317 93 317 107 431 c 0,46,47
 126 581 126 581 130 663 c 1,0,1
EndSplineSet
EndChar

StartChar: L
Encoding: 76 76 47
Width: 403
GlyphClass: 2
Flags: W
LayerCount: 2
Fore
SplineSet
390 99 m 1,0,1
 403 63 403 63 403 40 c 0,2,3
 403 11 403 11 369.5 4 c 128,-1,4
 336 -3 336 -3 242 -3 c 0,5,6
 123 -3 123 -3 95 -1 c 0,7,8
 74 0 74 0 65.5 8.5 c 128,-1,9
 57 17 57 17 57 34 c 0,10,11
 57 68 57 68 93.5 331.5 c 128,-1,12
 130 595 130 595 130 663 c 1,13,14
 152 666 152 666 187 666 c 0,15,16
 245 666 245 666 245 633 c 0,17,18
 245 620 245 620 229 521 c 128,-1,19
 213 422 213 422 194.5 291 c 128,-1,20
 176 160 176 160 172 77 c 1,21,22
 198 75 198 75 222 75 c 0,23,24
 272 75 272 75 323 82 c 128,-1,25
 374 89 374 89 390 99 c 1,0,1
EndSplineSet
EndChar

StartChar: M
Encoding: 77 77 48
Width: 776
GlyphClass: 2
Flags: W
LayerCount: 2
Fore
SplineSet
713 436 m 2,0,-1
 680 203 l 2,1,2
 666 111 666 111 666 59 c 0,3,4
 666 39 666 39 670 5 c 1,5,6
 646 -3 646 -3 604 -3 c 0,7,8
 549 -3 549 -3 549 35 c 0,9,10
 549 39 549 39 558 98 c 128,-1,11
 567 157 567 157 582.5 264.5 c 128,-1,12
 598 372 598 372 611 469 c 1,13,14
 510 270 510 270 402 2 c 1,15,16
 388 -2 388 -2 360 -2 c 0,17,18
 309 -2 309 -2 302 24 c 0,19,20
 284 86 284 86 255.5 244 c 128,-1,21
 227 402 227 402 209 477 c 1,22,23
 158 122 158 122 158 59 c 0,24,25
 158 39 158 39 162 5 c 1,26,27
 138 -3 138 -3 99 -3 c 0,28,29
 75 -3 75 -3 66 5.5 c 128,-1,30
 57 14 57 14 57 32 c 0,31,32
 57 40 57 40 85 231 c 2,33,-1
 121 483 l 2,34,35
 131 555 131 555 131 610 c 0,36,37
 131 636 131 636 128 659 c 1,38,39
 165 667 165 667 199 667 c 0,40,41
 254 667 254 667 272 619 c 0,42,43
 285 584 285 584 297.5 544 c 128,-1,44
 310 504 310 504 317 478.5 c 128,-1,45
 324 453 324 453 335 399 c 128,-1,46
 346 345 346 345 349 331 c 128,-1,47
 352 317 352 317 364 250 c 128,-1,48
 376 183 376 183 377 177 c 1,49,50
 470 415 470 415 603 619 c 0,51,52
 635 667 635 667 698 667 c 0,53,54
 738 667 738 667 760 659 c 1,55,56
 736 599 736 599 713 436 c 2,0,-1
EndSplineSet
EndChar

StartChar: N
Encoding: 78 78 49
Width: 596
GlyphClass: 2
Flags: W
LayerCount: 2
Fore
SplineSet
500 1 m 1,0,1
 480 -3 480 -3 455 -3 c 0,2,3
 405 -3 405 -3 394 24 c 0,4,5
 360 102 360 102 295 267.5 c 128,-1,6
 230 433 230 433 208 488 c 1,7,8
 203 452 203 452 192 368 c 128,-1,9
 181 284 181 284 175.5 238 c 128,-1,10
 170 192 170 192 164.5 138.5 c 128,-1,11
 159 85 159 85 159 59 c 0,12,13
 159 39 159 39 163 5 c 1,14,15
 139 -3 139 -3 113 -3 c 0,16,17
 81 -3 81 -3 69 6 c 128,-1,18
 57 15 57 15 57 35 c 0,19,20
 57 44 57 44 61.5 76 c 128,-1,21
 66 108 66 108 72.5 155 c 128,-1,22
 79 202 79 202 83 231 c 0,23,24
 90 286 90 286 99 355 c 128,-1,25
 108 424 108 424 112.5 459 c 128,-1,26
 117 494 117 494 120.5 533.5 c 128,-1,27
 124 573 124 573 124 604 c 0,28,29
 124 636 124 636 120 659 c 1,30,31
 145 667 145 667 180 667 c 0,32,33
 222 667 222 667 242 638 c 0,34,35
 277 586 277 586 331.5 462 c 128,-1,36
 386 338 386 338 431 211 c 1,37,-1
 457 431 l 2,38,39
 476 590 476 590 480 663 c 1,40,41
 501 666 501 666 523 666 c 0,42,43
 580 666 580 666 580 632 c 0,44,45
 580 625 580 625 574 592.5 c 128,-1,46
 568 560 568 560 559.5 505.5 c 128,-1,47
 551 451 551 451 545 404 c 0,48,49
 539 355 539 355 527 262.5 c 128,-1,50
 515 170 515 170 509 111.5 c 128,-1,51
 503 53 503 53 500 1 c 1,0,1
EndSplineSet
EndChar

StartChar: O
Encoding: 79 79 50
Width: 645
GlyphClass: 2
Flags: W
LayerCount: 2
Fore
SplineSet
290 -10 m 0,0,1
 175 -10 175 -10 110.5 63.5 c 128,-1,2
 46 137 46 137 46 263 c 0,3,4
 46 438 46 438 139 556 c 128,-1,5
 232 674 232 674 379 674 c 0,6,7
 496 674 496 674 561.5 601.5 c 128,-1,8
 627 529 627 529 627 402 c 0,9,10
 627 230 627 230 534 110 c 128,-1,11
 441 -10 441 -10 290 -10 c 0,0,1
365 596 m 0,12,13
 272 596 272 596 217 507.5 c 128,-1,14
 162 419 162 419 162 290 c 0,15,16
 162 245 162 245 170 206 c 128,-1,17
 178 167 178 167 194 135 c 128,-1,18
 210 103 210 103 238.5 84.5 c 128,-1,19
 267 66 267 66 305 66 c 0,20,21
 370 66 370 66 417.5 111.5 c 128,-1,22
 465 157 465 157 487 226.5 c 128,-1,23
 509 296 509 296 509 378 c 0,24,25
 509 472 509 472 474 534 c 128,-1,26
 439 596 439 596 365 596 c 0,12,13
EndSplineSet
EndChar

StartChar: P
Encoding: 80 80 51
Width: 514
GlyphClass: 2
Flags: W
LayerCount: 2
Fore
SplineSet
267 312 m 0,0,1
 327 312 327 312 358 361 c 128,-1,2
 389 410 389 410 389 487 c 0,3,4
 389 549 389 549 361.5 572.5 c 128,-1,5
 334 596 334 596 283 596 c 0,6,7
 255 596 255 596 232 592 c 1,8,9
 225 501 225 501 202 337 c 1,10,11
 232 312 232 312 267 312 c 0,0,1
83 231 m 2,12,-1
 108 431 l 1,13,14
 126 586 126 586 126 661 c 1,15,16
 196 673 196 673 273 673 c 0,17,18
 504 673 504 673 504 493 c 0,19,20
 504 374 504 374 439 304.5 c 128,-1,21
 374 235 374 235 291 235 c 0,22,23
 231 235 231 235 193 267 c 1,24,25
 173 118 173 118 173 61 c 0,26,27
 173 29 173 29 177 5 c 1,28,29
 153 -3 153 -3 113 -3 c 0,30,31
 57 -3 57 -3 57 39 c 0,32,33
 57 48 57 48 61.5 79.5 c 128,-1,34
 66 111 66 111 73 157.5 c 128,-1,35
 80 204 80 204 83 231 c 2,12,-1
EndSplineSet
EndChar

StartChar: Q
Encoding: 81 81 52
Width: 640
GlyphClass: 2
Flags: W
LayerCount: 2
Fore
SplineSet
365 596 m 0,0,1
 272 596 272 596 217 507.5 c 128,-1,2
 162 419 162 419 162 290 c 0,3,4
 162 245 162 245 170 206 c 128,-1,5
 178 167 178 167 194 135 c 128,-1,6
 210 103 210 103 238.5 84.5 c 128,-1,7
 267 66 267 66 305 66 c 0,8,9
 370 66 370 66 417.5 111.5 c 128,-1,10
 465 157 465 157 487 226.5 c 128,-1,11
 509 296 509 296 509 378 c 0,12,13
 509 472 509 472 474 534 c 128,-1,14
 439 596 439 596 365 596 c 0,0,1
660 -43 m 1,15,16
 722 -61 722 -61 722 -109 c 0,17,18
 722 -142 722 -142 694.5 -165 c 128,-1,19
 667 -188 667 -188 631 -197 c 128,-1,20
 595 -206 595 -206 558 -206 c 0,21,22
 451 -206 451 -206 362 -156 c 128,-1,23
 273 -106 273 -106 246 -7 c 1,24,25
 151 6 151 6 98.5 77.5 c 128,-1,26
 46 149 46 149 46 263 c 0,27,28
 46 438 46 438 139 556 c 128,-1,29
 232 674 232 674 379 674 c 0,30,31
 496 674 496 674 561.5 601.5 c 128,-1,32
 627 529 627 529 627 402 c 0,33,34
 627 245 627 245 549 130 c 128,-1,35
 471 15 471 15 340 -6 c 1,36,37
 359 -61 359 -61 411 -93.5 c 128,-1,38
 463 -126 463 -126 526 -126 c 0,39,40
 626 -126 626 -126 660 -43 c 1,15,16
EndSplineSet
EndChar

StartChar: R
Encoding: 82 82 53
Width: 531
GlyphClass: 2
Flags: W
LayerCount: 2
Fore
SplineSet
419 97 m 128,-1,1
 437 71 437 71 480 71 c 0,2,3
 500 71 500 71 508 74 c 1,4,5
 512 56 512 56 512 42 c 0,6,7
 512 -10 512 -10 433 -10 c 0,8,9
 365 -10 365 -10 333 47 c 0,10,11
 287 128 287 128 236 271 c 1,12,13
 219 277 219 277 219 294 c 0,14,15
 219 314 219 314 236 334 c 1,16,17
 244 330 244 330 258 330 c 0,18,19
 293 330 293 330 324 347 c 0,20,21
 389 384 389 384 389 489 c 0,22,23
 389 553 389 553 364.5 574.5 c 128,-1,24
 340 596 340 596 286 596 c 0,25,26
 253 596 253 596 232 592 c 1,27,28
 227 504 227 504 215 418 c 2,29,-1
 185 198 l 2,30,31
 173 110 173 110 173 60 c 0,32,33
 173 29 173 29 177 5 c 1,34,35
 153 -3 153 -3 113 -3 c 0,36,37
 57 -3 57 -3 57 39 c 0,38,39
 57 49 57 49 61.5 80.5 c 128,-1,40
 66 112 66 112 73 158 c 128,-1,41
 80 204 80 204 83 231 c 2,42,-1
 108 431 l 2,43,44
 126 577 126 577 126 661 c 1,45,46
 196 673 196 673 274 673 c 0,47,48
 373 673 373 673 438.5 633 c 128,-1,49
 504 593 504 593 504 500 c 0,50,51
 504 413 504 413 457 351 c 128,-1,52
 410 289 410 289 336 272 c 1,53,54
 351 229 351 229 376 176 c 128,-1,0
 401 123 401 123 419 97 c 128,-1,1
EndSplineSet
EndChar

StartChar: S
Encoding: 83 83 54
Width: 479
GlyphClass: 2
Flags: W
LayerCount: 2
Fore
SplineSet
404 523 m 1,0,1
 395 551 395 551 366 571 c 128,-1,2
 337 591 337 591 304 591 c 0,3,4
 257 591 257 591 223.5 561 c 128,-1,5
 190 531 190 531 190 476 c 0,6,7
 190 441 190 441 213 422 c 128,-1,8
 236 403 236 403 280 387 c 0,9,10
 286 385 286 385 311.5 376 c 128,-1,11
 337 367 337 367 346 363 c 128,-1,12
 355 359 355 359 375.5 348.5 c 128,-1,13
 396 338 396 338 404.5 328.5 c 128,-1,14
 413 319 413 319 424.5 304 c 128,-1,15
 436 289 436 289 440.5 270 c 128,-1,16
 445 251 445 251 445 227 c 0,17,18
 445 115 445 115 378.5 52.5 c 128,-1,19
 312 -10 312 -10 201 -10 c 0,20,21
 131 -10 131 -10 77.5 15.5 c 128,-1,22
 24 41 24 41 24 76 c 0,23,24
 24 123 24 123 88 147 c 1,25,26
 99 114 99 114 135.5 91 c 128,-1,27
 172 68 172 68 210 68 c 0,28,29
 262 68 262 68 301 101.5 c 128,-1,30
 340 135 340 135 340 195 c 0,31,32
 340 232 340 232 316 250 c 128,-1,33
 292 268 292 268 246 282 c 0,34,35
 214 291 214 291 199.5 296 c 128,-1,36
 185 301 185 301 158 315.5 c 128,-1,37
 131 330 131 330 118.5 345.5 c 128,-1,38
 106 361 106 361 95 389 c 128,-1,39
 84 417 84 417 84 453 c 0,40,41
 84 555 84 555 151.5 613 c 128,-1,42
 219 671 219 671 321 671 c 0,43,44
 379 671 379 671 429 649 c 128,-1,45
 479 627 479 627 479 588 c 0,46,47
 479 564 479 564 460.5 545.5 c 128,-1,48
 442 527 442 527 404 523 c 1,0,1
EndSplineSet
EndChar

StartChar: T
Encoding: 84 84 55
Width: 423
GlyphClass: 2
Flags: W
LayerCount: 2
Fore
SplineSet
438 590 m 0,0,1
 412 589 412 589 317 589 c 1,2,3
 300 492 300 492 289 404 c 2,4,-1
 263 203 l 2,5,6
 251 115 251 115 251 66 c 0,7,8
 251 32 251 32 255 5 c 1,9,10
 231 -3 231 -3 193 -3 c 0,11,12
 135 -3 135 -3 135 39 c 0,13,14
 135 46 135 46 140 82.5 c 128,-1,15
 145 119 145 119 158.5 218.5 c 128,-1,16
 172 318 172 318 186 431 c 0,17,18
 198 526 198 526 203 589 c 1,19,20
 100 589 100 589 44 585 c 1,21,22
 43 592 43 592 43 603 c 0,23,24
 43 633 43 633 54 646 c 128,-1,25
 65 659 65 659 91 660 c 0,26,27
 116 661 116 661 195 661 c 2,28,-1
 301 661 l 2,29,30
 450 661 450 661 484 664 c 1,31,32
 486 652 486 652 486 640 c 0,33,34
 486 615 486 615 475 603.5 c 128,-1,35
 464 592 464 592 438 590 c 0,0,1
EndSplineSet
EndChar

StartChar: U
Encoding: 85 85 56
Width: 609
GlyphClass: 2
Flags: W
LayerCount: 2
Fore
SplineSet
438 290 m 1,0,1
 476 573 476 573 480 663 c 1,2,3
 508 666 508 666 533 666 c 0,4,5
 563 666 563 666 578 657 c 128,-1,6
 593 648 593 648 593 623 c 0,7,8
 593 620 593 620 586 579.5 c 128,-1,9
 579 539 579 539 564 436 c 128,-1,10
 549 333 549 333 534 203 c 0,11,12
 522 93 522 93 522 61 c 128,-1,13
 522 29 522 29 526 5 c 1,14,15
 488 -3 488 -3 463 -3 c 0,16,17
 407 -3 407 -3 407 49 c 0,18,19
 407 55 407 55 418 132 c 1,20,21
 377 64 377 64 321 27 c 128,-1,22
 265 -10 265 -10 211 -10 c 0,23,24
 146 -10 146 -10 110.5 38.5 c 128,-1,25
 75 87 75 87 75 157 c 0,26,27
 75 182 75 182 100 371.5 c 128,-1,28
 125 561 125 561 130 663 c 1,29,30
 157 666 157 666 181 666 c 0,31,32
 243 666 243 666 243 624 c 0,33,34
 243 621 243 621 239 597 c 128,-1,35
 235 573 235 573 227 525 c 128,-1,36
 219 477 219 477 212 429 c 0,37,38
 182 215 182 215 182 180 c 0,39,40
 182 137 182 137 198 107.5 c 128,-1,41
 214 78 214 78 248 78 c 0,42,43
 296 78 296 78 352.5 138.5 c 128,-1,44
 409 199 409 199 438 290 c 1,0,1
EndSplineSet
EndChar

StartChar: V
Encoding: 86 86 57
Width: 566
GlyphClass: 2
Flags: W
LayerCount: 2
Fore
SplineSet
109 521 m 0,0,1
 109 594 109 594 82 650 c 1,2,3
 127 674 127 674 161 674 c 0,4,5
 225 674 225 674 225 579 c 0,6,7
 225 528 225 528 202.5 391.5 c 128,-1,8
 180 255 180 255 180 191 c 0,9,10
 180 94 180 94 211 54 c 1,11,12
 274 75 274 75 330.5 160.5 c 128,-1,13
 387 246 387 246 419 351.5 c 128,-1,14
 451 457 451 457 451 547 c 0,15,16
 451 609 451 609 434 653 c 1,17,18
 476 674 476 674 510 674 c 0,19,20
 576 674 576 674 576 594 c 0,21,22
 576 539 576 539 559.5 462.5 c 128,-1,23
 543 386 543 386 509.5 303.5 c 128,-1,24
 476 221 476 221 432.5 151 c 128,-1,25
 389 81 389 81 328.5 35.5 c 128,-1,26
 268 -10 268 -10 204 -10 c 0,27,28
 169 -10 169 -10 138 1 c 1,29,30
 76 67 76 67 76 191 c 0,31,32
 76 255 76 255 92.5 347 c 128,-1,33
 109 439 109 439 109 521 c 0,0,1
EndSplineSet
EndChar

StartChar: W
Encoding: 87 87 58
Width: 881
GlyphClass: 2
Flags: W
LayerCount: 2
Fore
SplineSet
109 521 m 0,0,1
 109 594 109 594 82 650 c 1,2,3
 127 674 127 674 161 674 c 0,4,5
 225 674 225 674 225 579 c 0,6,7
 225 528 225 528 202.5 391.5 c 128,-1,8
 180 255 180 255 180 191 c 0,9,10
 180 94 180 94 211 54 c 1,11,12
 271 75 271 75 325.5 160.5 c 128,-1,13
 380 246 380 246 410.5 351.5 c 128,-1,14
 441 457 441 457 441 547 c 0,15,16
 441 609 441 609 424 653 c 1,17,18
 466 674 466 674 500 674 c 0,19,20
 566 674 566 674 566 594 c 0,21,22
 566 472 566 472 502 307 c 1,23,24
 499 268 499 268 499 230 c 0,25,26
 499 99 499 99 536 54 c 1,27,28
 596 75 596 75 650.5 160.5 c 128,-1,29
 705 246 705 246 735.5 351.5 c 128,-1,30
 766 457 766 457 766 547 c 0,31,32
 766 609 766 609 749 653 c 1,33,34
 791 674 791 674 825 674 c 0,35,36
 891 674 891 674 891 594 c 0,37,38
 891 539 891 539 874.5 462.5 c 128,-1,39
 858 386 858 386 825.5 303.5 c 128,-1,40
 793 221 793 221 750.5 151 c 128,-1,41
 708 81 708 81 648.5 35.5 c 128,-1,42
 589 -10 589 -10 527 -10 c 0,43,44
 494 -10 494 -10 463 1 c 1,45,46
 419 47 419 47 406 124 c 1,47,48
 311 -10 311 -10 202 -10 c 0,49,50
 169 -10 169 -10 138 1 c 1,51,52
 76 67 76 67 76 191 c 0,53,54
 76 255 76 255 92.5 347 c 128,-1,55
 109 439 109 439 109 521 c 0,0,1
EndSplineSet
EndChar

StartChar: X
Encoding: 88 88 59
Width: 533
GlyphClass: 2
Flags: W
LayerCount: 2
Fore
SplineSet
240 348 m 1,0,1
 183 478 183 478 157 521 c 128,-1,2
 131 564 131 564 81 602 c 1,3,4
 114 652 114 652 146 668 c 0,5,6
 158 674 158 674 175 674 c 0,7,8
 193 674 193 674 213 653 c 128,-1,9
 233 632 233 632 253 591.5 c 128,-1,10
 273 551 273 551 288 516.5 c 128,-1,11
 303 482 303 482 322 432 c 1,12,13
 438 623 438 623 453 674 c 1,14,15
 548 653 548 653 548 606 c 0,16,17
 548 557 548 557 354 348 c 1,18,19
 357 340 357 340 374 298.5 c 128,-1,20
 391 257 391 257 397.5 242 c 128,-1,21
 404 227 404 227 421 192.5 c 128,-1,22
 438 158 438 158 451 140 c 128,-1,23
 464 122 464 122 484 99.5 c 128,-1,24
 504 77 504 77 525 62 c 1,25,26
 492 12 492 12 460 -4 c 0,27,28
 448 -10 448 -10 431 -10 c 0,29,30
 421 -10 421 -10 411.5 -5 c 128,-1,31
 402 0 402 0 392 12 c 128,-1,32
 382 24 382 24 373.5 36 c 128,-1,33
 365 48 365 48 355 68 c 128,-1,34
 345 88 345 88 337.5 103.5 c 128,-1,35
 330 119 330 119 319.5 144.5 c 128,-1,36
 309 170 309 170 303 185.5 c 128,-1,37
 297 201 297 201 286.5 228 c 128,-1,38
 276 255 276 255 271 268 c 1,39,40
 124 64 124 64 99 -10 c 1,41,42
 6 10 6 10 6 54 c 0,43,44
 6 71 6 71 21.5 98 c 128,-1,45
 37 125 37 125 69 162.5 c 128,-1,46
 101 200 101 200 124 225.5 c 128,-1,47
 147 251 147 251 189 295 c 128,-1,48
 231 339 231 339 240 348 c 1,0,1
EndSplineSet
EndChar

StartChar: Y
Encoding: 89 89 60
Width: 468
GlyphClass: 2
Flags: W
LayerCount: 2
Fore
SplineSet
521 620 m 0,0,1
 521 587 521 587 341 356 c 0,2,3
 317 325 317 325 305 309 c 1,4,-1
 291 203 l 2,5,6
 279 115 279 115 279 66 c 0,7,8
 279 32 279 32 283 5 c 1,9,10
 248 -3 248 -3 223 -3 c 0,11,12
 164 -3 164 -3 164 49 c 0,13,14
 164 55 164 55 167 78.5 c 128,-1,15
 170 102 170 102 179.5 171.5 c 128,-1,16
 189 241 189 241 199 313 c 1,17,18
 106 569 106 569 47 619 c 1,19,20
 93 667 93 667 128 667 c 0,21,22
 164 667 164 667 181 633 c 0,23,24
 237 518 237 518 275 395 c 1,25,26
 413 614 413 614 424 672 c 1,27,28
 521 672 521 672 521 620 c 0,0,1
EndSplineSet
EndChar

StartChar: Z
Encoding: 90 90 61
Width: 529
GlyphClass: 2
Flags: W
LayerCount: 2
Fore
SplineSet
142 667 m 0,0,1
 172 667 172 667 277 653.5 c 128,-1,2
 382 640 382 640 433 640 c 0,3,4
 479 640 479 640 504 653 c 1,5,6
 527 630 527 630 527 595 c 0,7,8
 527 554 527 554 508 531 c 2,9,-1
 236 206 l 2,10,11
 182 140 182 140 154 99 c 1,12,13
 191 99 191 99 275 86.5 c 128,-1,14
 359 74 359 74 395 74 c 0,15,16
 455 74 455 74 487 90 c 1,17,18
 498 67 498 67 498 51 c 0,19,20
 498 -10 498 -10 395 -10 c 0,21,22
 367 -10 367 -10 281 2.5 c 128,-1,23
 195 15 195 15 148 15 c 0,24,25
 99 15 99 15 65 3 c 1,26,27
 38 38 38 38 38 61 c 128,-1,28
 38 84 38 84 56 119 c 0,29,30
 115 228 115 228 402 560 c 1,31,32
 374 562 374 562 294.5 573 c 128,-1,33
 215 584 215 584 170 584 c 0,34,35
 124 584 124 584 84 565 c 1,36,37
 72 590 72 590 72 610 c 0,38,39
 72 667 72 667 142 667 c 0,0,1
EndSplineSet
EndChar

StartChar: bracketleft
Encoding: 91 91 62
Width: 402
GlyphClass: 2
Flags: W
LayerCount: 2
Fore
SplineSet
295 650 m 1,0,-1
 186 -121 l 1,1,2
 216 -120 216 -120 248 -120 c 0,3,4
 303 -120 303 -120 303 -153 c 0,5,6
 303 -168 303 -168 292 -190 c 1,7,-1
 81 -190 l 1,8,-1
 208 720 l 1,9,-1
 420 720 l 1,10,11
 423 708 423 708 423 697 c 0,12,13
 423 649 423 649 360 649 c 0,14,15
 321 649 321 649 295 650 c 1,0,-1
EndSplineSet
EndChar

StartChar: backslash
Encoding: 92 92 63
Width: 281
GlyphClass: 2
Flags: W
LayerCount: 2
Fore
SplineSet
125 117 m 0,0,1
 33 692 33 692 33 708 c 0,2,3
 33 741 33 741 84 741 c 0,4,5
 99 741 99 741 120 734 c 1,6,7
 130 626 130 626 149 505 c 0,8,9
 173 345 173 345 197 198 c 0,10,11
 241 -79 241 -79 241 -85 c 0,12,13
 241 -120 241 -120 193 -120 c 0,14,15
 180 -120 180 -120 154 -114 c 1,16,17
 144 -7 144 -7 125 117 c 0,0,1
EndSplineSet
EndChar

StartChar: bracketright
Encoding: 93 93 64
Width: 384
GlyphClass: 2
Flags: W
LayerCount: 2
Fore
SplineSet
107 -120 m 1,0,-1
 216 651 l 1,1,2
 186 650 186 650 154 650 c 0,3,4
 99 650 99 650 99 683 c 0,5,6
 99 698 99 698 110 720 c 1,7,-1
 321 720 l 1,8,-1
 194 -190 l 1,9,-1
 -18 -190 l 1,10,11
 -21 -178 -21 -178 -21 -167 c 0,12,13
 -21 -119 -21 -119 42 -119 c 0,14,15
 81 -119 81 -119 107 -120 c 1,0,-1
EndSplineSet
EndChar

StartChar: asciicircum
Encoding: 94 94 65
Width: 486
GlyphClass: 2
Flags: W
LayerCount: 2
Fore
SplineSet
423 408 m 0,0,1
 385 408 385 408 243 558 c 1,2,3
 192 504 192 504 138.5 456 c 128,-1,4
 85 408 85 408 64 408 c 128,-1,5
 43 408 43 408 20 431 c 1,6,7
 43 470 43 470 118.5 553.5 c 128,-1,8
 194 637 194 637 243 685 c 1,9,10
 290 639 290 639 366 554.5 c 128,-1,11
 442 470 442 470 466 431 c 1,12,13
 441 408 441 408 423 408 c 0,0,1
EndSplineSet
EndChar

StartChar: underscore
Encoding: 95 95 66
Width: 535
GlyphClass: 2
Flags: W
LayerCount: 2
Fore
SplineSet
535 -110 m 0,0,1
 535 -128 535 -128 525 -140 c 128,-1,2
 515 -152 515 -152 499 -152 c 0,3,4
 484 -152 484 -152 430 -148 c 128,-1,5
 376 -144 376 -144 348 -144 c 2,6,-1
 205 -144 l 2,7,8
 91 -144 91 -144 3 -152 c 1,9,10
 0 -137 0 -137 0 -122 c 0,11,12
 0 -106 0 -106 9 -93 c 128,-1,13
 18 -80 18 -80 36 -80 c 0,14,15
 39 -80 39 -80 99 -83.5 c 128,-1,16
 159 -87 159 -87 203 -87 c 2,17,-1
 345 -87 l 2,18,19
 472 -87 472 -87 532 -80 c 1,20,21
 535 -89 535 -89 535 -110 c 0,0,1
EndSplineSet
EndChar

StartChar: grave
Encoding: 96 96 67
Width: 209
GlyphClass: 2
Flags: W
LayerCount: 2
Fore
SplineSet
-28 633 m 1,0,1
 -55 650 -55 650 -55 676 c 0,2,3
 -55 712 -55 712 -14 730 c 1,4,5
 31 673 31 673 132 600 c 0,6,7
 151 587 151 587 151 566 c 0,8,9
 151 541 151 541 132 524 c 1,10,11
 119 536 119 536 58 575 c 128,-1,12
 -3 614 -3 614 -28 633 c 1,0,1
EndSplineSet
EndChar

StartChar: a
Encoding: 97 97 68
Width: 506
GlyphClass: 2
Flags: W
LayerCount: 2
Fore
SplineSet
308 94 m 1,0,1
 239 -10 239 -10 155 -10 c 0,2,3
 98 -10 98 -10 62.5 36 c 128,-1,4
 27 82 27 82 27 170 c 0,5,6
 27 299 27 299 96.5 391.5 c 128,-1,7
 166 484 166 484 267 484 c 0,8,9
 377 484 377 484 462 427 c 1,10,11
 413 203 413 203 413 116 c 0,12,13
 413 69 413 69 451 52 c 1,14,15
 447 29 447 29 428.5 9.5 c 128,-1,16
 410 -10 410 -10 378 -10 c 0,17,18
 345 -10 345 -10 326 14 c 128,-1,19
 307 38 307 38 307 75 c 0,20,21
 307 88 307 88 308 94 c 1,0,1
319 206 m 1,22,-1
 346 376 l 1,23,24
 307 418 307 418 266 418 c 0,25,26
 216 418 216 418 183 354.5 c 128,-1,27
 150 291 150 291 150 191 c 0,28,29
 150 137 150 137 166.5 101.5 c 128,-1,30
 183 66 183 66 210 66 c 0,31,32
 234 66 234 66 265 105.5 c 128,-1,33
 296 145 296 145 319 206 c 1,22,-1
EndSplineSet
EndChar

StartChar: b
Encoding: 98 98 69
Width: 496
GlyphClass: 2
Flags: W
LayerCount: 2
Fore
SplineSet
41 47 m 1,0,1
 66 154 66 154 94.5 373.5 c 128,-1,2
 123 593 123 593 123 635 c 0,3,4
 123 672 123 672 96 686 c 1,5,6
 98 715 98 715 120.5 734 c 128,-1,7
 143 753 143 753 174 753 c 0,8,9
 206 753 206 753 221 734.5 c 128,-1,10
 236 716 236 716 236 689 c 0,11,12
 236 624 236 624 201 397 c 1,13,14
 226 438 226 438 263.5 461 c 128,-1,15
 301 484 301 484 337 484 c 0,16,17
 396 484 396 484 432.5 435.5 c 128,-1,18
 469 387 469 387 469 297 c 0,19,20
 469 163 469 163 398.5 76.5 c 128,-1,21
 328 -10 328 -10 235 -10 c 0,22,23
 126 -10 126 -10 41 47 c 1,0,1
185 278 m 1,24,25
 181 248 181 248 171 184.5 c 128,-1,26
 161 121 161 121 158 100 c 1,27,28
 194 55 194 55 232 55 c 0,29,30
 280 55 280 55 313 111.5 c 128,-1,31
 346 168 346 168 346 266 c 0,32,33
 346 323 346 323 331.5 365.5 c 128,-1,34
 317 408 317 408 288 408 c 0,35,36
 264 408 264 408 235.5 372.5 c 128,-1,37
 207 337 207 337 185 278 c 1,24,25
EndSplineSet
EndChar

StartChar: c
Encoding: 99 99 70
Width: 431
GlyphClass: 2
Flags: W
LayerCount: 2
Fore
SplineSet
339 337 m 1,0,1
 318 413 318 413 266 413 c 128,-1,2
 214 413 214 413 182 348.5 c 128,-1,3
 150 284 150 284 150 195 c 0,4,5
 150 125 150 125 173 90.5 c 128,-1,6
 196 56 196 56 233 56 c 0,7,8
 293 56 293 56 332 126 c 1,9,10
 380 107 380 107 380 67 c 0,11,12
 380 36 380 36 332 13 c 128,-1,13
 284 -10 284 -10 225 -10 c 0,14,15
 134 -10 134 -10 80.5 41 c 128,-1,16
 27 92 27 92 27 180 c 0,17,18
 27 254 27 254 50 314 c 128,-1,19
 73 374 73 374 111 410 c 128,-1,20
 149 446 149 446 193 465 c 128,-1,21
 237 484 237 484 283 484 c 0,22,23
 333 484 333 484 377 463.5 c 128,-1,24
 421 443 421 443 421 403 c 0,25,26
 421 379 421 379 402 358.5 c 128,-1,27
 383 338 383 338 339 337 c 1,0,1
EndSplineSet
EndChar

StartChar: d
Encoding: 100 100 71
Width: 497
GlyphClass: 2
Flags: W
LayerCount: 2
Fore
SplineSet
349 435 m 1,0,1
 373 598 373 598 373 626 c 0,2,3
 373 664 373 664 346 676 c 1,4,5
 348 702 348 702 369.5 722.5 c 128,-1,6
 391 743 391 743 424 743 c 0,7,8
 456 743 456 743 471 724.5 c 128,-1,9
 486 706 486 706 486 679 c 0,10,11
 486 640 486 640 447 383.5 c 128,-1,12
 408 127 408 127 408 107 c 0,13,14
 408 68 408 68 445 52 c 1,15,16
 432 -10 432 -10 374 -10 c 0,17,18
 342 -10 342 -10 323 15 c 128,-1,19
 304 40 304 40 304 71 c 0,20,21
 304 84 304 84 305 94 c 1,22,23
 235 -10 235 -10 153 -10 c 0,24,25
 96 -10 96 -10 60 36.5 c 128,-1,26
 24 83 24 83 24 170 c 0,27,28
 24 294 24 294 90.5 388.5 c 128,-1,29
 157 483 157 483 244 483 c 0,30,31
 304 483 304 483 349 435 c 1,0,1
315 205 m 1,32,-1
 339 370 l 1,33,34
 311 400 311 400 296.5 409.5 c 128,-1,35
 282 419 282 419 265 419 c 0,36,37
 214 419 214 419 180.5 355.5 c 128,-1,38
 147 292 147 292 147 191 c 0,39,40
 147 136 147 136 163 101 c 128,-1,41
 179 66 179 66 206 66 c 0,42,43
 230 66 230 66 261.5 105.5 c 128,-1,44
 293 145 293 145 315 205 c 1,32,-1
EndSplineSet
EndChar

StartChar: e
Encoding: 101 101 72
Width: 448
GlyphClass: 2
Flags: W
LayerCount: 2
Fore
SplineSet
151 179 m 1,0,1
 152 117 152 117 175.5 86.5 c 128,-1,2
 199 56 199 56 233 56 c 0,3,4
 261 56 261 56 288 75 c 128,-1,5
 315 94 315 94 332 126 c 1,6,7
 380 107 380 107 380 67 c 0,8,9
 380 36 380 36 333 13 c 128,-1,10
 286 -10 286 -10 225 -10 c 0,11,12
 187 -10 187 -10 153.5 0.5 c 128,-1,13
 120 11 120 11 90.5 32.5 c 128,-1,14
 61 54 61 54 44 92.5 c 128,-1,15
 27 131 27 131 27 183 c 0,16,17
 27 256 27 256 51 315.5 c 128,-1,18
 75 375 75 375 113.5 410.5 c 128,-1,19
 152 446 152 446 196.5 465 c 128,-1,20
 241 484 241 484 285 484 c 0,21,22
 352 484 352 484 386 449.5 c 128,-1,23
 420 415 420 415 420 363 c 0,24,25
 420 313 420 313 391 266.5 c 128,-1,26
 362 220 362 220 313 200 c 0,27,28
 259 177 259 177 184 177 c 0,29,30
 169 177 169 177 151 179 c 1,0,1
296 358 m 0,31,32
 296 384 296 384 283.5 401.5 c 128,-1,33
 271 419 271 419 251 419 c 0,34,35
 214 419 214 419 186 366.5 c 128,-1,36
 158 314 158 314 152 236 c 1,37,38
 171 236 171 236 184.5 237.5 c 128,-1,39
 198 239 198 239 221 246 c 128,-1,40
 244 253 244 253 258.5 265 c 128,-1,41
 273 277 273 277 284.5 301 c 128,-1,42
 296 325 296 325 296 358 c 0,31,32
EndSplineSet
EndChar

StartChar: f
Encoding: 102 102 73
Width: 344
GlyphClass: 2
Flags: W
LayerCount: 2
Fore
SplineSet
362 577 m 1,0,1
 344 642 344 642 295 642 c 0,2,3
 259 642 259 642 238.5 592.5 c 128,-1,4
 218 543 218 543 213 472 c 1,5,6
 286 472 286 472 349 477 c 1,7,8
 352 464 352 464 352 452 c 0,9,10
 352 406 352 406 304 404 c 1,11,12
 281 402 281 402 207 402 c 1,13,14
 183 154 183 154 169 57 c 0,15,16
 164 21 164 21 158.5 -5 c 128,-1,17
 153 -31 153 -31 141.5 -63.5 c 128,-1,18
 130 -96 130 -96 110 -113.5 c 128,-1,19
 90 -131 90 -131 63 -131 c 0,20,21
 17 -131 17 -131 -4 -68 c 1,22,23
 72 -46 72 -46 99 401 c 1,24,25
 69 400 69 400 37 396 c 1,26,27
 35 414 35 414 35 419 c 0,28,29
 35 473 35 473 93 473 c 2,30,-1
 106 473 l 1,31,32
 129 714 129 714 321 714 c 0,33,34
 370 714 370 714 407 697.5 c 128,-1,35
 444 681 444 681 444 644 c 0,36,37
 444 620 444 620 425.5 599 c 128,-1,38
 407 578 407 578 362 577 c 1,0,1
EndSplineSet
EndChar

StartChar: g
Encoding: 103 103 74
Width: 484
GlyphClass: 2
Flags: W
LayerCount: 2
Fore
SplineSet
209 66 m 128,-1,1
 233 66 233 66 263.5 104 c 128,-1,2
 294 142 294 142 319 206 c 1,3,4
 333 298 333 298 346 376 c 1,5,6
 309 418 309 418 265 418 c 0,7,8
 212 418 212 418 181 351.5 c 128,-1,9
 150 285 150 285 150 191 c 0,10,11
 150 134 150 134 167.5 100 c 128,-1,0
 185 66 185 66 209 66 c 128,-1,1
267 485 m 0,12,13
 379 485 379 485 460 428 c 1,14,15
 436 330 436 330 411 162 c 0,16,17
 408 140 408 140 403 97 c 128,-1,18
 398 54 398 54 394.5 26.5 c 128,-1,19
 391 -1 391 -1 382.5 -41.5 c 128,-1,20
 374 -82 374 -82 363 -108.5 c 128,-1,21
 352 -135 352 -135 332.5 -165 c 128,-1,22
 313 -195 313 -195 287.5 -212.5 c 128,-1,23
 262 -230 262 -230 224.5 -241.5 c 128,-1,24
 187 -253 187 -253 140 -253 c 0,25,26
 81 -253 81 -253 42 -232 c 128,-1,27
 3 -211 3 -211 3 -182 c 0,28,29
 3 -142 3 -142 67 -117 c 1,30,31
 89 -187 89 -187 148 -187 c 0,32,33
 282 -187 282 -187 296 80 c 1,34,35
 267 33 267 33 228.5 11.5 c 128,-1,36
 190 -10 190 -10 156 -10 c 0,37,38
 92 -10 92 -10 59.5 42.5 c 128,-1,39
 27 95 27 95 27 170 c 0,40,41
 27 297 27 297 96 391 c 128,-1,42
 165 485 165 485 267 485 c 0,12,13
EndSplineSet
EndChar

StartChar: h
Encoding: 104 104 75
Width: 485
GlyphClass: 2
Flags: W
LayerCount: 2
Fore
SplineSet
173 259 m 1,0,1
 153 109 153 109 153 59 c 0,2,3
 153 30 153 30 156 5 c 1,4,5
 117 -4 117 -4 90 -4 c 0,6,7
 35 -4 35 -4 35 31 c 128,-1,8
 35 66 35 66 77.5 327.5 c 128,-1,9
 120 589 120 589 120 625 c 0,10,11
 120 662 120 662 93 676 c 1,12,13
 95 703 95 703 117 723 c 128,-1,14
 139 743 139 743 171 743 c 128,-1,15
 203 743 203 743 218 724.5 c 128,-1,16
 233 706 233 706 233 679 c 0,17,18
 233 655 233 655 219 553 c 128,-1,19
 205 451 205 451 195 395 c 1,20,21
 225 438 225 438 264 461 c 128,-1,22
 303 484 303 484 339 484 c 0,23,24
 388 484 388 484 414.5 449 c 128,-1,25
 441 414 441 414 441 358 c 0,26,27
 441 340 441 340 423.5 238 c 128,-1,28
 406 136 406 136 404 108 c 1,29,30
 404 69 404 69 441 52 c 1,31,32
 437 24 437 24 415.5 7 c 128,-1,33
 394 -10 394 -10 368 -10 c 0,34,35
 338 -10 338 -10 317 13 c 128,-1,36
 296 36 296 36 296 80 c 0,37,38
 296 122 296 122 314 222.5 c 128,-1,39
 332 323 332 323 332 342 c 0,40,41
 332 407 332 407 292 407 c 0,42,43
 262 407 262 407 229.5 365.5 c 128,-1,44
 197 324 197 324 173 259 c 1,0,1
EndSplineSet
EndChar

StartChar: i
Encoding: 105 105 76
Width: 232
GlyphClass: 2
Flags: W
LayerCount: 2
Fore
SplineSet
150 531 m 0,0,1
 125 531 125 531 109.5 547.5 c 128,-1,2
 94 564 94 564 94 592 c 0,3,4
 94 624 94 624 116 647 c 128,-1,5
 138 670 138 670 167 670 c 0,6,7
 190 670 190 670 206.5 651.5 c 128,-1,8
 223 633 223 633 223 606 c 0,9,10
 223 575 223 575 199.5 553 c 128,-1,11
 176 531 176 531 150 531 c 0,0,1
87 366 m 0,12,13
 87 404 87 404 60 417 c 1,14,15
 63 447 63 447 86 465.5 c 128,-1,16
 109 484 109 484 138 484 c 0,17,18
 164 484 164 484 182 468 c 128,-1,19
 200 452 200 452 200 421 c 0,20,21
 200 383 200 383 172.5 251.5 c 128,-1,22
 145 120 145 120 145 108 c 0,23,24
 145 68 145 68 182 52 c 1,25,26
 178 26 178 26 159.5 8 c 128,-1,27
 141 -10 141 -10 112 -10 c 0,28,29
 75 -10 75 -10 57.5 17 c 128,-1,30
 40 44 40 44 40 81 c 0,31,32
 40 128 40 128 63.5 230 c 128,-1,33
 87 332 87 332 87 366 c 0,12,13
EndSplineSet
EndChar

StartChar: j
Encoding: 106 106 77
Width: 253
GlyphClass: 2
Flags: W
LayerCount: 2
Fore
SplineSet
164 531 m 0,0,1
 139 531 139 531 123.5 547.5 c 128,-1,2
 108 564 108 564 108 592 c 0,3,4
 108 624 108 624 130 647 c 128,-1,5
 152 670 152 670 181 670 c 0,6,7
 204 670 204 670 220.5 651.5 c 128,-1,8
 237 633 237 633 237 606 c 0,9,10
 237 575 237 575 213.5 553 c 128,-1,11
 190 531 190 531 164 531 c 0,0,1
152 484 m 0,12,13
 182 484 182 484 198 466 c 128,-1,14
 214 448 214 448 214 421 c 0,15,16
 214 385 214 385 193.5 235 c 128,-1,17
 173 85 173 85 157 -10 c 0,18,19
 117 -253 117 -253 -64 -253 c 0,20,21
 -116 -253 -116 -253 -153 -232 c 128,-1,22
 -190 -211 -190 -211 -190 -182 c 0,23,24
 -190 -141 -190 -141 -130 -117 c 1,25,26
 -123 -151 -123 -151 -106 -169.5 c 128,-1,27
 -89 -188 -89 -188 -66 -188 c 0,28,29
 -33 -188 -33 -188 -1.5 -151.5 c 128,-1,30
 30 -115 30 -115 41 -49 c 0,31,32
 101 308 101 308 101 366 c 0,33,34
 101 402 101 402 74 417 c 1,35,36
 76 446 76 446 99.5 465 c 128,-1,37
 123 484 123 484 152 484 c 0,12,13
EndSplineSet
EndChar

StartChar: k
Encoding: 107 107 78
Width: 476
GlyphClass: 2
Flags: W
LayerCount: 2
Fore
SplineSet
346 484 m 0,0,1
 401 484 401 484 428.5 454.5 c 128,-1,2
 456 425 456 425 456 378 c 0,3,4
 456 314 456 314 410.5 255 c 128,-1,5
 365 196 365 196 295 187 c 1,6,7
 326 124 326 124 349 97 c 0,8,9
 371 71 371 71 407 71 c 0,10,11
 419 71 419 71 434 74 c 1,12,13
 438 59 438 59 438 42 c 0,14,15
 438 -10 438 -10 365 -10 c 0,16,17
 311 -10 311 -10 279 35 c 128,-1,18
 247 80 247 80 208 189 c 1,19,20
 192 199 192 199 192 214 c 0,21,22
 192 230 192 230 205 250 c 1,23,24
 226 242 226 242 243 242 c 0,25,26
 282 242 282 242 307.5 272.5 c 128,-1,27
 333 303 333 303 333 345 c 0,28,29
 333 372 333 372 322 390 c 128,-1,30
 311 408 311 408 289 408 c 0,31,32
 265 408 265 408 230 367 c 128,-1,33
 195 326 195 326 174 267 c 1,34,35
 153 124 153 124 153 59 c 0,36,37
 153 30 153 30 156 5 c 1,38,39
 117 -4 117 -4 90 -4 c 0,40,41
 35 -4 35 -4 35 31 c 128,-1,42
 35 66 35 66 77.5 327.5 c 128,-1,43
 120 589 120 589 120 625 c 0,44,45
 120 662 120 662 93 676 c 1,46,47
 95 703 95 703 117 723 c 128,-1,48
 139 743 139 743 171 743 c 128,-1,49
 203 743 203 743 218 724.5 c 128,-1,50
 233 706 233 706 233 679 c 0,51,52
 233 655 233 655 219 552 c 128,-1,53
 205 449 205 449 194 388 c 1,54,55
 258 484 258 484 346 484 c 0,0,1
EndSplineSet
EndChar

StartChar: l
Encoding: 108 108 79
Width: 229
GlyphClass: 2
Flags: W
LayerCount: 2
Fore
SplineSet
156 743 m 128,-1,1
 188 743 188 743 203 724.5 c 128,-1,2
 218 706 218 706 218 679 c 0,3,4
 218 642 218 642 180.5 391.5 c 128,-1,5
 143 141 143 141 140 109 c 1,6,7
 140 67 140 67 177 52 c 1,8,9
 165 -10 165 -10 106 -10 c 0,10,11
 70 -10 70 -10 52.5 17 c 128,-1,12
 35 44 35 44 35 81 c 0,13,14
 35 128 35 128 68.5 353 c 128,-1,15
 102 578 102 578 105 625 c 1,16,17
 105 662 105 662 78 676 c 1,18,19
 80 703 80 703 102 723 c 128,-1,0
 124 743 124 743 156 743 c 128,-1,1
EndSplineSet
EndChar

StartChar: m
Encoding: 109 109 80
Width: 738
GlyphClass: 2
Flags: W
LayerCount: 2
Fore
SplineSet
182 259 m 1,0,1
 162 109 162 109 162 59 c 0,2,3
 162 30 162 30 165 5 c 1,4,5
 126 -4 126 -4 99 -4 c 0,6,7
 44 -4 44 -4 44 31 c 0,8,9
 44 44 44 44 66.5 189.5 c 128,-1,10
 89 335 89 335 89 363 c 0,11,12
 89 405 89 405 61 417 c 1,13,14
 65 448 65 448 88 466 c 128,-1,15
 111 484 111 484 139 484 c 0,16,17
 165 484 165 484 183 468 c 128,-1,18
 201 452 201 452 201 422 c 0,19,20
 201 404 201 404 198 386 c 1,21,22
 225 433 225 433 263 458.5 c 128,-1,23
 301 484 301 484 338 484 c 0,24,25
 381 484 381 484 407.5 456 c 128,-1,26
 434 428 434 428 439 381 c 1,27,28
 465 430 465 430 504 457 c 128,-1,29
 543 484 543 484 582 484 c 0,30,31
 631 484 631 484 657.5 449 c 128,-1,32
 684 414 684 414 684 358 c 0,33,34
 684 340 684 340 666.5 238 c 128,-1,35
 649 136 649 136 647 108 c 1,36,37
 647 69 647 69 684 52 c 1,38,39
 680 24 680 24 658.5 7 c 128,-1,40
 637 -10 637 -10 611 -10 c 0,41,42
 581 -10 581 -10 560 13 c 128,-1,43
 539 36 539 36 539 80 c 0,44,45
 539 122 539 122 557 222.5 c 128,-1,46
 575 323 575 323 575 342 c 0,47,48
 575 407 575 407 537 407 c 0,49,50
 511 407 511 407 479 365 c 128,-1,51
 447 323 447 323 428 269 c 1,52,53
 406 134 406 134 406 59 c 0,54,55
 406 30 406 30 409 5 c 1,56,57
 370 -4 370 -4 343 -4 c 0,58,59
 288 -4 288 -4 288 31 c 0,60,61
 288 44 288 44 309 178.5 c 128,-1,62
 330 313 330 313 330 348 c 0,63,64
 330 407 330 407 293 407 c 0,65,66
 266 407 266 407 232.5 361.5 c 128,-1,67
 199 316 199 316 182 259 c 1,0,1
EndSplineSet
EndChar

StartChar: n
Encoding: 110 110 81
Width: 504
GlyphClass: 2
Flags: W
LayerCount: 2
Fore
SplineSet
182 259 m 1,0,1
 162 109 162 109 162 59 c 0,2,3
 162 30 162 30 165 5 c 1,4,5
 126 -4 126 -4 99 -4 c 0,6,7
 44 -4 44 -4 44 31 c 0,8,9
 44 44 44 44 66.5 189.5 c 128,-1,10
 89 335 89 335 89 363 c 0,11,12
 89 405 89 405 61 417 c 1,13,14
 65 448 65 448 88 466 c 128,-1,15
 111 484 111 484 139 484 c 0,16,17
 165 484 165 484 183 468 c 128,-1,18
 201 452 201 452 201 422 c 0,19,20
 201 404 201 404 198 386 c 1,21,22
 227 433 227 433 268.5 458.5 c 128,-1,23
 310 484 310 484 348 484 c 0,24,25
 397 484 397 484 423.5 449 c 128,-1,26
 450 414 450 414 450 358 c 0,27,28
 450 340 450 340 432.5 238 c 128,-1,29
 415 136 415 136 413 108 c 1,30,31
 413 69 413 69 450 52 c 1,32,33
 446 24 446 24 424.5 7 c 128,-1,34
 403 -10 403 -10 377 -10 c 0,35,36
 347 -10 347 -10 326 13 c 128,-1,37
 305 36 305 36 305 80 c 0,38,39
 305 122 305 122 323 222.5 c 128,-1,40
 341 323 341 323 341 342 c 0,41,42
 341 407 341 407 301 407 c 0,43,44
 271 407 271 407 238.5 365.5 c 128,-1,45
 206 324 206 324 182 259 c 1,0,1
EndSplineSet
EndChar

StartChar: o
Encoding: 111 111 82
Width: 501
GlyphClass: 2
Flags: W
LayerCount: 2
Fore
SplineSet
213 -10 m 0,0,1
 125 -10 125 -10 76 41.5 c 128,-1,2
 27 93 27 93 27 185 c 0,3,4
 27 311 27 311 99 397.5 c 128,-1,5
 171 484 171 484 283 484 c 0,6,7
 373 484 373 484 423.5 431.5 c 128,-1,8
 474 379 474 379 474 287 c 0,9,10
 474 162 474 162 399.5 76 c 128,-1,11
 325 -10 325 -10 213 -10 c 0,0,1
269 418 m 0,12,13
 214 418 214 418 182 352.5 c 128,-1,14
 150 287 150 287 150 201 c 0,15,16
 150 138 150 138 171.5 97 c 128,-1,17
 193 56 193 56 232 56 c 0,18,19
 286 56 286 56 318 120 c 128,-1,20
 350 184 350 184 350 269 c 0,21,22
 350 334 350 334 328.5 376 c 128,-1,23
 307 418 307 418 269 418 c 0,12,13
EndSplineSet
EndChar

StartChar: p
Encoding: 112 112 83
Width: 505
GlyphClass: 2
Flags: W
LayerCount: 2
Fore
SplineSet
188 278 m 1,0,1
 182 229 182 229 158 100 c 1,2,3
 192 55 192 55 232 55 c 0,4,5
 282 55 282 55 318.5 117 c 128,-1,6
 355 179 355 179 355 287 c 0,7,8
 355 407 355 407 291 407 c 0,9,10
 244 407 244 407 188 278 c 1,0,1
144 484 m 0,11,12
 174 484 174 484 190 466.5 c 128,-1,13
 206 449 206 449 206 420 c 0,14,15
 206 409 206 409 204 393 c 1,16,17
 262 484 262 484 344 484 c 0,18,19
 478 484 478 484 478 298 c 0,20,21
 478 165 478 165 410.5 77.5 c 128,-1,22
 343 -10 343 -10 257 -10 c 0,23,24
 196 -10 196 -10 148 34 c 1,25,26
 123 -109 123 -109 123 -137 c 0,27,28
 123 -175 123 -175 147 -198 c 1,29,30
 111 -253 111 -253 72 -253 c 0,31,32
 13 -253 13 -253 13 -163 c 0,33,34
 13 -114 13 -114 50 101 c 128,-1,35
 87 316 87 316 90 366 c 1,36,37
 90 402 90 402 63 417 c 1,38,39
 66 448 66 448 91 466 c 128,-1,40
 116 484 116 484 144 484 c 0,11,12
EndSplineSet
EndChar

StartChar: q
Encoding: 113 113 84
Width: 494
GlyphClass: 2
Flags: W
LayerCount: 2
Fore
SplineSet
327 207 m 1,0,1
 341 304 341 304 354 376 c 1,2,3
 313 418 313 418 274 418 c 0,4,5
 224 418 224 418 191 354.5 c 128,-1,6
 158 291 158 291 158 191 c 0,7,8
 158 137 158 137 175 101.5 c 128,-1,9
 192 66 192 66 219 66 c 0,10,11
 243 66 243 66 274.5 106.5 c 128,-1,12
 306 147 306 147 327 207 c 1,0,1
470 427 m 1,13,14
 451 343 451 343 412 117 c 128,-1,15
 373 -109 373 -109 373 -142 c 0,16,17
 373 -177 373 -177 407 -191 c 1,18,19
 402 -219 402 -219 383.5 -236 c 128,-1,20
 365 -253 365 -253 337 -253 c 0,21,22
 297 -253 297 -253 281 -224 c 128,-1,23
 265 -195 265 -195 265 -162 c 0,24,25
 265 -119 265 -119 300 73 c 1,26,27
 240 -10 240 -10 163 -10 c 0,28,29
 105 -10 105 -10 70 37 c 128,-1,30
 35 84 35 84 35 171 c 0,31,32
 35 300 35 300 104 392 c 128,-1,33
 173 484 173 484 274 484 c 0,34,35
 385 484 385 484 470 427 c 1,13,14
EndSplineSet
EndChar

StartChar: r
Encoding: 114 114 85
Width: 359
GlyphClass: 2
Flags: W
LayerCount: 2
Fore
SplineSet
301 386 m 0,0,1
 242 386 242 386 187 301 c 1,2,3
 161 125 161 125 161 59 c 0,4,5
 161 30 161 30 164 5 c 1,6,7
 125 -4 125 -4 98 -4 c 0,8,9
 43 -4 43 -4 43 31 c 0,10,11
 43 44 43 44 65.5 189.5 c 128,-1,12
 88 335 88 335 88 363 c 0,13,14
 88 405 88 405 60 417 c 1,15,16
 64 448 64 448 87 466 c 128,-1,17
 110 484 110 484 138 484 c 0,18,19
 164 484 164 484 182 468 c 128,-1,20
 200 452 200 452 200 422 c 0,21,22
 200 405 200 405 197 387 c 1,23,24
 221 426 221 426 256.5 455 c 128,-1,25
 292 484 292 484 329 484 c 0,26,27
 374 484 374 484 374 436 c 0,28,29
 374 397 374 397 346 367 c 1,30,31
 327 386 327 386 301 386 c 0,0,1
EndSplineSet
EndChar

StartChar: s
Encoding: 115 115 86
Width: 385
GlyphClass: 2
Flags: W
LayerCount: 2
Fore
SplineSet
287 345 m 1,0,1
 277 380 277 380 258.5 397 c 128,-1,2
 240 414 240 414 218 414 c 0,3,4
 191 414 191 414 168 392 c 128,-1,5
 145 370 145 370 145 340 c 0,6,7
 145 313 145 313 165.5 298 c 128,-1,8
 186 283 186 283 215 275 c 128,-1,9
 244 267 244 267 273 256 c 128,-1,10
 302 245 302 245 322.5 217 c 128,-1,11
 343 189 343 189 343 144 c 0,12,13
 343 68 343 68 288.5 29 c 128,-1,14
 234 -10 234 -10 147 -10 c 0,15,16
 88 -10 88 -10 46.5 12 c 128,-1,17
 5 34 5 34 5 71 c 0,18,19
 5 122 5 122 65 134 c 1,20,21
 74 100 74 100 99 81 c 128,-1,22
 124 62 124 62 154 62 c 0,23,24
 196 62 196 62 221.5 80.5 c 128,-1,25
 247 99 247 99 247 124 c 0,26,27
 247 150 247 150 226.5 165 c 128,-1,28
 206 180 206 180 177 189 c 128,-1,29
 148 198 148 198 118.5 210 c 128,-1,30
 89 222 89 222 68.5 250 c 128,-1,31
 48 278 48 278 48 322 c 0,32,33
 48 403 48 403 103 444 c 128,-1,34
 158 485 158 485 237 485 c 0,35,36
 281 485 281 485 321 463.5 c 128,-1,37
 361 442 361 442 361 404 c 0,38,39
 361 353 361 353 287 345 c 1,0,1
EndSplineSet
EndChar

StartChar: t
Encoding: 116 116 87
Width: 344
GlyphClass: 2
Flags: W
LayerCount: 2
Fore
SplineSet
75 473 m 2,0,-1
 109 473 l 1,1,2
 110 479 110 479 114.5 519 c 128,-1,3
 119 559 119 559 120 573 c 1,4,5
 141 580 141 580 176 580 c 0,6,7
 231 580 231 580 231 546 c 0,8,9
 231 541 231 541 219 472 c 1,10,11
 304 472 304 472 369 477 c 1,12,13
 372 465 372 465 372 453 c 0,14,15
 372 406 372 406 326 403 c 1,16,17
 295 402 295 402 208 402 c 1,18,19
 172 170 172 170 172 133 c 0,20,21
 172 89 172 89 187 74 c 128,-1,22
 202 59 202 59 234 59 c 128,-1,23
 266 59 266 59 294 89 c 1,24,25
 320 71 320 71 320 43 c 0,26,27
 320 -10 320 -10 203 -10 c 0,28,29
 145 -10 145 -10 106 21 c 128,-1,30
 67 52 67 52 67 125 c 0,31,32
 67 147 67 147 72.5 191 c 128,-1,33
 78 235 78 235 88 302 c 128,-1,34
 98 369 98 369 102 402 c 1,35,36
 85 402 85 402 19 396 c 1,37,38
 17 410 17 410 17 417 c 0,39,40
 17 473 17 473 75 473 c 2,0,-1
EndSplineSet
EndChar

StartChar: u
Encoding: 117 117 88
Width: 501
GlyphClass: 2
Flags: W
LayerCount: 2
Fore
SplineSet
201 422 m 0,0,1
 201 380 201 380 180 265.5 c 128,-1,2
 159 151 159 151 159 132 c 0,3,4
 159 67 159 67 199 67 c 0,5,6
 229 67 229 67 261.5 108.5 c 128,-1,7
 294 150 294 150 318 215 c 1,8,9
 321 240 321 240 329 297 c 128,-1,10
 337 354 337 354 341.5 393 c 128,-1,11
 346 432 346 432 348 474 c 1,12,13
 373 481 373 481 404 481 c 0,14,15
 459 481 459 481 459 446 c 0,16,17
 459 440 459 440 457 427 c 128,-1,18
 455 414 455 414 450 387 c 128,-1,19
 445 360 445 360 442 338 c 0,20,21
 442 336 442 336 432.5 280.5 c 128,-1,22
 423 225 423 225 417 179.5 c 128,-1,23
 411 134 411 134 411 111 c 0,24,25
 411 69 411 69 439 57 c 1,26,27
 435 26 435 26 412 8 c 128,-1,28
 389 -10 389 -10 361 -10 c 0,29,30
 335 -10 335 -10 317 6 c 128,-1,31
 299 22 299 22 299 52 c 0,32,33
 299 70 299 70 302 88 c 1,34,35
 273 41 273 41 231.5 15.5 c 128,-1,36
 190 -10 190 -10 152 -10 c 0,37,38
 103 -10 103 -10 76.5 25 c 128,-1,39
 50 60 50 60 50 116 c 0,40,41
 50 134 50 134 69 242 c 128,-1,42
 88 350 88 350 88 374 c 0,43,44
 88 399 88 399 61 417 c 1,45,46
 63 441 63 441 84 462.5 c 128,-1,47
 105 484 105 484 139 484 c 0,48,49
 165 484 165 484 183 469 c 128,-1,50
 201 454 201 454 201 422 c 0,0,1
EndSplineSet
EndChar

StartChar: v
Encoding: 118 118 89
Width: 431
GlyphClass: 2
Flags: W
LayerCount: 2
Fore
SplineSet
68 374 m 0,0,1
 68 424 68 424 49 464 c 1,2,3
 88 484 88 484 128 484 c 0,4,5
 192 484 192 484 192 418 c 0,6,7
 192 382 192 382 176 287 c 128,-1,8
 160 192 160 192 160 147 c 0,9,10
 160 94 160 94 174 66 c 1,11,12
 229 78 229 78 270 184.5 c 128,-1,13
 311 291 311 291 311 377 c 0,14,15
 311 435 311 435 296 466 c 1,16,17
 327 484 327 484 370 484 c 0,18,19
 401 484 401 484 415 465 c 128,-1,20
 429 446 429 446 429 418 c 0,21,22
 429 370 429 370 406.5 299.5 c 128,-1,23
 384 229 384 229 346.5 159 c 128,-1,24
 309 89 309 89 250 39.5 c 128,-1,25
 191 -10 191 -10 128 -10 c 0,26,27
 107 -10 107 -10 90 -2 c 1,28,29
 48 41 48 41 48 135 c 0,30,31
 48 181 48 181 58 248 c 128,-1,32
 68 315 68 315 68 374 c 0,0,1
EndSplineSet
EndChar

StartChar: w
Encoding: 119 119 90
Width: 643
GlyphClass: 2
Flags: W
LayerCount: 2
Fore
SplineSet
68 374 m 0,0,1
 68 424 68 424 49 464 c 1,2,3
 88 484 88 484 128 484 c 0,4,5
 192 484 192 484 192 418 c 0,6,7
 192 382 192 382 176 287 c 128,-1,8
 160 192 160 192 160 147 c 0,9,10
 160 94 160 94 174 66 c 1,11,12
 225 77 225 77 263 176.5 c 128,-1,13
 301 276 301 276 301 357 c 0,14,15
 301 410 301 410 286 440 c 1,16,17
 317 458 317 458 360 458 c 0,18,19
 391 458 391 458 405 440 c 128,-1,20
 419 422 419 422 419 395 c 0,21,22
 419 331 419 331 380 234 c 1,23,24
 378 202 378 202 378 185 c 0,25,26
 378 103 378 103 396 66 c 1,27,28
 447 78 447 78 485 184.5 c 128,-1,29
 523 291 523 291 523 377 c 0,30,31
 523 435 523 435 508 466 c 1,32,33
 539 484 539 484 582 484 c 0,34,35
 613 484 613 484 627 465 c 128,-1,36
 641 446 641 446 641 418 c 0,37,38
 641 370 641 370 619 299.5 c 128,-1,39
 597 229 597 229 560.5 159 c 128,-1,40
 524 89 524 89 467 39.5 c 128,-1,41
 410 -10 410 -10 349 -10 c 0,42,43
 329 -10 329 -10 312 -2 c 1,44,45
 287 23 287 23 282 71 c 1,46,47
 208 -10 208 -10 127 -10 c 0,48,49
 107 -10 107 -10 90 -2 c 1,50,51
 48 41 48 41 48 135 c 0,52,53
 48 181 48 181 58 248 c 128,-1,54
 68 315 68 315 68 374 c 0,0,1
EndSplineSet
EndChar

StartChar: x
Encoding: 120 120 91
Width: 424
GlyphClass: 2
Flags: W
LayerCount: 2
Fore
SplineSet
268 241 m 1,0,1
 275 227 275 227 289 193.5 c 128,-1,2
 303 160 303 160 310 146.5 c 128,-1,3
 317 133 317 133 330 114 c 128,-1,4
 343 95 343 95 357.5 87.5 c 128,-1,5
 372 80 372 80 391 80 c 1,6,7
 395 62 395 62 395 51 c 0,8,9
 395 25 395 25 373 7.5 c 128,-1,10
 351 -10 351 -10 320 -10 c 0,11,12
 258 -10 258 -10 191 160 c 1,13,14
 105 46 105 46 98 -5 c 1,15,16
 83 -8 83 -8 70 -8 c 0,17,18
 43 -8 43 -8 27 3 c 128,-1,19
 11 14 11 14 11 33 c 0,20,21
 11 54 11 54 30 83 c 0,22,23
 67 137 67 137 164 231 c 1,24,25
 160 241 160 241 152.5 260 c 128,-1,26
 145 279 145 279 141 288 c 128,-1,27
 137 297 137 297 130 313 c 128,-1,28
 123 329 123 329 118.5 336.5 c 128,-1,29
 114 344 114 344 107 355.5 c 128,-1,30
 100 367 100 367 94 372 c 128,-1,31
 88 377 88 377 80 383 c 128,-1,32
 72 389 72 389 63 391.5 c 128,-1,33
 54 394 54 394 44 394 c 1,34,35
 40 412 40 412 40 423 c 0,36,37
 40 449 40 449 62 466.5 c 128,-1,38
 84 484 84 484 115 484 c 0,39,40
 150 484 150 484 183.5 434 c 128,-1,41
 217 384 217 384 238 319 c 1,42,43
 295 420 295 420 303 480 c 1,44,45
 320 484 320 484 339 484 c 0,46,47
 398 484 398 484 398 438 c 0,48,49
 398 418 398 418 381 387.5 c 128,-1,50
 364 357 364 357 349 337.5 c 128,-1,51
 334 318 334 318 302.5 281 c 128,-1,52
 271 244 271 244 268 241 c 1,0,1
EndSplineSet
EndChar

StartChar: y
Encoding: 121 121 92
Width: 433
GlyphClass: 2
Flags: W
LayerCount: 2
Fore
SplineSet
150 435 m 0,0,1
 196 306 196 306 216 121 c 1,2,3
 304 289 304 289 304 403 c 0,4,5
 304 431 304 431 292 465 c 1,6,7
 327 484 327 484 354 484 c 0,8,9
 418 484 418 484 418 417 c 0,10,11
 418 339 418 339 366.5 218.5 c 128,-1,12
 315 98 315 98 242 -7 c 0,13,14
 188 -84 188 -84 147.5 -128 c 128,-1,15
 107 -172 107 -172 51 -201 c 128,-1,16
 -5 -230 -5 -230 -72 -230 c 0,17,18
 -121 -230 -121 -230 -155.5 -214 c 128,-1,19
 -190 -198 -190 -198 -190 -171 c 0,20,21
 -190 -138 -190 -138 -143 -110 c 1,22,23
 -114 -164 -114 -164 -60 -164 c 0,24,25
 34 -164 34 -164 135 -10 c 1,26,27
 131 116 131 116 89 260.5 c 128,-1,28
 47 405 47 405 7 439 c 1,29,30
 45 484 45 484 82 484 c 0,31,32
 133 484 133 484 150 435 c 0,0,1
EndSplineSet
EndChar

StartChar: z
Encoding: 122 122 93
Width: 423
GlyphClass: 2
Flags: W
LayerCount: 2
Fore
SplineSet
108 484 m 0,0,1
 132 484 132 484 215 474.5 c 128,-1,2
 298 465 298 465 338 465 c 0,3,4
 382 465 382 465 401 474 c 1,5,6
 418 457 418 457 418 427 c 128,-1,7
 418 397 418 397 401 377 c 0,8,9
 208 161 208 161 148 83 c 1,10,11
 169 82 169 82 222.5 74 c 128,-1,12
 276 66 276 66 302 66 c 0,13,14
 345 66 345 66 370 78 c 1,15,16
 378 62 378 62 378 40 c 0,17,18
 378 -10 378 -10 298 -10 c 0,19,20
 275 -10 275 -10 208 -1 c 128,-1,21
 141 8 141 8 104 8 c 0,22,23
 60 8 60 8 30 -1 c 1,24,25
 11 25 11 25 11 41 c 0,26,27
 11 59 11 59 24 82 c 0,28,29
 67 158 67 158 283 395 c 1,30,31
 266 396 266 396 212.5 402 c 128,-1,32
 159 408 159 408 128 408 c 0,33,34
 94 408 94 408 64 394 c 1,35,36
 56 418 56 418 56 437 c 0,37,38
 56 484 56 484 108 484 c 0,0,1
EndSplineSet
EndChar

StartChar: braceleft
Encoding: 123 123 94
Width: 438
GlyphClass: 2
Flags: W
LayerCount: 2
Fore
SplineSet
318 586 m 2,0,-1
 290 391 l 2,1,2
 286 363 286 363 262 333 c 128,-1,3
 238 303 238 303 211 287 c 1,4,5
 232 274 232 274 246.5 248 c 128,-1,6
 261 222 261 222 261 196 c 0,7,8
 261 182 261 182 246 80 c 128,-1,9
 231 -22 231 -22 231 -40 c 0,10,11
 231 -56 231 -56 241.5 -62 c 128,-1,12
 252 -68 252 -68 284 -68 c 0,13,14
 343 -68 343 -68 343 -101 c 0,15,16
 343 -116 343 -116 331 -137 c 1,17,18
 305 -139 305 -139 284 -139 c 0,19,20
 201 -139 201 -139 168 -118 c 128,-1,21
 135 -97 135 -97 135 -51 c 0,22,23
 135 -24 135 -24 150 78.5 c 128,-1,24
 165 181 165 181 165 189 c 0,25,26
 165 215 165 215 140 235.5 c 128,-1,27
 115 256 115 256 63 256 c 1,28,-1
 72 319 l 1,29,30
 126 319 126 319 157.5 343.5 c 128,-1,31
 189 368 189 368 194 395 c 0,32,33
 204 446 204 446 224 600 c 0,34,35
 232 660 232 660 270 687.5 c 128,-1,36
 308 715 308 715 402 715 c 0,37,38
 427 715 427 715 451 713 c 1,39,40
 453 705 453 705 453 692 c 0,41,42
 453 643 453 643 391 643 c 0,43,44
 348 643 348 643 335 631.5 c 128,-1,45
 322 620 322 620 318 586 c 2,0,-1
EndSplineSet
EndChar

StartChar: bar
Encoding: 124 124 95
Width: 509
GlyphClass: 2
Flags: W
LayerCount: 2
Fore
SplineSet
216 -9 m 2,0,-1
 216 564 l 2,1,2
 216 681 216 681 208 734 c 1,3,4
 224 737 224 737 254 737 c 0,5,6
 300 737 300 737 300 699 c 0,7,8
 300 694 300 694 296.5 627 c 128,-1,9
 293 560 293 560 293 528 c 2,10,-1
 293 -54 l 2,11,12
 293 -174 293 -174 301 -246 c 1,13,14
 285 -249 285 -249 255 -249 c 0,15,16
 209 -249 209 -249 209 -211 c 0,17,18
 209 -206 209 -206 212.5 -124 c 128,-1,19
 216 -42 216 -42 216 -9 c 2,0,-1
EndSplineSet
EndChar

StartChar: braceright
Encoding: 125 125 96
Width: 438
GlyphClass: 2
Flags: W
LayerCount: 2
Fore
SplineSet
120 -10 m 2,0,-1
 148 185 l 2,1,2
 152 213 152 213 176 243 c 128,-1,3
 200 273 200 273 227 289 c 1,4,5
 206 302 206 302 191.5 328 c 128,-1,6
 177 354 177 354 177 380 c 0,7,8
 177 394 177 394 192 496 c 128,-1,9
 207 598 207 598 207 616 c 0,10,11
 207 632 207 632 196.5 638 c 128,-1,12
 186 644 186 644 154 644 c 0,13,14
 95 644 95 644 95 677 c 0,15,16
 95 692 95 692 107 713 c 1,17,18
 133 715 133 715 154 715 c 0,19,20
 237 715 237 715 270 694 c 128,-1,21
 303 673 303 673 303 627 c 0,22,23
 303 600 303 600 288 497.5 c 128,-1,24
 273 395 273 395 273 387 c 0,25,26
 273 361 273 361 298 340.5 c 128,-1,27
 323 320 323 320 375 320 c 1,28,-1
 366 257 l 1,29,30
 312 257 312 257 280.5 232.5 c 128,-1,31
 249 208 249 208 244 181 c 0,32,33
 234 130 234 130 214 -24 c 0,34,35
 206 -84 206 -84 168 -111.5 c 128,-1,36
 130 -139 130 -139 36 -139 c 0,37,38
 11 -139 11 -139 -13 -137 c 1,39,40
 -15 -129 -15 -129 -15 -116 c 0,41,42
 -15 -67 -15 -67 47 -67 c 0,43,44
 90 -67 90 -67 103 -55.5 c 128,-1,45
 116 -44 116 -44 120 -10 c 2,0,-1
EndSplineSet
EndChar

StartChar: asciitilde
Encoding: 126 126 97
Width: 553
GlyphClass: 2
Flags: W
LayerCount: 2
Fore
SplineSet
32 269 m 0,0,1
 32 337 32 337 155 337 c 0,2,3
 212 337 212 337 285 317.5 c 128,-1,4
 358 298 358 298 396 298 c 0,5,6
 442 298 442 298 489 344 c 1,7,8
 521 304 521 304 521 277 c 0,9,10
 521 241 521 241 485 224.5 c 128,-1,11
 449 208 449 208 396 208 c 0,12,13
 360 208 360 208 285.5 227.5 c 128,-1,14
 211 247 211 247 171 247 c 0,15,16
 111 247 111 247 65 201 c 1,17,18
 32 244 32 244 32 269 c 0,0,1
EndSplineSet
EndChar

StartChar: exclamdown
Encoding: 161 161 98
Width: 314
GlyphClass: 2
Flags: W
LayerCount: 2
Fore
SplineSet
197 484 m 0,0,1
 222 484 222 484 239.5 466.5 c 128,-1,2
 257 449 257 449 257 420 c 0,3,4
 257 385 257 385 233 358 c 128,-1,5
 209 331 209 331 177 331 c 0,6,7
 152 331 152 331 135.5 349.5 c 128,-1,8
 119 368 119 368 119 396 c 0,9,10
 119 432 119 432 141.5 458 c 128,-1,11
 164 484 164 484 197 484 c 0,0,1
57 -166 m 0,12,13
 57 -139 57 -139 74 -76 c 0,14,15
 88 -26 88 -26 106 72 c 128,-1,16
 124 170 124 170 124 212 c 0,17,18
 124 236 124 236 120 255 c 1,19,20
 153 269 153 269 174 269 c 0,21,22
 224 269 224 269 224 228 c 0,23,24
 224 221 224 221 211 124 c 0,25,26
 180 -100 180 -100 180 -170 c 0,27,28
 180 -184 180 -184 181 -197 c 1,29,30
 140 -210 140 -210 114 -210 c 0,31,32
 57 -210 57 -210 57 -166 c 0,12,13
EndSplineSet
EndChar

StartChar: cent
Encoding: 162 162 99
Width: 574
GlyphClass: 2
Flags: W
LayerCount: 2
Fore
SplineSet
181 291 m 0,0,1
 181 186 181 186 253 153 c 1,2,-1
 301 499 l 1,3,4
 248 478 248 478 214.5 421 c 128,-1,5
 181 364 181 364 181 291 c 0,0,1
322 681 m 1,6,7
 338 684 338 684 346 684 c 0,8,9
 379 684 379 684 379 662 c 0,10,11
 379 660 379 660 368 581 c 1,12,-1
 375 581 l 2,13,14
 449 581 449 581 490 556 c 128,-1,15
 531 531 531 531 531 497 c 0,16,17
 531 473 531 473 510 454 c 128,-1,18
 489 435 489 435 450 427 c 1,19,20
 411 506 411 506 358 509 c 1,21,-1
 307 142 l 1,22,23
 331 142 331 142 361.5 164.5 c 128,-1,24
 392 187 392 187 419 227 c 1,25,26
 450 220 450 220 467.5 202.5 c 128,-1,27
 485 185 485 185 485 163 c 0,28,29
 485 126 485 126 437 98.5 c 128,-1,30
 389 71 389 71 296 70 c 1,31,-1
 295 57 l 2,32,33
 290 -8 290 -8 290 -14 c 1,34,-1
 269 -16 l 1,35,36
 233 -16 233 -16 233 6 c 0,37,38
 233 13 233 13 242 73 c 1,39,40
 160 86 160 86 111.5 139.5 c 128,-1,41
 63 193 63 193 63 276 c 0,42,43
 63 399 63 399 135.5 478 c 128,-1,44
 208 557 208 557 312 576 c 1,45,-1
 312 578 l 1,46,-1
 313 580 l 1,47,48
 319 625 319 625 322 681 c 1,6,7
EndSplineSet
EndChar

StartChar: sterling
Encoding: 163 163 100
Width: 574
GlyphClass: 2
Flags: W
LayerCount: 2
Fore
SplineSet
230 307 m 0,0,1
 230 313 230 313 228 329 c 1,2,-1
 211 329 l 2,3,4
 171 329 171 329 97 325 c 1,5,6
 96 333 96 333 96 345 c 0,7,8
 96 380 96 380 134 380 c 0,9,10
 136 380 136 380 214 382 c 1,11,12
 212 390 212 390 204.5 411.5 c 128,-1,13
 197 433 197 433 193.5 444 c 128,-1,14
 190 455 190 455 186.5 472 c 128,-1,15
 183 489 183 489 183 503 c 0,16,17
 183 565 183 565 240 620 c 128,-1,18
 297 675 297 675 377 675 c 0,19,20
 413 675 413 675 439.5 659 c 128,-1,21
 466 643 466 643 466 614 c 0,22,23
 466 594 466 594 448.5 578 c 128,-1,24
 431 562 431 562 407 554 c 1,25,26
 392 592 392 592 349 592 c 0,27,28
 319 592 319 592 302.5 577 c 128,-1,29
 286 562 286 562 286 538 c 128,-1,30
 286 514 286 514 293.5 490 c 128,-1,31
 301 466 301 466 315.5 433.5 c 128,-1,32
 330 401 330 401 335 388 c 1,33,34
 413 393 413 393 464 400 c 1,35,36
 466 382 466 382 466 375 c 0,37,38
 466 347 466 347 452 336 c 128,-1,39
 438 325 438 325 404 325 c 0,40,41
 374 325 374 325 348 326 c 1,42,43
 347 255 347 255 315.5 202 c 128,-1,44
 284 149 284 149 191 79 c 1,45,46
 203 78 203 78 243 70 c 128,-1,47
 283 62 283 62 314 62 c 0,48,49
 351 62 351 62 383 79 c 128,-1,50
 415 96 415 96 417 137 c 1,51,-1
 427 137 l 2,52,53
 456 137 456 137 472.5 122 c 128,-1,54
 489 107 489 107 489 85 c 0,55,56
 489 51 489 51 451.5 24 c 128,-1,57
 414 -3 414 -3 345 -3 c 0,58,59
 286 -3 286 -3 216 11 c 128,-1,60
 146 25 146 25 109 25 c 0,61,62
 101 25 101 25 95 23 c 1,63,64
 75 -3 75 -3 49 -3 c 0,65,66
 37 -3 37 -3 29 5.5 c 128,-1,67
 21 14 21 14 21 26 c 0,68,69
 21 45 21 45 40.5 61.5 c 128,-1,70
 60 78 60 78 104 85 c 1,71,72
 173 158 173 158 201.5 205.5 c 128,-1,73
 230 253 230 253 230 307 c 0,0,1
EndSplineSet
EndChar

StartChar: yen
Encoding: 165 165 101
Width: 574
GlyphClass: 2
Flags: W
LayerCount: 2
Fore
SplineSet
248 -3 m 0,0,1
 190 -3 190 -3 190 40 c 0,2,3
 190 48 190 48 193.5 73.5 c 128,-1,4
 197 99 197 99 202.5 135.5 c 128,-1,5
 208 172 208 172 211 192 c 1,6,7
 124 192 124 192 72 186 c 1,8,9
 69 192 69 192 69 205 c 0,10,11
 69 245 69 245 111 245 c 2,12,-1
 220 245 l 1,13,-1
 227 299 l 1,14,15
 140 299 140 299 87 293 c 1,16,17
 84 300 84 300 84 313 c 0,18,19
 84 353 84 353 132 353 c 2,20,-1
 221 353 l 1,21,22
 212 374 212 374 194 420.5 c 128,-1,23
 176 467 176 467 167.5 486.5 c 128,-1,24
 159 506 159 506 144.5 536 c 128,-1,25
 130 566 130 566 116 585.5 c 128,-1,26
 102 605 102 605 85 621 c 1,27,28
 121 669 121 669 162 669 c 0,29,30
 189 669 189 669 207 631 c 0,31,32
 259 523 259 523 304 390 c 1,33,34
 350 454 350 454 398.5 544 c 128,-1,35
 447 634 447 634 453 669 c 1,36,37
 469 673 469 673 485 673 c 0,38,39
 541 673 541 673 541 635 c 0,40,41
 541 594 541 594 364 353 c 1,42,43
 423 353 423 353 485 360 c 1,44,45
 487 352 487 352 487 340 c 0,46,47
 487 299 487 299 439 299 c 2,48,-1
 326 299 l 1,49,-1
 319 245 l 1,50,51
 413 245 413 245 473 251 c 1,52,53
 474 246 474 246 474 236 c 0,54,55
 474 192 474 192 427 192 c 2,56,-1
 311 192 l 1,57,58
 300 106 300 106 300 65 c 0,59,60
 300 34 300 34 304 11 c 1,61,62
 273 -3 273 -3 248 -3 c 0,0,1
EndSplineSet
EndChar

StartChar: brokenbar
Encoding: 166 166 102
Width: 574
GlyphClass: 2
Flags: W
LayerCount: 2
Fore
SplineSet
248 565 m 0,0,1
 248 681 248 681 240 734 c 1,2,3
 256 737 256 737 286 737 c 0,4,5
 332 737 332 737 332 699 c 0,6,7
 332 694 332 694 328.5 627 c 128,-1,8
 325 560 325 560 325 528 c 2,9,-1
 325 488 l 2,10,11
 325 368 325 368 333 296 c 1,12,13
 317 293 317 293 287 293 c 0,14,15
 241 293 241 293 241 331 c 0,16,17
 241 336 241 336 244.5 434 c 128,-1,18
 248 532 248 532 248 565 c 0,0,1
248 -18 m 2,19,-1
 248 21 l 2,20,21
 248 139 248 139 240 192 c 1,22,23
 256 195 256 195 286 195 c 0,24,25
 332 195 332 195 332 157 c 0,26,27
 332 152 332 152 328.5 85.5 c 128,-1,28
 325 19 325 19 325 -14 c 2,29,-1
 325 -54 l 2,30,31
 325 -174 325 -174 333 -246 c 1,32,33
 317 -249 317 -249 287 -249 c 0,34,35
 241 -249 241 -249 241 -211 c 0,36,37
 241 -207 241 -207 244.5 -130.5 c 128,-1,38
 248 -54 248 -54 248 -18 c 2,19,-1
EndSplineSet
EndChar

StartChar: section
Encoding: 167 167 103
Width: 438
GlyphClass: 2
Flags: W
LayerCount: 2
Fore
SplineSet
309 210 m 1,0,1
 319 230 319 230 319 259 c 0,2,3
 319 290 319 290 293.5 311.5 c 128,-1,4
 268 333 268 333 226.5 352.5 c 128,-1,5
 185 372 185 372 169 385 c 1,6,7
 160 367 160 367 160 339 c 0,8,9
 160 308 160 308 181.5 287.5 c 128,-1,10
 203 267 203 267 246.5 245.5 c 128,-1,11
 290 224 290 224 309 210 c 1,0,1
70 312 m 0,12,13
 70 386 70 386 133 428 c 1,14,15
 116 459 116 459 116 504 c 0,16,17
 116 582 116 582 171.5 627.5 c 128,-1,18
 227 673 227 673 305 673 c 0,19,20
 352 673 352 673 395 652.5 c 128,-1,21
 438 632 438 632 438 595 c 0,22,23
 438 572 438 572 422 557.5 c 128,-1,24
 406 543 406 543 361 535 c 1,25,26
 355 566 355 566 329.5 585 c 128,-1,27
 304 604 304 604 276 604 c 0,28,29
 245 604 245 604 224.5 584 c 128,-1,30
 204 564 204 564 204 526 c 0,31,32
 204 494 204 494 225 471 c 128,-1,33
 246 448 246 448 276 432 c 128,-1,34
 306 416 306 416 336.5 399 c 128,-1,35
 367 382 367 382 388 353.5 c 128,-1,36
 409 325 409 325 409 285 c 0,37,38
 409 210 409 210 346 168 c 1,39,40
 364 138 364 138 364 101 c 0,41,42
 364 14 364 14 306.5 -32 c 128,-1,43
 249 -78 249 -78 169 -78 c 0,44,45
 109 -78 109 -78 64.5 -55 c 128,-1,46
 20 -32 20 -32 20 2 c 0,47,48
 20 40 20 40 96 60 c 1,49,50
 102 28 102 28 127.5 9.5 c 128,-1,51
 153 -9 153 -9 196 -9 c 0,52,53
 230 -9 230 -9 252.5 13 c 128,-1,54
 275 35 275 35 275 77 c 0,55,56
 275 109 275 109 254 131.5 c 128,-1,57
 233 154 233 154 202.5 169 c 128,-1,58
 172 184 172 184 142 200 c 128,-1,59
 112 216 112 216 91 244 c 128,-1,60
 70 272 70 272 70 312 c 0,12,13
EndSplineSet
EndChar

StartChar: dieresis
Encoding: 168 168 104
Width: 296
GlyphClass: 2
Flags: W
LayerCount: 2
Fore
SplineSet
272 531 m 0,0,1
 247 531 247 531 231.5 547.5 c 128,-1,2
 216 564 216 564 216 592 c 0,3,4
 216 624 216 624 238 647 c 128,-1,5
 260 670 260 670 289 670 c 0,6,7
 312 670 312 670 328.5 651.5 c 128,-1,8
 345 633 345 633 345 606 c 0,9,10
 345 575 345 575 321.5 553 c 128,-1,11
 298 531 298 531 272 531 c 0,0,1
99 531 m 0,12,13
 74 531 74 531 58.5 547.5 c 128,-1,14
 43 564 43 564 43 592 c 0,15,16
 43 624 43 624 65 647 c 128,-1,17
 87 670 87 670 116 670 c 0,18,19
 139 670 139 670 155.5 651.5 c 128,-1,20
 172 633 172 633 172 606 c 0,21,22
 172 575 172 575 148.5 553 c 128,-1,23
 125 531 125 531 99 531 c 0,12,13
EndSplineSet
EndChar

StartChar: copyright
Encoding: 169 169 105
Width: 849
GlyphClass: 2
Flags: W
LayerCount: 2
Fore
SplineSet
743 320 m 0,0,1
 743 452 743 452 663.5 534.5 c 128,-1,2
 584 617 584 617 470 617 c 0,3,4
 354 617 354 617 274.5 535 c 128,-1,5
 195 453 195 453 195 320 c 128,-1,6
 195 187 195 187 274.5 105 c 128,-1,7
 354 23 354 23 470 23 c 0,8,9
 584 23 584 23 663.5 105 c 128,-1,10
 743 187 743 187 743 320 c 0,0,1
815 320 m 0,11,12
 815 170 815 170 714.5 68 c 128,-1,13
 614 -34 614 -34 470 -34 c 0,14,15
 323 -34 323 -34 223 67.5 c 128,-1,16
 123 169 123 169 123 320 c 0,17,18
 123 472 123 472 223 573 c 128,-1,19
 323 674 323 674 470 674 c 0,20,21
 615 674 615 674 715 573 c 128,-1,22
 815 472 815 472 815 320 c 0,11,12
620 161 m 0,23,24
 620 135 620 135 579 115.5 c 128,-1,25
 538 96 538 96 482 96 c 0,26,27
 441 96 441 96 404 107.5 c 128,-1,28
 367 119 367 119 333.5 143.5 c 128,-1,29
 300 168 300 168 280 213.5 c 128,-1,30
 260 259 260 259 260 319 c 0,31,32
 260 433 260 433 326 492 c 128,-1,33
 392 551 392 551 476 551 c 0,34,35
 506 551 506 551 537.5 542.5 c 128,-1,36
 569 534 569 534 595 513.5 c 128,-1,37
 621 493 621 493 621 464 c 0,38,39
 621 425 621 425 548 415 c 1,40,41
 540 446 540 446 517 462 c 128,-1,42
 494 478 494 478 469 478 c 0,43,44
 429 478 429 478 402 437 c 128,-1,45
 375 396 375 396 375 330 c 0,46,47
 375 246 375 246 409.5 207.5 c 128,-1,48
 444 169 444 169 491 169 c 0,49,50
 545 169 545 169 579 215 c 1,51,52
 620 190 620 190 620 161 c 0,23,24
EndSplineSet
EndChar

StartChar: ordfeminine
Encoding: 170 170 106
Width: 340
GlyphClass: 2
Flags: W
LayerCount: 2
Fore
SplineSet
188 643 m 0,0,1
 237 643 237 643 261.5 626.5 c 128,-1,2
 286 610 286 610 286 570 c 0,3,4
 286 556 286 556 277.5 499.5 c 128,-1,5
 269 443 269 443 269 412 c 0,6,7
 269 394 269 394 272 378 c 1,8,9
 253 370 253 370 230 370 c 0,10,11
 214 370 214 370 207 374 c 128,-1,12
 200 378 200 378 198 392 c 1,13,14
 167 366 167 366 125 366 c 0,15,16
 48 366 48 366 48 433 c 0,17,18
 48 499 48 499 117 519 c 1,19,20
 149 527 149 527 209 527 c 1,21,22
 211 551 211 551 211 556 c 0,23,24
 211 577 211 577 203 585.5 c 128,-1,25
 195 594 195 594 174 594 c 0,26,27
 162 594 162 594 147.5 583.5 c 128,-1,28
 133 573 133 573 129 557 c 1,29,30
 75 561 75 561 75 586 c 0,31,32
 75 614 75 614 112.5 628.5 c 128,-1,33
 150 643 150 643 188 643 c 0,0,1
270 311 m 1,34,35
 274 300 274 300 274 289 c 0,36,37
 274 269 274 269 259 257 c 128,-1,38
 244 245 244 245 219 245 c 0,39,40
 207 245 207 245 176 247.5 c 128,-1,41
 145 250 145 250 128 250 c 2,42,-1
 119 250 l 2,43,44
 76 250 76 250 22 239 c 1,45,46
 21 245 21 245 21 256 c 0,47,48
 21 305 21 305 75 305 c 0,49,50
 83 305 83 305 114 303 c 128,-1,51
 145 301 145 301 164 301 c 2,52,-1
 181 301 l 2,53,54
 229 301 229 301 270 311 c 1,34,35
193 432 m 1,55,-1
 201 493 l 1,56,57
 177 489 177 489 164.5 485.5 c 128,-1,58
 152 482 152 482 138.5 471.5 c 128,-1,59
 125 461 125 461 125 444 c 0,60,61
 125 414 125 414 151 414 c 0,62,63
 172 414 172 414 193 432 c 1,55,-1
EndSplineSet
EndChar

StartChar: guillemotleft
Encoding: 171 171 107
Width: 528
GlyphClass: 2
Flags: W
LayerCount: 2
Fore
SplineSet
513 400 m 0,0,1
 513 385 513 385 471.5 333 c 128,-1,2
 430 281 430 281 386 235 c 1,3,4
 468 109 468 109 468 78 c 0,5,6
 468 58 468 58 428 35 c 1,7,8
 353 105 353 105 277 236 c 1,9,10
 402 377 402 377 481 436 c 1,11,12
 513 418 513 418 513 400 c 0,0,1
293 400 m 0,13,14
 293 385 293 385 251.5 333 c 128,-1,15
 210 281 210 281 166 235 c 1,16,17
 248 109 248 109 248 78 c 0,18,19
 248 58 248 58 208 35 c 1,20,21
 133 105 133 105 57 236 c 1,22,23
 182 377 182 377 261 436 c 1,24,25
 293 418 293 418 293 400 c 0,13,14
EndSplineSet
EndChar

StartChar: logicalnot
Encoding: 172 172 108
Width: 574
GlyphClass: 2
Flags: W
LayerCount: 2
Fore
SplineSet
485 332 m 1,0,-1
 487 108 l 2,1,2
 487 76 487 76 475 63 c 128,-1,3
 463 50 463 50 428 50 c 0,4,5
 404 50 404 50 378 64 c 1,6,7
 394 118 394 118 394 239 c 2,8,-1
 394 266 l 1,9,-1
 189 266 l 2,10,11
 139 266 139 266 80 245 c 1,12,13
 68 274 68 274 68 288 c 0,14,15
 68 332 68 332 126 332 c 2,16,-1
 485 332 l 1,0,-1
EndSplineSet
EndChar

StartChar: registered
Encoding: 174 174 109
Width: 578
GlyphClass: 2
Flags: W
LayerCount: 2
Fore
SplineSet
478 440 m 128,-1,1
 478 522 478 522 429 572.5 c 128,-1,2
 380 623 380 623 309 623 c 0,3,4
 237 623 237 623 188 572.5 c 128,-1,5
 139 522 139 522 139 440 c 128,-1,6
 139 358 139 358 188 307.5 c 128,-1,7
 237 257 237 257 309 257 c 0,8,9
 380 257 380 257 429 307.5 c 128,-1,0
 478 358 478 358 478 440 c 128,-1,1
537 440 m 128,-1,11
 537 341 537 341 470.5 274 c 128,-1,12
 404 207 404 207 309 207 c 0,13,14
 212 207 212 207 146 274 c 128,-1,15
 80 341 80 341 80 440 c 0,16,17
 80 540 80 540 146 606.5 c 128,-1,18
 212 673 212 673 309 673 c 0,19,20
 404 673 404 673 470.5 606 c 128,-1,10
 537 539 537 539 537 440 c 128,-1,11
305 451 m 0,21,22
 344 451 344 451 344 488 c 0,23,24
 344 506 344 506 330.5 517.5 c 128,-1,25
 317 529 317 529 298 529 c 2,26,-1
 285 529 l 1,27,-1
 285 452 l 1,28,29
 289 451 289 451 305 451 c 0,21,22
420 356 m 1,30,31
 424 348 424 348 424 340 c 0,32,33
 424 329 424 329 414 322.5 c 128,-1,34
 404 316 404 316 390 316 c 0,35,36
 365 316 365 316 350 334 c 1,37,38
 307 379 307 379 285 419 c 1,39,-1
 285 396 l 2,40,41
 285 354 285 354 294 328 c 1,42,43
 275 318 275 318 257 318 c 0,44,45
 210 318 210 318 210 348 c 0,46,47
 210 357 210 357 211 378 c 128,-1,48
 212 399 212 399 212 407 c 2,49,-1
 212 474 l 2,50,51
 212 526 212 526 207 560 c 1,52,53
 282 566 282 566 304 566 c 0,54,55
 416 566 416 566 416 488 c 0,56,57
 416 437 416 437 356 418 c 1,58,59
 363 404 363 404 402 360 c 0,60,61
 406 356 406 356 420 356 c 1,30,31
EndSplineSet
EndChar

StartChar: macron
Encoding: 175 175 110
Width: 389
GlyphClass: 2
Flags: W
LayerCount: 2
Fore
SplineSet
396 631 m 1,0,1
 396 595 396 595 385.5 573 c 128,-1,2
 375 551 375 551 342 551 c 0,3,4
 327 551 327 551 290 554 c 128,-1,5
 253 557 253 557 230 557 c 2,6,-1
 210 557 l 2,7,8
 149 557 149 557 93 549 c 1,9,10
 92 555 92 555 92 564 c 0,11,12
 92 629 92 629 145 629 c 0,13,14
 150 629 150 629 189.5 626 c 128,-1,15
 229 623 229 623 244 623 c 0,16,17
 327 623 327 623 396 631 c 1,0,1
EndSplineSet
EndChar

StartChar: degree
Encoding: 176 176 111
Width: 359
GlyphClass: 2
Flags: W
LayerCount: 2
Fore
SplineSet
215 647 m 0,0,1
 173 647 173 647 148 612 c 128,-1,2
 123 577 123 577 123 527 c 0,3,4
 123 493 123 493 139 472 c 128,-1,5
 155 451 155 451 186 451 c 0,6,7
 228 451 228 451 252 487 c 128,-1,8
 276 523 276 523 276 572 c 0,9,10
 276 606 276 606 260.5 626.5 c 128,-1,11
 245 647 245 647 215 647 c 0,0,1
47 520 m 0,12,13
 47 597 47 597 96.5 654 c 128,-1,14
 146 711 146 711 224 711 c 0,15,16
 282 711 282 711 317.5 674 c 128,-1,17
 353 637 353 637 353 579 c 0,18,19
 353 502 353 502 303.5 444.5 c 128,-1,20
 254 387 254 387 177 387 c 0,21,22
 118 387 118 387 82.5 424 c 128,-1,23
 47 461 47 461 47 520 c 0,12,13
EndSplineSet
EndChar

StartChar: plusminus
Encoding: 177 177 112
Width: 574
GlyphClass: 2
Flags: W
LayerCount: 2
Fore
SplineSet
488 55 m 128,-1,1
 488 34 488 34 473.5 20 c 128,-1,2
 459 6 459 6 436 6 c 0,3,4
 417 6 417 6 361 10 c 128,-1,5
 305 14 305 14 284 14 c 0,6,7
 179 14 179 14 71 4 c 1,8,9
 66 28 66 28 66 43 c 0,10,11
 66 62 66 62 78.5 77 c 128,-1,12
 91 92 91 92 118 92 c 0,13,14
 124 92 124 92 181 88.5 c 128,-1,15
 238 85 238 85 282 85 c 0,16,17
 409 85 409 85 482 94 c 1,18,0
 488 76 488 76 488 55 c 128,-1,1
281 486 m 0,19,20
 305 486 305 486 321.5 474 c 128,-1,21
 338 462 338 462 338 443 c 128,-1,22
 338 424 338 424 334.5 386 c 128,-1,23
 331 348 331 348 331 328 c 1,24,25
 426 328 426 328 502 338 c 1,26,27
 507 321 507 321 507 299 c 0,28,29
 507 279 507 279 493 264.5 c 128,-1,30
 479 250 479 250 456 250 c 0,31,32
 436 250 436 250 391.5 253.5 c 128,-1,33
 347 257 347 257 330 257 c 1,34,35
 330 189 330 189 339 126 c 1,36,37
 310 120 310 120 292 120 c 0,38,39
 269 120 269 120 252 131 c 128,-1,40
 235 142 235 142 235 163 c 0,41,42
 235 173 235 173 238 198 c 128,-1,43
 241 223 241 223 241 258 c 1,44,45
 160 257 160 257 70 249 c 1,46,47
 66 269 66 269 66 287 c 0,48,49
 66 306 66 306 78.5 321 c 128,-1,50
 91 336 91 336 118 336 c 0,51,52
 139 336 139 336 175 332.5 c 128,-1,53
 211 329 211 329 242 329 c 1,54,55
 242 417 242 417 234 479 c 1,56,57
 254 486 254 486 281 486 c 0,19,20
EndSplineSet
EndChar

StartChar: twosuperior
Encoding: 178 178 113
Width: 473
GlyphClass: 2
Flags: W
LayerCount: 2
Fore
SplineSet
153 545 m 1,0,1
 112 548 112 548 112 574 c 0,2,3
 112 605 112 605 166.5 639 c 128,-1,4
 221 673 221 673 280 673 c 0,5,6
 340 673 340 673 375.5 644 c 128,-1,7
 411 615 411 615 411 567 c 0,8,9
 411 502 411 502 347 426 c 128,-1,10
 283 350 283 350 163 288 c 1,11,-1
 214 288 l 2,12,13
 340 288 340 288 391 312 c 1,14,15
 406 290 406 290 406 269 c 0,16,17
 406 240 406 240 379 232 c 0,18,19
 343 220 343 220 230 220 c 0,20,21
 149 220 149 220 95 222 c 1,22,23
 57 222 57 222 57 259 c 0,24,25
 57 275 57 275 62 293 c 1,26,27
 183 356 183 356 251 426.5 c 128,-1,28
 319 497 319 497 319 552 c 0,29,30
 319 578 319 578 299 593.5 c 128,-1,31
 279 609 279 609 245 609 c 0,32,33
 223 609 223 609 196.5 590.5 c 128,-1,34
 170 572 170 572 153 545 c 1,0,1
EndSplineSet
EndChar

StartChar: threesuperior
Encoding: 179 179 114
Width: 460
GlyphClass: 2
Flags: W
LayerCount: 2
Fore
SplineSet
161 423 m 1,0,-1
 161 475 l 1,1,-1
 182 475 l 2,2,3
 301 475 301 475 301 565 c 0,4,5
 301 610 301 610 252 610 c 0,6,7
 215 610 215 610 164 556 c 1,8,9
 113 569 113 569 113 592 c 0,10,11
 113 625 113 625 164.5 649.5 c 128,-1,12
 216 674 216 674 265 674 c 0,13,14
 394 674 394 674 394 580 c 0,15,16
 394 491 394 491 307 456 c 1,17,18
 371 428 371 428 371 362 c 0,19,20
 371 299 371 299 321 251.5 c 128,-1,21
 271 204 271 204 181 204 c 0,22,23
 130 204 130 204 93.5 220.5 c 128,-1,24
 57 237 57 237 57 266 c 0,25,26
 57 293 57 293 112 312 c 1,27,28
 144 268 144 268 191 268 c 0,29,30
 231 268 231 268 255.5 293.5 c 128,-1,31
 280 319 280 319 280 362 c 0,32,33
 280 425 280 425 203 425 c 0,34,35
 188 425 188 425 161 423 c 1,0,-1
EndSplineSet
EndChar

StartChar: acute
Encoding: 180 180 115
Width: 226
GlyphClass: 2
Flags: W
LayerCount: 2
Fore
SplineSet
195 611 m 0,0,1
 170 597 170 597 104.5 567 c 128,-1,2
 39 537 39 537 24 525 c 1,3,4
 0 549 0 549 0 568 c 0,5,6
 0 588 0 588 23 600 c 1,7,8
 51 613 51 613 107.5 648 c 128,-1,9
 164 683 164 683 193 709 c 1,10,11
 226 692 226 692 226 658 c 0,12,13
 226 629 226 629 195 611 c 0,0,1
EndSplineSet
EndChar

StartChar: mu
Encoding: 181 181 116
Width: 503
GlyphClass: 2
Flags: W
LayerCount: 2
Fore
SplineSet
203 422 m 0,0,1
 203 380 203 380 182 265.5 c 128,-1,2
 161 151 161 151 161 132 c 0,3,4
 161 67 161 67 201 67 c 0,5,6
 231 67 231 67 263.5 108.5 c 128,-1,7
 296 150 296 150 320 215 c 1,8,9
 323 240 323 240 331 297 c 128,-1,10
 339 354 339 354 343.5 393 c 128,-1,11
 348 432 348 432 350 474 c 1,12,13
 375 481 375 481 406 481 c 0,14,15
 461 481 461 481 461 446 c 0,16,17
 461 440 461 440 459 427 c 128,-1,18
 457 414 457 414 452 387 c 128,-1,19
 447 360 447 360 444 338 c 0,20,21
 444 336 444 336 434.5 280.5 c 128,-1,22
 425 225 425 225 419 179.5 c 128,-1,23
 413 134 413 134 413 111 c 0,24,25
 413 69 413 69 441 57 c 1,26,27
 437 26 437 26 414 8 c 128,-1,28
 391 -10 391 -10 363 -10 c 0,29,30
 337 -10 337 -10 319 6 c 128,-1,31
 301 22 301 22 301 52 c 0,32,33
 301 70 301 70 304 88 c 1,34,35
 239 -10 239 -10 181 -10 c 0,36,37
 157 -10 157 -10 135 9 c 1,38,39
 116 -39 116 -39 116 -109 c 128,-1,40
 116 -179 116 -179 143 -198 c 1,41,42
 107 -253 107 -253 68 -253 c 0,43,44
 9 -253 9 -253 9 -163 c 0,45,46
 9 -121 9 -121 59 174 c 0,47,48
 62 194 62 194 71 244.5 c 128,-1,49
 80 295 80 295 85 327 c 128,-1,50
 90 359 90 359 90 374 c 0,51,52
 90 399 90 399 63 417 c 1,53,54
 65 441 65 441 86 462.5 c 128,-1,55
 107 484 107 484 141 484 c 0,56,57
 167 484 167 484 185 469 c 128,-1,58
 203 454 203 454 203 422 c 0,0,1
EndSplineSet
EndChar

StartChar: paragraph
Encoding: 182 182 117
Width: 494
GlyphClass: 2
Flags: W
LayerCount: 2
Fore
SplineSet
252 234 m 0,0,1
 250 218 250 218 205 218 c 0,2,3
 138 218 138 218 97.5 257 c 128,-1,4
 57 296 57 296 57 362 c 0,5,6
 57 455 57 455 121 515 c 128,-1,7
 185 575 185 575 271 575 c 0,8,9
 277 575 277 575 340 573 c 128,-1,10
 403 571 403 571 432 571 c 0,11,12
 491 571 491 571 523 572 c 1,13,14
 525 554 525 554 525 549 c 0,15,16
 525 523 525 523 511.5 512 c 128,-1,17
 498 501 498 501 465 499 c 2,18,-1
 437 498 l 1,19,20
 392 283 392 283 372 115 c 0,21,22
 345 -119 345 -119 193 -119 c 0,23,24
 164 -119 164 -119 145 -107 c 128,-1,25
 126 -95 126 -95 126 -75 c 0,26,27
 126 -52 126 -52 142 -27 c 1,28,29
 164 -39 164 -39 185 -39 c 0,30,31
 204 -39 204 -39 219 -32 c 128,-1,32
 234 -25 234 -25 244 -10.5 c 128,-1,33
 254 4 254 4 261 18.5 c 128,-1,34
 268 33 268 33 272.5 55.5 c 128,-1,35
 277 78 277 78 279.5 94.5 c 128,-1,36
 282 111 282 111 284.5 135.5 c 128,-1,37
 287 160 287 160 289 172 c 0,38,39
 294 207 294 207 321.5 334 c 128,-1,40
 349 461 349 461 356 499 c 1,41,42
 304 499 304 499 302 500 c 1,43,44
 265 370 265 370 252 234 c 0,0,1
EndSplineSet
EndChar

StartChar: periodcentered
Encoding: 183 183 118
Width: 195
GlyphClass: 2
Flags: W
LayerCount: 2
Fore
SplineSet
93 184 m 0,0,1
 68 184 68 184 50.5 201.5 c 128,-1,2
 33 219 33 219 33 248 c 0,3,4
 33 283 33 283 57 310 c 128,-1,5
 81 337 81 337 113 337 c 0,6,7
 138 337 138 337 154.5 318.5 c 128,-1,8
 171 300 171 300 171 272 c 0,9,10
 171 236 171 236 148.5 210 c 128,-1,11
 126 184 126 184 93 184 c 0,0,1
EndSplineSet
EndChar

StartChar: cedilla
Encoding: 184 184 119
Width: 372
GlyphClass: 2
Flags: W
LayerCount: 2
Fore
SplineSet
147 32 m 1,0,-1
 202 24 l 1,1,2
 200 19 200 19 192 4.5 c 128,-1,3
 184 -10 184 -10 179 -21 c 128,-1,4
 174 -32 174 -32 174 -40 c 0,5,6
 174 -45 174 -45 191 -55.5 c 128,-1,7
 208 -66 208 -66 225.5 -85 c 128,-1,8
 243 -104 243 -104 243 -130 c 0,9,10
 243 -178 243 -178 195.5 -211 c 128,-1,11
 148 -244 148 -244 94 -244 c 0,12,13
 48 -244 48 -244 48 -217 c 0,14,15
 48 -197 48 -197 79 -170 c 1,16,17
 91 -184 91 -184 116 -184 c 0,18,19
 131 -184 131 -184 144 -175 c 128,-1,20
 157 -166 157 -166 157 -148 c 0,21,22
 157 -131 157 -131 129 -108.5 c 128,-1,23
 101 -86 101 -86 101 -67 c 0,24,25
 101 -27 101 -27 147 32 c 1,0,-1
EndSplineSet
EndChar

StartChar: onesuperior
Encoding: 185 185 120
Width: 382
GlyphClass: 2
Flags: W
LayerCount: 2
Fore
SplineSet
316 261 m 0,0,1
 316 216 316 216 264 216 c 2,2,-1
 115 216 l 2,3,4
 96 216 96 216 70 213 c 1,5,6
 66 227 66 227 66 238 c 0,7,8
 66 280 66 280 133 280 c 2,9,-1
 156 280 l 1,10,11
 192 530 192 530 199 602 c 1,12,13
 163 596 163 596 118 580 c 1,14,15
 110 595 110 595 110 610 c 0,16,17
 110 648 110 648 159 660 c 0,18,19
 221 674 221 674 249 674 c 0,20,21
 267 674 267 674 281 666 c 128,-1,22
 295 658 295 658 295 640 c 0,23,24
 295 630 295 630 284.5 574.5 c 128,-1,25
 274 519 274 519 261 434.5 c 128,-1,26
 248 350 248 350 245 276 c 1,27,28
 255 276 255 276 313 282 c 1,29,30
 316 271 316 271 316 261 c 0,0,1
EndSplineSet
EndChar

StartChar: ordmasculine
Encoding: 186 186 121
Width: 375
GlyphClass: 2
Flags: W
LayerCount: 2
Fore
SplineSet
270 311 m 1,0,1
 274 300 274 300 274 289 c 0,2,3
 274 269 274 269 259 257 c 128,-1,4
 244 245 244 245 219 245 c 0,5,6
 207 245 207 245 176 247.5 c 128,-1,7
 145 250 145 250 128 250 c 2,8,-1
 119 250 l 2,9,10
 76 250 76 250 22 239 c 1,11,12
 21 245 21 245 21 256 c 0,13,14
 21 305 21 305 75 305 c 0,15,16
 83 305 83 305 114 303 c 128,-1,17
 145 301 145 301 164 301 c 2,18,-1
 181 301 l 2,19,20
 229 301 229 301 270 311 c 1,0,1
165 416 m 0,21,22
 201 416 201 416 219.5 447 c 128,-1,23
 238 478 238 478 238 520 c 0,24,25
 238 553 238 553 225 573 c 128,-1,26
 212 593 212 593 189 593 c 0,27,28
 155 593 155 593 137 563 c 128,-1,29
 119 533 119 533 119 489 c 0,30,31
 119 416 119 416 165 416 c 0,21,22
159 366 m 0,32,33
 105 366 105 366 74.5 397 c 128,-1,34
 44 428 44 428 44 481 c 0,35,36
 44 549 44 549 85.5 596 c 128,-1,37
 127 643 127 643 195 643 c 0,38,39
 250 643 250 643 281 612.5 c 128,-1,40
 312 582 312 582 312 529 c 0,41,42
 312 459 312 459 270.5 412.5 c 128,-1,43
 229 366 229 366 159 366 c 0,32,33
EndSplineSet
EndChar

StartChar: guillemotright
Encoding: 187 187 122
Width: 528
GlyphClass: 2
Flags: W
LayerCount: 2
Fore
SplineSet
15 72 m 0,0,1
 15 87 15 87 56.5 139 c 128,-1,2
 98 191 98 191 142 237 c 1,3,4
 60 363 60 363 60 394 c 0,5,6
 60 414 60 414 100 437 c 1,7,8
 175 367 175 367 251 236 c 1,9,10
 126 95 126 95 47 36 c 1,11,12
 15 54 15 54 15 72 c 0,0,1
235 72 m 0,13,14
 235 87 235 87 276.5 139 c 128,-1,15
 318 191 318 191 362 237 c 1,16,17
 280 363 280 363 280 394 c 0,18,19
 280 414 280 414 320 437 c 1,20,21
 395 367 395 367 471 236 c 1,22,23
 346 94 346 94 267 36 c 1,24,25
 235 54 235 54 235 72 c 0,13,14
EndSplineSet
EndChar

StartChar: onequarter
Encoding: 188 188 123
Width: 952
GlyphClass: 2
Flags: W
LayerCount: 2
Fore
SplineSet
316 261 m 0,0,1
 316 216 316 216 264 216 c 2,2,-1
 115 216 l 2,3,4
 96 216 96 216 70 213 c 1,5,6
 66 227 66 227 66 238 c 0,7,8
 66 280 66 280 133 280 c 2,9,-1
 156 280 l 1,10,11
 192 530 192 530 199 602 c 1,12,13
 163 596 163 596 118 580 c 1,14,15
 110 595 110 595 110 610 c 0,16,17
 110 648 110 648 159 660 c 0,18,19
 221 674 221 674 249 674 c 0,20,21
 267 674 267 674 281 666 c 128,-1,22
 295 658 295 658 295 640 c 0,23,24
 295 630 295 630 284.5 574.5 c 128,-1,25
 274 519 274 519 261 434.5 c 128,-1,26
 248 350 248 350 245 276 c 1,27,28
 255 276 255 276 313 282 c 1,29,30
 316 271 316 271 316 261 c 0,0,1
204 -53 m 2,31,-1
 553 528 l 2,32,33
 633 661 633 661 674 740 c 1,34,35
 738 740 738 740 738 711 c 0,36,37
 738 700 738 700 729 685 c 2,38,-1
 380 105 l 2,39,40
 289 -46 289 -46 258 -107 c 1,41,42
 196 -105 196 -105 196 -76 c 0,43,44
 196 -65 196 -65 204 -53 c 2,31,-1
763 349 m 1,45,46
 757 343 757 343 734 321 c 128,-1,47
 711 299 711 299 695.5 283.5 c 128,-1,48
 680 268 680 268 657 241.5 c 128,-1,49
 634 215 634 215 617 191 c 1,50,-1
 742 191 l 1,51,52
 746 229 746 229 753.5 282 c 128,-1,53
 761 335 761 335 763 349 c 1,45,46
860 455 m 1,54,55
 860 452 860 452 845 367.5 c 128,-1,56
 830 283 830 283 820 199 c 1,57,58
 841 200 841 200 880 213 c 1,59,60
 886 194 886 194 886 178 c 0,61,62
 886 148 886 148 867 138 c 128,-1,63
 848 128 848 128 810 127 c 1,64,65
 805 82 805 82 805 56 c 0,66,67
 805 25 805 25 809 4 c 1,68,69
 781 -10 781 -10 763 -10 c 0,70,71
 715 -10 715 -10 715 21 c 0,72,73
 715 41 715 41 731 126 c 1,74,-1
 703 126 l 2,75,76
 626 126 626 126 566 133 c 0,77,78
 538 136 538 136 538 164 c 0,79,80
 538 178 538 178 544 198 c 1,81,82
 584 257 584 257 653.5 331.5 c 128,-1,83
 723 406 723 406 769 444 c 0,84,85
 785 457 785 457 823 457 c 0,86,87
 836 457 836 457 860 455 c 1,54,55
EndSplineSet
EndChar

StartChar: onehalf
Encoding: 189 189 124
Width: 967
GlyphClass: 2
Flags: W
LayerCount: 2
Fore
SplineSet
647 324 m 1,0,1
 606 327 606 327 606 353 c 0,2,3
 606 384 606 384 660.5 418 c 128,-1,4
 715 452 715 452 774 452 c 0,5,6
 834 452 834 452 869.5 423 c 128,-1,7
 905 394 905 394 905 346 c 0,8,9
 905 281 905 281 841 205 c 128,-1,10
 777 129 777 129 657 67 c 1,11,-1
 708 67 l 2,12,13
 834 67 834 67 885 91 c 1,14,15
 900 69 900 69 900 48 c 0,16,17
 900 19 900 19 873 11 c 0,18,19
 837 -1 837 -1 724 -1 c 0,20,21
 643 -1 643 -1 589 1 c 1,22,23
 551 1 551 1 551 38 c 0,24,25
 551 54 551 54 556 72 c 1,26,27
 677 135 677 135 745 205.5 c 128,-1,28
 813 276 813 276 813 331 c 0,29,30
 813 357 813 357 793 372.5 c 128,-1,31
 773 388 773 388 739 388 c 0,32,33
 717 388 717 388 690.5 369.5 c 128,-1,34
 664 351 664 351 647 324 c 1,0,1
316 261 m 0,35,36
 316 216 316 216 264 216 c 2,37,-1
 115 216 l 2,38,39
 96 216 96 216 70 213 c 1,40,41
 66 227 66 227 66 238 c 0,42,43
 66 280 66 280 133 280 c 2,44,-1
 156 280 l 1,45,46
 192 530 192 530 199 602 c 1,47,48
 163 596 163 596 118 580 c 1,49,50
 110 595 110 595 110 610 c 0,51,52
 110 648 110 648 159 660 c 0,53,54
 221 674 221 674 249 674 c 0,55,56
 267 674 267 674 281 666 c 128,-1,57
 295 658 295 658 295 640 c 0,58,59
 295 630 295 630 284.5 574.5 c 128,-1,60
 274 519 274 519 261 434.5 c 128,-1,61
 248 350 248 350 245 276 c 1,62,63
 255 276 255 276 313 282 c 1,64,65
 316 271 316 271 316 261 c 0,35,36
204 -53 m 2,66,-1
 553 528 l 2,67,68
 633 661 633 661 674 740 c 1,69,70
 738 740 738 740 738 711 c 0,71,72
 738 700 738 700 729 685 c 2,73,-1
 380 105 l 2,74,75
 289 -46 289 -46 258 -107 c 1,76,77
 196 -105 196 -105 196 -76 c 0,78,79
 196 -65 196 -65 204 -53 c 2,66,-1
EndSplineSet
EndChar

StartChar: threequarters
Encoding: 190 190 125
Width: 968
GlyphClass: 2
Flags: W
LayerCount: 2
Fore
SplineSet
161 423 m 1,0,-1
 161 475 l 1,1,-1
 182 475 l 2,2,3
 301 475 301 475 301 565 c 0,4,5
 301 610 301 610 252 610 c 0,6,7
 215 610 215 610 164 556 c 1,8,9
 113 569 113 569 113 592 c 0,10,11
 113 625 113 625 164.5 649.5 c 128,-1,12
 216 674 216 674 265 674 c 0,13,14
 394 674 394 674 394 580 c 0,15,16
 394 491 394 491 307 456 c 1,17,18
 371 428 371 428 371 362 c 0,19,20
 371 299 371 299 321 251.5 c 128,-1,21
 271 204 271 204 181 204 c 0,22,23
 130 204 130 204 93.5 220.5 c 128,-1,24
 57 237 57 237 57 266 c 0,25,26
 57 293 57 293 112 312 c 1,27,28
 144 268 144 268 191 268 c 0,29,30
 231 268 231 268 255.5 293.5 c 128,-1,31
 280 319 280 319 280 362 c 0,32,33
 280 425 280 425 203 425 c 0,34,35
 188 425 188 425 161 423 c 1,0,-1
220 -53 m 2,36,-1
 569 528 l 2,37,38
 649 661 649 661 690 740 c 1,39,40
 754 740 754 740 754 711 c 0,41,42
 754 700 754 700 745 685 c 2,43,-1
 396 105 l 2,44,45
 305 -46 305 -46 274 -107 c 1,46,47
 212 -105 212 -105 212 -76 c 0,48,49
 212 -65 212 -65 220 -53 c 2,36,-1
779 349 m 1,50,51
 773 343 773 343 750 321 c 128,-1,52
 727 299 727 299 711.5 283.5 c 128,-1,53
 696 268 696 268 673 241.5 c 128,-1,54
 650 215 650 215 633 191 c 1,55,-1
 758 191 l 1,56,57
 762 229 762 229 769.5 282 c 128,-1,58
 777 335 777 335 779 349 c 1,50,51
876 455 m 1,59,60
 876 452 876 452 861 367.5 c 128,-1,61
 846 283 846 283 836 199 c 1,62,63
 857 200 857 200 896 213 c 1,64,65
 902 194 902 194 902 178 c 0,66,67
 902 148 902 148 883 138 c 128,-1,68
 864 128 864 128 826 127 c 1,69,70
 821 82 821 82 821 56 c 0,71,72
 821 25 821 25 825 4 c 1,73,74
 797 -10 797 -10 779 -10 c 0,75,76
 731 -10 731 -10 731 21 c 0,77,78
 731 41 731 41 747 126 c 1,79,-1
 719 126 l 2,80,81
 642 126 642 126 582 133 c 0,82,83
 554 136 554 136 554 164 c 0,84,85
 554 178 554 178 560 198 c 1,86,87
 600 257 600 257 669.5 331.5 c 128,-1,88
 739 406 739 406 785 444 c 0,89,90
 801 457 801 457 839 457 c 0,91,92
 852 457 852 457 876 455 c 1,59,60
EndSplineSet
EndChar

StartChar: questiondown
Encoding: 191 191 126
Width: 385
GlyphClass: 2
Flags: W
LayerCount: 2
Fore
SplineSet
249 484 m 0,0,1
 274 484 274 484 291.5 466.5 c 128,-1,2
 309 449 309 449 309 420 c 0,3,4
 309 385 309 385 285 358 c 128,-1,5
 261 331 261 331 229 331 c 0,6,7
 204 331 204 331 187.5 349.5 c 128,-1,8
 171 368 171 368 171 396 c 0,9,10
 171 432 171 432 193.5 458 c 128,-1,11
 216 484 216 484 249 484 c 0,0,1
181 243 m 1,12,-1
 191 250 l 1,13,14
 213 261 213 261 236 261 c 0,15,16
 288 261 288 261 288 209 c 0,17,18
 288 165 288 165 263.5 129 c 128,-1,19
 239 93 239 93 192 48 c 0,20,21
 164 21 164 21 149.5 4.5 c 128,-1,22
 135 -12 135 -12 119 -41.5 c 128,-1,23
 103 -71 103 -71 103 -99 c 0,24,25
 103 -125 103 -125 117.5 -137.5 c 128,-1,26
 132 -150 132 -150 155 -150 c 0,27,28
 187 -150 187 -150 218.5 -128 c 128,-1,29
 250 -106 250 -106 261 -73 c 1,30,31
 328 -86 328 -86 328 -119 c 0,32,33
 328 -162 328 -162 277.5 -190 c 128,-1,34
 227 -218 227 -218 162 -218 c 0,35,36
 94 -218 94 -218 47 -187.5 c 128,-1,37
 0 -157 0 -157 0 -95 c 0,38,39
 0 -18 0 -18 103 73 c 0,40,41
 132 98 132 98 144.5 111 c 128,-1,42
 157 124 157 124 171 151 c 128,-1,43
 185 178 185 178 185 208 c 0,44,45
 185 226 185 226 181 243 c 1,12,-1
EndSplineSet
EndChar

StartChar: Agrave
Encoding: 192 192 127
Width: 541
GlyphClass: 2
Flags: W
LayerCount: 2
Fore
SplineSet
201 823 m 1,0,1
 174 840 174 840 174 866 c 0,2,3
 174 902 174 902 215 920 c 1,4,5
 260 863 260 863 361 790 c 0,6,7
 380 777 380 777 380 756 c 0,8,9
 380 731 380 731 361 714 c 1,10,11
 348 726 348 726 287 765 c 128,-1,12
 226 804 226 804 201 823 c 1,0,1
353 275 m 1,13,14
 322 406 322 406 308 514 c 1,15,16
 253 374 253 374 205 276 c 1,17,18
 259 274 259 274 294 274 c 0,19,20
 334 274 334 274 353 275 c 1,13,14
269 199 m 0,21,22
 246 199 246 199 170 201 c 1,23,24
 86 14 86 14 77 -13 c 1,25,26
 29 -9 29 -9 9.5 0.5 c 128,-1,27
 -10 10 -10 10 -10 29 c 0,28,29
 -10 45 -10 45 9.5 85.5 c 128,-1,30
 29 126 29 126 72 210.5 c 128,-1,31
 115 295 115 295 150 374 c 0,32,33
 157 390 157 390 183.5 446 c 128,-1,34
 210 502 210 502 230.5 550 c 128,-1,35
 251 598 251 598 271 656 c 1,36,37
 300 663 300 663 329 663 c 0,38,39
 356 663 356 663 369.5 652 c 128,-1,40
 383 641 383 641 389 610 c 0,41,42
 390 607 390 607 413.5 479.5 c 128,-1,43
 437 352 437 352 454 280 c 0,44,45
 498 87 498 87 525 10 c 1,46,47
 487 -10 487 -10 454 -10 c 0,48,49
 414 -10 414 -10 406 27 c 0,50,51
 375 173 375 173 370 201 c 1,52,53
 288 199 288 199 269 199 c 0,21,22
EndSplineSet
EndChar

StartChar: Aacute
Encoding: 193 193 128
Width: 541
GlyphClass: 2
Flags: W
LayerCount: 2
Fore
SplineSet
426 801 m 0,0,1
 401 787 401 787 335.5 757 c 128,-1,2
 270 727 270 727 255 715 c 1,3,4
 231 739 231 739 231 758 c 0,5,6
 231 778 231 778 254 790 c 1,7,8
 282 803 282 803 338.5 838 c 128,-1,9
 395 873 395 873 424 899 c 1,10,11
 457 882 457 882 457 848 c 0,12,13
 457 819 457 819 426 801 c 0,0,1
353 275 m 1,14,15
 322 406 322 406 308 514 c 1,16,17
 253 374 253 374 205 276 c 1,18,19
 259 274 259 274 294 274 c 0,20,21
 334 274 334 274 353 275 c 1,14,15
269 199 m 0,22,23
 246 199 246 199 170 201 c 1,24,25
 86 14 86 14 77 -13 c 1,26,27
 29 -9 29 -9 9.5 0.5 c 128,-1,28
 -10 10 -10 10 -10 29 c 0,29,30
 -10 45 -10 45 9.5 85.5 c 128,-1,31
 29 126 29 126 72 210.5 c 128,-1,32
 115 295 115 295 150 374 c 0,33,34
 157 390 157 390 183.5 446 c 128,-1,35
 210 502 210 502 230.5 550 c 128,-1,36
 251 598 251 598 271 656 c 1,37,38
 300 663 300 663 329 663 c 0,39,40
 356 663 356 663 369.5 652 c 128,-1,41
 383 641 383 641 389 610 c 0,42,43
 390 607 390 607 413.5 479.5 c 128,-1,44
 437 352 437 352 454 280 c 0,45,46
 498 87 498 87 525 10 c 1,47,48
 487 -10 487 -10 454 -10 c 0,49,50
 414 -10 414 -10 406 27 c 0,51,52
 375 173 375 173 370 201 c 1,53,54
 288 199 288 199 269 199 c 0,22,23
EndSplineSet
EndChar

StartChar: Acircumflex
Encoding: 194 194 129
Width: 541
GlyphClass: 2
Flags: W
LayerCount: 2
Fore
SplineSet
467 758 m 0,0,1
 467 727 467 727 424 709 c 1,2,3
 410 730 410 730 387.5 751.5 c 128,-1,4
 365 773 365 773 350 784 c 2,5,-1
 335 796 l 1,6,7
 238 721 238 721 210 721 c 0,8,9
 190 721 190 721 180 747 c 1,10,11
 276 845 276 845 349 892 c 1,12,13
 467 800 467 800 467 758 c 0,0,1
353 275 m 1,14,15
 322 406 322 406 308 514 c 1,16,17
 253 374 253 374 205 276 c 1,18,19
 259 274 259 274 294 274 c 0,20,21
 334 274 334 274 353 275 c 1,14,15
269 199 m 0,22,23
 246 199 246 199 170 201 c 1,24,25
 86 14 86 14 77 -13 c 1,26,27
 29 -9 29 -9 9.5 0.5 c 128,-1,28
 -10 10 -10 10 -10 29 c 0,29,30
 -10 45 -10 45 9.5 85.5 c 128,-1,31
 29 126 29 126 72 210.5 c 128,-1,32
 115 295 115 295 150 374 c 0,33,34
 157 390 157 390 183.5 446 c 128,-1,35
 210 502 210 502 230.5 550 c 128,-1,36
 251 598 251 598 271 656 c 1,37,38
 300 663 300 663 329 663 c 0,39,40
 356 663 356 663 369.5 652 c 128,-1,41
 383 641 383 641 389 610 c 0,42,43
 390 607 390 607 413.5 479.5 c 128,-1,44
 437 352 437 352 454 280 c 0,45,46
 498 87 498 87 525 10 c 1,47,48
 487 -10 487 -10 454 -10 c 0,49,50
 414 -10 414 -10 406 27 c 0,51,52
 375 173 375 173 370 201 c 1,53,54
 288 199 288 199 269 199 c 0,22,23
EndSplineSet
EndChar

StartChar: Atilde
Encoding: 195 195 130
Width: 541
GlyphClass: 2
Flags: W
LayerCount: 2
Fore
SplineSet
353 275 m 1,0,1
 322 406 322 406 308 514 c 1,2,3
 253 374 253 374 205 276 c 1,4,5
 259 274 259 274 294 274 c 0,6,7
 334 274 334 274 353 275 c 1,0,1
269 199 m 0,8,9
 246 199 246 199 170 201 c 1,10,11
 86 14 86 14 77 -13 c 1,12,13
 29 -9 29 -9 9.5 0.5 c 128,-1,14
 -10 10 -10 10 -10 29 c 0,15,16
 -10 45 -10 45 9.5 85.5 c 128,-1,17
 29 126 29 126 72 210.5 c 128,-1,18
 115 295 115 295 150 374 c 0,19,20
 157 390 157 390 183.5 446 c 128,-1,21
 210 502 210 502 230.5 550 c 128,-1,22
 251 598 251 598 271 656 c 1,23,24
 300 663 300 663 329 663 c 0,25,26
 356 663 356 663 369.5 652 c 128,-1,27
 383 641 383 641 389 610 c 0,28,29
 390 607 390 607 413.5 479.5 c 128,-1,30
 437 352 437 352 454 280 c 0,31,32
 498 87 498 87 525 10 c 1,33,34
 487 -10 487 -10 454 -10 c 0,35,36
 414 -10 414 -10 406 27 c 0,37,38
 375 173 375 173 370 201 c 1,39,40
 288 199 288 199 269 199 c 0,8,9
492 810 m 0,41,42
 492 777 492 777 451.5 748.5 c 128,-1,43
 411 720 411 720 373 720 c 0,44,45
 344 720 344 720 309.5 742 c 128,-1,46
 275 764 275 764 268 764 c 0,47,48
 253 764 253 764 210 718 c 1,49,50
 182 732 182 732 182 756 c 1,51,52
 186 785 186 785 223 811 c 128,-1,53
 260 837 260 837 301 837 c 0,54,55
 325 837 325 837 359.5 815 c 128,-1,56
 394 793 394 793 405 793 c 0,57,58
 423 793 423 793 462 838 c 1,59,60
 492 830 492 830 492 810 c 0,41,42
EndSplineSet
EndChar

StartChar: Adieresis
Encoding: 196 196 131
Width: 541
GlyphClass: 2
Flags: W
LayerCount: 2
Fore
SplineSet
353 275 m 1,0,1
 322 406 322 406 308 514 c 1,2,3
 253 374 253 374 205 276 c 1,4,5
 259 274 259 274 294 274 c 0,6,7
 334 274 334 274 353 275 c 1,0,1
269 199 m 0,8,9
 246 199 246 199 170 201 c 1,10,11
 86 14 86 14 77 -13 c 1,12,13
 29 -9 29 -9 9.5 0.5 c 128,-1,14
 -10 10 -10 10 -10 29 c 0,15,16
 -10 45 -10 45 9.5 85.5 c 128,-1,17
 29 126 29 126 72 210.5 c 128,-1,18
 115 295 115 295 150 374 c 0,19,20
 157 390 157 390 183.5 446 c 128,-1,21
 210 502 210 502 230.5 550 c 128,-1,22
 251 598 251 598 271 656 c 1,23,24
 300 663 300 663 329 663 c 0,25,26
 356 663 356 663 369.5 652 c 128,-1,27
 383 641 383 641 389 610 c 0,28,29
 390 607 390 607 413.5 479.5 c 128,-1,30
 437 352 437 352 454 280 c 0,31,32
 498 87 498 87 525 10 c 1,33,34
 487 -10 487 -10 454 -10 c 0,35,36
 414 -10 414 -10 406 27 c 0,37,38
 375 173 375 173 370 201 c 1,39,40
 288 199 288 199 269 199 c 0,8,9
401 721 m 0,41,42
 376 721 376 721 360.5 737.5 c 128,-1,43
 345 754 345 754 345 782 c 0,44,45
 345 814 345 814 367 837 c 128,-1,46
 389 860 389 860 418 860 c 0,47,48
 441 860 441 860 457.5 841.5 c 128,-1,49
 474 823 474 823 474 796 c 0,50,51
 474 765 474 765 450.5 743 c 128,-1,52
 427 721 427 721 401 721 c 0,41,42
228 721 m 0,53,54
 203 721 203 721 187.5 737.5 c 128,-1,55
 172 754 172 754 172 782 c 0,56,57
 172 814 172 814 194 837 c 128,-1,58
 216 860 216 860 245 860 c 0,59,60
 268 860 268 860 284.5 841.5 c 128,-1,61
 301 823 301 823 301 796 c 0,62,63
 301 765 301 765 277.5 743 c 128,-1,64
 254 721 254 721 228 721 c 0,53,54
EndSplineSet
EndChar

StartChar: Aring
Encoding: 197 197 132
Width: 541
GlyphClass: 2
Flags: W
LayerCount: 2
Fore
SplineSet
344 852 m 0,0,1
 324 852 324 852 311.5 836.5 c 128,-1,2
 299 821 299 821 299 798 c 0,3,4
 299 758 299 758 331 758 c 0,5,6
 350 758 350 758 362 774 c 128,-1,7
 374 790 374 790 374 812 c 0,8,9
 374 852 374 852 344 852 c 0,0,1
324 710 m 0,10,11
 288 710 288 710 265 732.5 c 128,-1,12
 242 755 242 755 242 789 c 0,13,14
 242 834 242 834 273 867 c 128,-1,15
 304 900 304 900 351 900 c 0,16,17
 388 900 388 900 410 879 c 128,-1,18
 432 858 432 858 432 822 c 0,19,20
 432 777 432 777 401.5 743.5 c 128,-1,21
 371 710 371 710 324 710 c 0,10,11
353 275 m 1,22,23
 322 406 322 406 308 514 c 1,24,25
 253 374 253 374 205 276 c 1,26,27
 259 274 259 274 294 274 c 0,28,29
 334 274 334 274 353 275 c 1,22,23
269 199 m 0,30,31
 246 199 246 199 170 201 c 1,32,33
 86 14 86 14 77 -13 c 1,34,35
 29 -9 29 -9 9.5 0.5 c 128,-1,36
 -10 10 -10 10 -10 29 c 0,37,38
 -10 45 -10 45 9.5 85.5 c 128,-1,39
 29 126 29 126 72 210.5 c 128,-1,40
 115 295 115 295 150 374 c 0,41,42
 157 390 157 390 183.5 446 c 128,-1,43
 210 502 210 502 230.5 550 c 128,-1,44
 251 598 251 598 271 656 c 1,45,46
 300 663 300 663 329 663 c 0,47,48
 356 663 356 663 369.5 652 c 128,-1,49
 383 641 383 641 389 610 c 0,50,51
 390 607 390 607 413.5 479.5 c 128,-1,52
 437 352 437 352 454 280 c 0,53,54
 498 87 498 87 525 10 c 1,55,56
 487 -10 487 -10 454 -10 c 0,57,58
 414 -10 414 -10 406 27 c 0,59,60
 375 173 375 173 370 201 c 1,61,62
 288 199 288 199 269 199 c 0,30,31
EndSplineSet
EndChar

StartChar: AE
Encoding: 198 198 133
Width: 738
GlyphClass: 2
Flags: W
LayerCount: 2
Fore
SplineSet
311 281 m 2,0,-1
 350 281 l 1,1,2
 374 451 374 451 383 551 c 1,3,4
 366 523 366 523 312.5 431.5 c 128,-1,5
 259 340 259 340 223 283 c 1,6,7
 279 281 279 281 311 281 c 2,0,-1
731 564 m 1,8,9
 689 585 689 585 583 585 c 0,10,11
 542 585 542 585 494 582 c 1,12,13
 492 534 492 534 472 394 c 1,14,15
 601 394 601 394 631 398 c 1,16,17
 633 384 633 384 633 370 c 0,18,19
 633 319 633 319 591 316 c 0,20,21
 569 315 569 315 461 315 c 1,22,23
 435 103 435 103 435 77 c 1,24,25
 461 75 461 75 485 75 c 0,26,27
 535 75 535 75 586 82 c 128,-1,28
 637 89 637 89 653 99 c 1,29,30
 666 63 666 63 666 40 c 0,31,32
 666 11 666 11 632.5 4 c 128,-1,33
 599 -3 599 -3 505 -3 c 0,34,35
 386 -3 386 -3 358 -1 c 0,36,37
 337 0 337 0 328.5 8.5 c 128,-1,38
 320 17 320 17 320 34 c 0,39,40
 320 67 320 67 339 207 c 1,41,-1
 271 207 l 2,42,43
 253 207 253 207 165 209 c 1,44,45
 54 28 54 28 36 -10 c 1,46,47
 3 -8 3 -8 -19.5 4 c 128,-1,48
 -42 16 -42 16 -42 36 c 0,49,50
 -42 50 -42 50 -32 64 c 0,51,52
 49 176 49 176 132 298 c 0,53,54
 275 508 275 508 354 654 c 1,55,56
 459 665 459 665 596 665 c 0,57,58
 732 665 732 665 748 650 c 1,59,60
 753 639 753 639 753 622 c 0,61,62
 753 592 753 592 731 564 c 1,8,9
EndSplineSet
EndChar

StartChar: Ccedilla
Encoding: 199 199 134
Width: 535
GlyphClass: 2
Flags: W
LayerCount: 2
Fore
SplineSet
423 150 m 1,0,1
 488 126 488 126 488 87 c 0,2,3
 488 51 488 51 435 22.5 c 128,-1,4
 382 -6 382 -6 307 -9 c 1,5,6
 297 -31 297 -31 297 -40 c 0,7,8
 297 -45 297 -45 314.5 -55.5 c 128,-1,9
 332 -66 332 -66 349 -85 c 128,-1,10
 366 -104 366 -104 366 -130 c 0,11,12
 366 -178 366 -178 318.5 -211 c 128,-1,13
 271 -244 271 -244 217 -244 c 0,14,15
 171 -244 171 -244 171 -217 c 0,16,17
 171 -197 171 -197 202 -170 c 1,18,19
 214 -184 214 -184 239 -184 c 0,20,21
 254 -184 254 -184 267 -175 c 128,-1,22
 280 -166 280 -166 280 -148 c 0,23,24
 280 -131 280 -131 252 -108.5 c 128,-1,25
 224 -86 224 -86 224 -67 c 0,26,27
 224 -41 224 -41 244 -6 c 1,28,29
 151 8 151 8 98.5 80 c 128,-1,30
 46 152 46 152 46 264 c 0,31,32
 46 445 46 445 142 559 c 128,-1,33
 238 673 238 673 390 673 c 0,34,35
 459 673 459 673 504.5 644.5 c 128,-1,36
 550 616 550 616 550 574 c 0,37,38
 550 543 550 543 526 523 c 128,-1,39
 502 503 502 503 464 498 c 1,40,41
 455 547 455 547 425 571.5 c 128,-1,42
 395 596 395 596 358 596 c 0,43,44
 272 596 272 596 217 503.5 c 128,-1,45
 162 411 162 411 162 290 c 0,46,47
 162 191 162 191 197.5 129 c 128,-1,48
 233 67 233 67 301 67 c 0,49,50
 376 67 376 67 423 150 c 1,0,1
EndSplineSet
EndChar

StartChar: Egrave
Encoding: 200 200 135
Width: 475
GlyphClass: 2
Flags: W
LayerCount: 2
Fore
SplineSet
197 823 m 1,0,1
 170 840 170 840 170 866 c 0,2,3
 170 902 170 902 211 920 c 1,4,5
 256 863 256 863 357 790 c 0,6,7
 376 777 376 777 376 756 c 0,8,9
 376 731 376 731 357 714 c 1,10,11
 344 726 344 726 283 765 c 128,-1,12
 222 804 222 804 197 823 c 1,0,1
468 564 m 1,13,14
 426 585 426 585 320 585 c 0,15,16
 279 585 279 585 231 582 c 1,17,18
 229 534 229 534 209 394 c 1,19,20
 338 394 338 394 368 398 c 1,21,22
 370 384 370 384 370 370 c 0,23,24
 370 319 370 319 328 316 c 0,25,26
 306 315 306 315 198 315 c 1,27,28
 172 103 172 103 172 77 c 1,29,30
 198 75 198 75 222 75 c 0,31,32
 272 75 272 75 323 82 c 128,-1,33
 374 89 374 89 390 99 c 1,34,35
 403 63 403 63 403 40 c 0,36,37
 403 11 403 11 369.5 4 c 128,-1,38
 336 -3 336 -3 242 -3 c 0,39,40
 123 -3 123 -3 95 -1 c 0,41,42
 74 0 74 0 65.5 8.5 c 128,-1,43
 57 17 57 17 57 34 c 0,44,45
 57 62 57 62 90.5 306 c 128,-1,46
 124 550 124 550 124 631 c 0,47,48
 124 649 124 649 123 656 c 1,49,50
 226 665 226 665 333 665 c 0,51,52
 469 665 469 665 485 650 c 1,53,54
 490 639 490 639 490 622 c 0,55,56
 490 592 490 592 468 564 c 1,13,14
EndSplineSet
EndChar

StartChar: Eacute
Encoding: 201 201 136
Width: 475
GlyphClass: 2
Flags: W
LayerCount: 2
Fore
SplineSet
435 801 m 0,0,1
 410 787 410 787 344.5 757 c 128,-1,2
 279 727 279 727 264 715 c 1,3,4
 240 739 240 739 240 758 c 0,5,6
 240 778 240 778 263 790 c 1,7,8
 291 803 291 803 347.5 838 c 128,-1,9
 404 873 404 873 433 899 c 1,10,11
 466 882 466 882 466 848 c 0,12,13
 466 819 466 819 435 801 c 0,0,1
468 564 m 1,14,15
 426 585 426 585 320 585 c 0,16,17
 279 585 279 585 231 582 c 1,18,19
 229 534 229 534 209 394 c 1,20,21
 338 394 338 394 368 398 c 1,22,23
 370 384 370 384 370 370 c 0,24,25
 370 319 370 319 328 316 c 0,26,27
 306 315 306 315 198 315 c 1,28,29
 172 103 172 103 172 77 c 1,30,31
 198 75 198 75 222 75 c 0,32,33
 272 75 272 75 323 82 c 128,-1,34
 374 89 374 89 390 99 c 1,35,36
 403 63 403 63 403 40 c 0,37,38
 403 11 403 11 369.5 4 c 128,-1,39
 336 -3 336 -3 242 -3 c 0,40,41
 123 -3 123 -3 95 -1 c 0,42,43
 74 0 74 0 65.5 8.5 c 128,-1,44
 57 17 57 17 57 34 c 0,45,46
 57 62 57 62 90.5 306 c 128,-1,47
 124 550 124 550 124 631 c 0,48,49
 124 649 124 649 123 656 c 1,50,51
 226 665 226 665 333 665 c 0,52,53
 469 665 469 665 485 650 c 1,54,55
 490 639 490 639 490 622 c 0,56,57
 490 592 490 592 468 564 c 1,14,15
EndSplineSet
EndChar

StartChar: Ecircumflex
Encoding: 202 202 137
Width: 475
GlyphClass: 2
Flags: W
LayerCount: 2
Fore
SplineSet
457 758 m 0,0,1
 457 727 457 727 414 709 c 1,2,3
 400 730 400 730 377.5 751.5 c 128,-1,4
 355 773 355 773 340 784 c 2,5,-1
 325 796 l 1,6,7
 228 721 228 721 200 721 c 0,8,9
 180 721 180 721 170 747 c 1,10,11
 266 845 266 845 339 892 c 1,12,13
 457 800 457 800 457 758 c 0,0,1
468 564 m 1,14,15
 426 585 426 585 320 585 c 0,16,17
 279 585 279 585 231 582 c 1,18,19
 229 534 229 534 209 394 c 1,20,21
 338 394 338 394 368 398 c 1,22,23
 370 384 370 384 370 370 c 0,24,25
 370 319 370 319 328 316 c 0,26,27
 306 315 306 315 198 315 c 1,28,29
 172 103 172 103 172 77 c 1,30,31
 198 75 198 75 222 75 c 0,32,33
 272 75 272 75 323 82 c 128,-1,34
 374 89 374 89 390 99 c 1,35,36
 403 63 403 63 403 40 c 0,37,38
 403 11 403 11 369.5 4 c 128,-1,39
 336 -3 336 -3 242 -3 c 0,40,41
 123 -3 123 -3 95 -1 c 0,42,43
 74 0 74 0 65.5 8.5 c 128,-1,44
 57 17 57 17 57 34 c 0,45,46
 57 62 57 62 90.5 306 c 128,-1,47
 124 550 124 550 124 631 c 0,48,49
 124 649 124 649 123 656 c 1,50,51
 226 665 226 665 333 665 c 0,52,53
 469 665 469 665 485 650 c 1,54,55
 490 639 490 639 490 622 c 0,56,57
 490 592 490 592 468 564 c 1,14,15
EndSplineSet
EndChar

StartChar: Edieresis
Encoding: 203 203 138
Width: 470
GlyphClass: 2
Flags: W
LayerCount: 2
Fore
SplineSet
463 564 m 1,0,1
 421 585 421 585 315 585 c 0,2,3
 279 585 279 585 231 582 c 1,4,5
 229 534 229 534 209 394 c 1,6,7
 338 394 338 394 368 398 c 1,8,9
 370 384 370 384 370 370 c 0,10,11
 370 319 370 319 328 316 c 0,12,13
 306 315 306 315 198 315 c 1,14,15
 172 103 172 103 172 77 c 1,16,17
 198 75 198 75 237 75 c 0,18,19
 287 75 287 75 338 82 c 128,-1,20
 389 89 389 89 405 99 c 1,21,22
 418 63 418 63 418 40 c 0,23,24
 418 11 418 11 384.5 4 c 128,-1,25
 351 -3 351 -3 257 -3 c 0,26,27
 123 -3 123 -3 95 -1 c 0,28,29
 74 0 74 0 65.5 8.5 c 128,-1,30
 57 17 57 17 57 34 c 0,31,32
 57 62 57 62 90.5 306 c 128,-1,33
 124 550 124 550 124 631 c 0,34,35
 124 649 124 649 123 656 c 1,36,37
 226 665 226 665 328 665 c 0,38,39
 464 665 464 665 480 650 c 1,40,41
 485 639 485 639 485 622 c 0,42,43
 485 592 485 592 463 564 c 1,0,1
409 721 m 0,44,45
 384 721 384 721 368.5 737.5 c 128,-1,46
 353 754 353 754 353 782 c 0,47,48
 353 814 353 814 375 837 c 128,-1,49
 397 860 397 860 426 860 c 0,50,51
 449 860 449 860 465.5 841.5 c 128,-1,52
 482 823 482 823 482 796 c 0,53,54
 482 765 482 765 458.5 743 c 128,-1,55
 435 721 435 721 409 721 c 0,44,45
236 721 m 0,56,57
 211 721 211 721 195.5 737.5 c 128,-1,58
 180 754 180 754 180 782 c 0,59,60
 180 814 180 814 202 837 c 128,-1,61
 224 860 224 860 253 860 c 0,62,63
 276 860 276 860 292.5 841.5 c 128,-1,64
 309 823 309 823 309 796 c 0,65,66
 309 765 309 765 285.5 743 c 128,-1,67
 262 721 262 721 236 721 c 0,56,57
EndSplineSet
EndChar

StartChar: Igrave
Encoding: 204 204 139
Width: 266
GlyphClass: 2
Flags: W
LayerCount: 2
Fore
SplineSet
67 823 m 1,0,1
 40 840 40 840 40 866 c 0,2,3
 40 902 40 902 81 920 c 1,4,5
 126 863 126 863 227 790 c 0,6,7
 246 777 246 777 246 756 c 0,8,9
 246 731 246 731 227 714 c 1,10,11
 214 726 214 726 153 765 c 128,-1,12
 92 804 92 804 67 823 c 1,0,1
130 663 m 1,13,14
 159 666 159 666 183 666 c 0,15,16
 243 666 243 666 243 623 c 0,17,18
 243 618 243 618 238.5 593 c 128,-1,19
 234 568 234 568 225.5 515 c 128,-1,20
 217 462 217 462 210 404 c 2,21,-1
 184 203 l 2,22,23
 172 115 172 115 172 66 c 0,24,25
 172 32 172 32 176 5 c 1,26,27
 141 -3 141 -3 116 -3 c 0,28,29
 57 -3 57 -3 57 49 c 0,30,31
 57 56 57 56 61.5 90 c 128,-1,32
 66 124 66 124 79.5 220.5 c 128,-1,33
 93 317 93 317 107 431 c 0,34,35
 126 581 126 581 130 663 c 1,13,14
EndSplineSet
EndChar

StartChar: Iacute
Encoding: 205 205 140
Width: 259
GlyphClass: 2
Flags: W
LayerCount: 2
Fore
SplineSet
302 801 m 0,0,1
 277 787 277 787 211.5 757 c 128,-1,2
 146 727 146 727 131 715 c 1,3,4
 107 739 107 739 107 758 c 0,5,6
 107 778 107 778 130 790 c 1,7,8
 158 803 158 803 214.5 838 c 128,-1,9
 271 873 271 873 300 899 c 1,10,11
 333 882 333 882 333 848 c 0,12,13
 333 819 333 819 302 801 c 0,0,1
130 663 m 1,14,15
 159 666 159 666 183 666 c 0,16,17
 243 666 243 666 243 623 c 0,18,19
 243 618 243 618 238.5 593 c 128,-1,20
 234 568 234 568 225.5 515 c 128,-1,21
 217 462 217 462 210 404 c 2,22,-1
 184 203 l 2,23,24
 172 115 172 115 172 66 c 0,25,26
 172 32 172 32 176 5 c 1,27,28
 141 -3 141 -3 116 -3 c 0,29,30
 57 -3 57 -3 57 49 c 0,31,32
 57 56 57 56 61.5 90 c 128,-1,33
 66 124 66 124 79.5 220.5 c 128,-1,34
 93 317 93 317 107 431 c 0,35,36
 126 581 126 581 130 663 c 1,14,15
EndSplineSet
EndChar

StartChar: Icircumflex
Encoding: 206 206 141
Width: 259
GlyphClass: 2
Flags: W
LayerCount: 2
Fore
SplineSet
334 758 m 0,0,1
 334 727 334 727 291 709 c 1,2,3
 277 730 277 730 254.5 751.5 c 128,-1,4
 232 773 232 773 217 784 c 2,5,-1
 202 796 l 1,6,7
 105 721 105 721 77 721 c 0,8,9
 57 721 57 721 47 747 c 1,10,11
 143 845 143 845 216 892 c 1,12,13
 334 800 334 800 334 758 c 0,0,1
130 663 m 1,14,15
 159 666 159 666 183 666 c 0,16,17
 243 666 243 666 243 623 c 0,18,19
 243 618 243 618 238.5 593 c 128,-1,20
 234 568 234 568 225.5 515 c 128,-1,21
 217 462 217 462 210 404 c 2,22,-1
 184 203 l 2,23,24
 172 115 172 115 172 66 c 0,25,26
 172 32 172 32 176 5 c 1,27,28
 141 -3 141 -3 116 -3 c 0,29,30
 57 -3 57 -3 57 49 c 0,31,32
 57 56 57 56 61.5 90 c 128,-1,33
 66 124 66 124 79.5 220.5 c 128,-1,34
 93 317 93 317 107 431 c 0,35,36
 126 581 126 581 130 663 c 1,14,15
EndSplineSet
EndChar

StartChar: Idieresis
Encoding: 207 207 142
Width: 259
GlyphClass: 2
Flags: W
LayerCount: 2
Fore
SplineSet
130 663 m 1,0,1
 159 666 159 666 183 666 c 0,2,3
 243 666 243 666 243 623 c 0,4,5
 243 618 243 618 238.5 593 c 128,-1,6
 234 568 234 568 225.5 515 c 128,-1,7
 217 462 217 462 210 404 c 2,8,-1
 184 203 l 2,9,10
 172 115 172 115 172 66 c 0,11,12
 172 32 172 32 176 5 c 1,13,14
 141 -3 141 -3 116 -3 c 0,15,16
 57 -3 57 -3 57 49 c 0,17,18
 57 56 57 56 61.5 90 c 128,-1,19
 66 124 66 124 79.5 220.5 c 128,-1,20
 93 317 93 317 107 431 c 0,21,22
 126 581 126 581 130 663 c 1,0,1
285 721 m 0,23,24
 260 721 260 721 244.5 737.5 c 128,-1,25
 229 754 229 754 229 782 c 0,26,27
 229 814 229 814 251 837 c 128,-1,28
 273 860 273 860 302 860 c 0,29,30
 325 860 325 860 341.5 841.5 c 128,-1,31
 358 823 358 823 358 796 c 0,32,33
 358 765 358 765 334.5 743 c 128,-1,34
 311 721 311 721 285 721 c 0,23,24
112 721 m 0,35,36
 87 721 87 721 71.5 737.5 c 128,-1,37
 56 754 56 754 56 782 c 0,38,39
 56 814 56 814 78 837 c 128,-1,40
 100 860 100 860 129 860 c 0,41,42
 152 860 152 860 168.5 841.5 c 128,-1,43
 185 823 185 823 185 796 c 0,44,45
 185 765 185 765 161.5 743 c 128,-1,46
 138 721 138 721 112 721 c 0,35,36
EndSplineSet
EndChar

StartChar: Eth
Encoding: 208 208 143
Width: 622
GlyphClass: 2
Flags: W
LayerCount: 2
Fore
SplineSet
239 315 m 2,0,-1
 225 315 l 1,1,2
 209 210 209 210 188 103 c 1,3,4
 224 67 224 67 285 67 c 0,5,6
 340 67 340 67 381 97.5 c 128,-1,7
 422 128 422 128 444 177 c 128,-1,8
 466 226 466 226 476.5 277 c 128,-1,9
 487 328 487 328 487 379 c 0,10,11
 487 487 487 487 440.5 541.5 c 128,-1,12
 394 596 394 596 308 596 c 0,13,14
 290 596 290 596 258 592 c 1,15,16
 251 508 251 508 236 394 c 1,17,18
 354 394 354 394 385 398 c 1,19,20
 387 380 387 380 387 371 c 0,21,22
 387 319 387 319 342 316 c 0,23,24
 321 315 321 315 239 315 c 2,0,-1
72 53 m 1,25,26
 98 171 98 171 119 315 c 1,27,28
 67 315 67 315 40 311 c 1,29,30
 38 329 38 329 38 338 c 0,31,32
 38 389 38 389 83 393 c 0,33,34
 93 394 93 394 130 394 c 1,35,36
 149 543 149 543 152 661 c 1,37,38
 209 673 209 673 301 673 c 0,39,40
 604 673 604 673 604 404 c 0,41,42
 604 296 604 296 565.5 203.5 c 128,-1,43
 527 111 527 111 447.5 50.5 c 128,-1,44
 368 -10 368 -10 263 -10 c 0,45,46
 135 -10 135 -10 72 53 c 1,25,26
EndSplineSet
EndChar

StartChar: Ntilde
Encoding: 209 209 144
Width: 596
GlyphClass: 2
Flags: W
LayerCount: 2
Fore
SplineSet
500 1 m 1,0,1
 480 -3 480 -3 455 -3 c 0,2,3
 405 -3 405 -3 394 24 c 0,4,5
 360 102 360 102 295 267.5 c 128,-1,6
 230 433 230 433 208 488 c 1,7,8
 203 452 203 452 192 368 c 128,-1,9
 181 284 181 284 175.5 238 c 128,-1,10
 170 192 170 192 164.5 138.5 c 128,-1,11
 159 85 159 85 159 59 c 0,12,13
 159 39 159 39 163 5 c 1,14,15
 139 -3 139 -3 113 -3 c 0,16,17
 81 -3 81 -3 69 6 c 128,-1,18
 57 15 57 15 57 35 c 0,19,20
 57 44 57 44 61.5 76 c 128,-1,21
 66 108 66 108 72.5 155 c 128,-1,22
 79 202 79 202 83 231 c 0,23,24
 90 286 90 286 99 355 c 128,-1,25
 108 424 108 424 112.5 459 c 128,-1,26
 117 494 117 494 120.5 533.5 c 128,-1,27
 124 573 124 573 124 604 c 0,28,29
 124 636 124 636 120 659 c 1,30,31
 145 667 145 667 180 667 c 0,32,33
 222 667 222 667 242 638 c 0,34,35
 277 586 277 586 331.5 462 c 128,-1,36
 386 338 386 338 431 211 c 1,37,-1
 457 431 l 2,38,39
 476 590 476 590 480 663 c 1,40,41
 501 666 501 666 523 666 c 0,42,43
 580 666 580 666 580 632 c 0,44,45
 580 625 580 625 574 592.5 c 128,-1,46
 568 560 568 560 559.5 505.5 c 128,-1,47
 551 451 551 451 545 404 c 0,48,49
 539 355 539 355 527 262.5 c 128,-1,50
 515 170 515 170 509 111.5 c 128,-1,51
 503 53 503 53 500 1 c 1,0,1
522 810 m 0,52,53
 522 777 522 777 481.5 748.5 c 128,-1,54
 441 720 441 720 403 720 c 0,55,56
 374 720 374 720 339.5 742 c 128,-1,57
 305 764 305 764 298 764 c 0,58,59
 283 764 283 764 240 718 c 1,60,61
 212 732 212 732 212 756 c 1,62,63
 216 785 216 785 253 811 c 128,-1,64
 290 837 290 837 331 837 c 0,65,66
 355 837 355 837 389.5 815 c 128,-1,67
 424 793 424 793 435 793 c 0,68,69
 453 793 453 793 492 838 c 1,70,71
 522 830 522 830 522 810 c 0,52,53
EndSplineSet
EndChar

StartChar: Ograve
Encoding: 210 210 145
Width: 645
GlyphClass: 2
Flags: W
LayerCount: 2
Fore
SplineSet
250 823 m 1,0,1
 223 840 223 840 223 866 c 0,2,3
 223 902 223 902 264 920 c 1,4,5
 309 863 309 863 410 790 c 0,6,7
 429 777 429 777 429 756 c 0,8,9
 429 731 429 731 410 714 c 1,10,11
 397 726 397 726 336 765 c 128,-1,12
 275 804 275 804 250 823 c 1,0,1
290 -10 m 0,13,14
 175 -10 175 -10 110.5 63.5 c 128,-1,15
 46 137 46 137 46 263 c 0,16,17
 46 438 46 438 139 556 c 128,-1,18
 232 674 232 674 379 674 c 0,19,20
 496 674 496 674 561.5 601.5 c 128,-1,21
 627 529 627 529 627 402 c 0,22,23
 627 230 627 230 534 110 c 128,-1,24
 441 -10 441 -10 290 -10 c 0,13,14
365 596 m 0,25,26
 272 596 272 596 217 507.5 c 128,-1,27
 162 419 162 419 162 290 c 0,28,29
 162 245 162 245 170 206 c 128,-1,30
 178 167 178 167 194 135 c 128,-1,31
 210 103 210 103 238.5 84.5 c 128,-1,32
 267 66 267 66 305 66 c 0,33,34
 370 66 370 66 417.5 111.5 c 128,-1,35
 465 157 465 157 487 226.5 c 128,-1,36
 509 296 509 296 509 378 c 0,37,38
 509 472 509 472 474 534 c 128,-1,39
 439 596 439 596 365 596 c 0,25,26
EndSplineSet
EndChar

StartChar: Oacute
Encoding: 211 211 146
Width: 645
GlyphClass: 2
Flags: W
LayerCount: 2
Fore
SplineSet
502 801 m 0,0,1
 477 787 477 787 411.5 757 c 128,-1,2
 346 727 346 727 331 715 c 1,3,4
 307 739 307 739 307 758 c 0,5,6
 307 778 307 778 330 790 c 1,7,8
 358 803 358 803 414.5 838 c 128,-1,9
 471 873 471 873 500 899 c 1,10,11
 533 882 533 882 533 848 c 0,12,13
 533 819 533 819 502 801 c 0,0,1
290 -10 m 0,14,15
 175 -10 175 -10 110.5 63.5 c 128,-1,16
 46 137 46 137 46 263 c 0,17,18
 46 438 46 438 139 556 c 128,-1,19
 232 674 232 674 379 674 c 0,20,21
 496 674 496 674 561.5 601.5 c 128,-1,22
 627 529 627 529 627 402 c 0,23,24
 627 230 627 230 534 110 c 128,-1,25
 441 -10 441 -10 290 -10 c 0,14,15
365 596 m 0,26,27
 272 596 272 596 217 507.5 c 128,-1,28
 162 419 162 419 162 290 c 0,29,30
 162 245 162 245 170 206 c 128,-1,31
 178 167 178 167 194 135 c 128,-1,32
 210 103 210 103 238.5 84.5 c 128,-1,33
 267 66 267 66 305 66 c 0,34,35
 370 66 370 66 417.5 111.5 c 128,-1,36
 465 157 465 157 487 226.5 c 128,-1,37
 509 296 509 296 509 378 c 0,38,39
 509 472 509 472 474 534 c 128,-1,40
 439 596 439 596 365 596 c 0,26,27
EndSplineSet
EndChar

StartChar: Ocircumflex
Encoding: 212 212 147
Width: 645
GlyphClass: 2
Flags: W
LayerCount: 2
Fore
SplineSet
523 758 m 0,0,1
 523 727 523 727 480 709 c 1,2,3
 466 730 466 730 443.5 751.5 c 128,-1,4
 421 773 421 773 406 784 c 2,5,-1
 391 796 l 1,6,7
 294 721 294 721 266 721 c 0,8,9
 246 721 246 721 236 747 c 1,10,11
 332 845 332 845 405 892 c 1,12,13
 523 800 523 800 523 758 c 0,0,1
290 -10 m 0,14,15
 175 -10 175 -10 110.5 63.5 c 128,-1,16
 46 137 46 137 46 263 c 0,17,18
 46 438 46 438 139 556 c 128,-1,19
 232 674 232 674 379 674 c 0,20,21
 496 674 496 674 561.5 601.5 c 128,-1,22
 627 529 627 529 627 402 c 0,23,24
 627 230 627 230 534 110 c 128,-1,25
 441 -10 441 -10 290 -10 c 0,14,15
365 596 m 0,26,27
 272 596 272 596 217 507.5 c 128,-1,28
 162 419 162 419 162 290 c 0,29,30
 162 245 162 245 170 206 c 128,-1,31
 178 167 178 167 194 135 c 128,-1,32
 210 103 210 103 238.5 84.5 c 128,-1,33
 267 66 267 66 305 66 c 0,34,35
 370 66 370 66 417.5 111.5 c 128,-1,36
 465 157 465 157 487 226.5 c 128,-1,37
 509 296 509 296 509 378 c 0,38,39
 509 472 509 472 474 534 c 128,-1,40
 439 596 439 596 365 596 c 0,26,27
EndSplineSet
EndChar

StartChar: Otilde
Encoding: 213 213 148
Width: 645
GlyphClass: 2
Flags: W
LayerCount: 2
Fore
SplineSet
290 -10 m 0,0,1
 175 -10 175 -10 110.5 63.5 c 128,-1,2
 46 137 46 137 46 263 c 0,3,4
 46 438 46 438 139 556 c 128,-1,5
 232 674 232 674 379 674 c 0,6,7
 496 674 496 674 561.5 601.5 c 128,-1,8
 627 529 627 529 627 402 c 0,9,10
 627 230 627 230 534 110 c 128,-1,11
 441 -10 441 -10 290 -10 c 0,0,1
365 596 m 0,12,13
 272 596 272 596 217 507.5 c 128,-1,14
 162 419 162 419 162 290 c 0,15,16
 162 245 162 245 170 206 c 128,-1,17
 178 167 178 167 194 135 c 128,-1,18
 210 103 210 103 238.5 84.5 c 128,-1,19
 267 66 267 66 305 66 c 0,20,21
 370 66 370 66 417.5 111.5 c 128,-1,22
 465 157 465 157 487 226.5 c 128,-1,23
 509 296 509 296 509 378 c 0,24,25
 509 472 509 472 474 534 c 128,-1,26
 439 596 439 596 365 596 c 0,12,13
541 810 m 0,27,28
 541 777 541 777 500.5 748.5 c 128,-1,29
 460 720 460 720 422 720 c 0,30,31
 393 720 393 720 358.5 742 c 128,-1,32
 324 764 324 764 317 764 c 0,33,34
 302 764 302 764 259 718 c 1,35,36
 231 732 231 732 231 756 c 1,37,38
 235 785 235 785 272 811 c 128,-1,39
 309 837 309 837 350 837 c 0,40,41
 374 837 374 837 408.5 815 c 128,-1,42
 443 793 443 793 454 793 c 0,43,44
 472 793 472 793 511 838 c 1,45,46
 541 830 541 830 541 810 c 0,27,28
EndSplineSet
EndChar

StartChar: Odieresis
Encoding: 214 214 149
Width: 645
GlyphClass: 2
Flags: W
LayerCount: 2
Fore
SplineSet
290 -10 m 0,0,1
 175 -10 175 -10 110.5 63.5 c 128,-1,2
 46 137 46 137 46 263 c 0,3,4
 46 438 46 438 139 556 c 128,-1,5
 232 674 232 674 379 674 c 0,6,7
 496 674 496 674 561.5 601.5 c 128,-1,8
 627 529 627 529 627 402 c 0,9,10
 627 230 627 230 534 110 c 128,-1,11
 441 -10 441 -10 290 -10 c 0,0,1
365 596 m 0,12,13
 272 596 272 596 217 507.5 c 128,-1,14
 162 419 162 419 162 290 c 0,15,16
 162 245 162 245 170 206 c 128,-1,17
 178 167 178 167 194 135 c 128,-1,18
 210 103 210 103 238.5 84.5 c 128,-1,19
 267 66 267 66 305 66 c 0,20,21
 370 66 370 66 417.5 111.5 c 128,-1,22
 465 157 465 157 487 226.5 c 128,-1,23
 509 296 509 296 509 378 c 0,24,25
 509 472 509 472 474 534 c 128,-1,26
 439 596 439 596 365 596 c 0,12,13
476 721 m 0,27,28
 451 721 451 721 435.5 737.5 c 128,-1,29
 420 754 420 754 420 782 c 0,30,31
 420 814 420 814 442 837 c 128,-1,32
 464 860 464 860 493 860 c 0,33,34
 516 860 516 860 532.5 841.5 c 128,-1,35
 549 823 549 823 549 796 c 0,36,37
 549 765 549 765 525.5 743 c 128,-1,38
 502 721 502 721 476 721 c 0,27,28
303 721 m 0,39,40
 278 721 278 721 262.5 737.5 c 128,-1,41
 247 754 247 754 247 782 c 0,42,43
 247 814 247 814 269 837 c 128,-1,44
 291 860 291 860 320 860 c 0,45,46
 343 860 343 860 359.5 841.5 c 128,-1,47
 376 823 376 823 376 796 c 0,48,49
 376 765 376 765 352.5 743 c 128,-1,50
 329 721 329 721 303 721 c 0,39,40
EndSplineSet
EndChar

StartChar: multiply
Encoding: 215 215 150
Width: 574
GlyphClass: 2
Flags: W
LayerCount: 2
Fore
SplineSet
431 470 m 1,0,1
 453 458 453 458 471.5 440 c 128,-1,2
 490 422 490 422 490 407 c 0,3,4
 490 393 490 393 475 378 c 0,5,6
 461 365 461 365 409 316 c 128,-1,7
 357 267 357 267 342 254 c 1,8,9
 444 152 444 152 504 104 c 1,10,11
 480 59 480 59 437 59 c 0,12,13
 414 59 414 59 403 70 c 0,14,15
 393 80 393 80 345.5 131.5 c 128,-1,16
 298 183 298 183 284 197 c 1,17,18
 205 119 205 119 137 37 c 1,19,20
 118 50 118 50 108 57.5 c 128,-1,21
 98 65 98 65 88.5 77.5 c 128,-1,22
 79 90 79 90 79 103 c 128,-1,23
 79 116 79 116 94 131 c 0,24,25
 106 144 106 144 228 255 c 1,26,27
 120 358 120 358 67 406 c 1,28,29
 96 452 96 452 133 452 c 0,30,31
 155 452 155 452 168 439 c 0,32,33
 184 423 184 423 285 312 c 1,34,35
 383 410 383 410 431 470 c 1,0,1
EndSplineSet
EndChar

StartChar: Oslash
Encoding: 216 216 151
Width: 645
GlyphClass: 2
Flags: W
LayerCount: 2
Fore
SplineSet
509 378 m 0,0,1
 509 438 509 438 494 488 c 1,2,3
 325 228 325 228 234 87 c 1,4,5
 265 66 265 66 305 66 c 0,6,7
 370 66 370 66 417.5 111.5 c 128,-1,8
 465 157 465 157 487 226.5 c 128,-1,9
 509 296 509 296 509 378 c 0,0,1
365 596 m 0,10,11
 272 596 272 596 217 507.5 c 128,-1,12
 162 419 162 419 162 290 c 0,13,14
 162 208 162 208 185 152 c 1,15,16
 422 516 422 516 451 562 c 1,17,18
 417 596 417 596 365 596 c 0,10,11
504 645 m 1,19,-1
 564 744 l 1,20,21
 591 742 591 742 609 732 c 128,-1,22
 627 722 627 722 627 706 c 0,23,24
 627 696 627 696 564 598 c 1,25,26
 627 526 627 526 627 402 c 0,27,28
 627 230 627 230 534 110 c 128,-1,29
 441 -10 441 -10 290 -10 c 0,30,31
 232 -10 232 -10 184 10 c 1,32,33
 141 -61 141 -61 129 -83 c 1,34,35
 100 -81 100 -81 83 -71 c 128,-1,36
 66 -61 66 -61 66 -45 c 0,37,38
 66 -42 66 -42 67 -38 c 128,-1,39
 68 -34 68 -34 70.5 -29 c 128,-1,40
 73 -24 73 -24 76 -19 c 128,-1,41
 79 -14 79 -14 84.5 -5.5 c 128,-1,42
 90 3 90 3 94.5 10 c 128,-1,43
 99 17 99 17 107.5 29.5 c 128,-1,44
 116 42 116 42 122 52 c 1,45,46
 46 125 46 125 46 263 c 0,47,48
 46 438 46 438 139 556 c 128,-1,49
 232 674 232 674 379 674 c 0,50,51
 451 674 451 674 504 645 c 1,19,-1
EndSplineSet
EndChar

StartChar: Ugrave
Encoding: 217 217 152
Width: 609
GlyphClass: 2
Flags: W
LayerCount: 2
Fore
SplineSet
248 823 m 1,0,1
 221 840 221 840 221 866 c 0,2,3
 221 902 221 902 262 920 c 1,4,5
 307 863 307 863 408 790 c 0,6,7
 427 777 427 777 427 756 c 0,8,9
 427 731 427 731 408 714 c 1,10,11
 395 726 395 726 334 765 c 128,-1,12
 273 804 273 804 248 823 c 1,0,1
438 290 m 1,13,14
 476 573 476 573 480 663 c 1,15,16
 508 666 508 666 533 666 c 0,17,18
 563 666 563 666 578 657 c 128,-1,19
 593 648 593 648 593 623 c 0,20,21
 593 620 593 620 586 579.5 c 128,-1,22
 579 539 579 539 564 436 c 128,-1,23
 549 333 549 333 534 203 c 0,24,25
 522 93 522 93 522 61 c 128,-1,26
 522 29 522 29 526 5 c 1,27,28
 488 -3 488 -3 463 -3 c 0,29,30
 407 -3 407 -3 407 49 c 0,31,32
 407 55 407 55 418 132 c 1,33,34
 377 64 377 64 321 27 c 128,-1,35
 265 -10 265 -10 211 -10 c 0,36,37
 146 -10 146 -10 110.5 38.5 c 128,-1,38
 75 87 75 87 75 157 c 0,39,40
 75 182 75 182 100 371.5 c 128,-1,41
 125 561 125 561 130 663 c 1,42,43
 157 666 157 666 181 666 c 0,44,45
 243 666 243 666 243 624 c 0,46,47
 243 621 243 621 239 597 c 128,-1,48
 235 573 235 573 227 525 c 128,-1,49
 219 477 219 477 212 429 c 0,50,51
 182 215 182 215 182 180 c 0,52,53
 182 137 182 137 198 107.5 c 128,-1,54
 214 78 214 78 248 78 c 0,55,56
 296 78 296 78 352.5 138.5 c 128,-1,57
 409 199 409 199 438 290 c 1,13,14
EndSplineSet
EndChar

StartChar: Uacute
Encoding: 218 218 153
Width: 609
GlyphClass: 2
Flags: W
LayerCount: 2
Fore
SplineSet
500 801 m 0,0,1
 475 787 475 787 409.5 757 c 128,-1,2
 344 727 344 727 329 715 c 1,3,4
 305 739 305 739 305 758 c 0,5,6
 305 778 305 778 328 790 c 1,7,8
 356 803 356 803 412.5 838 c 128,-1,9
 469 873 469 873 498 899 c 1,10,11
 531 882 531 882 531 848 c 0,12,13
 531 819 531 819 500 801 c 0,0,1
438 290 m 1,14,15
 476 573 476 573 480 663 c 1,16,17
 508 666 508 666 533 666 c 0,18,19
 563 666 563 666 578 657 c 128,-1,20
 593 648 593 648 593 623 c 0,21,22
 593 620 593 620 586 579.5 c 128,-1,23
 579 539 579 539 564 436 c 128,-1,24
 549 333 549 333 534 203 c 0,25,26
 522 93 522 93 522 61 c 128,-1,27
 522 29 522 29 526 5 c 1,28,29
 488 -3 488 -3 463 -3 c 0,30,31
 407 -3 407 -3 407 49 c 0,32,33
 407 55 407 55 418 132 c 1,34,35
 377 64 377 64 321 27 c 128,-1,36
 265 -10 265 -10 211 -10 c 0,37,38
 146 -10 146 -10 110.5 38.5 c 128,-1,39
 75 87 75 87 75 157 c 0,40,41
 75 182 75 182 100 371.5 c 128,-1,42
 125 561 125 561 130 663 c 1,43,44
 157 666 157 666 181 666 c 0,45,46
 243 666 243 666 243 624 c 0,47,48
 243 621 243 621 239 597 c 128,-1,49
 235 573 235 573 227 525 c 128,-1,50
 219 477 219 477 212 429 c 0,51,52
 182 215 182 215 182 180 c 0,53,54
 182 137 182 137 198 107.5 c 128,-1,55
 214 78 214 78 248 78 c 0,56,57
 296 78 296 78 352.5 138.5 c 128,-1,58
 409 199 409 199 438 290 c 1,14,15
EndSplineSet
EndChar

StartChar: Ucircumflex
Encoding: 219 219 154
Width: 609
GlyphClass: 2
Flags: W
LayerCount: 2
Fore
SplineSet
518 758 m 0,0,1
 518 727 518 727 475 709 c 1,2,3
 461 730 461 730 438.5 751.5 c 128,-1,4
 416 773 416 773 401 784 c 2,5,-1
 386 796 l 1,6,7
 289 721 289 721 261 721 c 0,8,9
 241 721 241 721 231 747 c 1,10,11
 327 845 327 845 400 892 c 1,12,13
 518 800 518 800 518 758 c 0,0,1
438 290 m 1,14,15
 476 573 476 573 480 663 c 1,16,17
 508 666 508 666 533 666 c 0,18,19
 563 666 563 666 578 657 c 128,-1,20
 593 648 593 648 593 623 c 0,21,22
 593 620 593 620 586 579.5 c 128,-1,23
 579 539 579 539 564 436 c 128,-1,24
 549 333 549 333 534 203 c 0,25,26
 522 93 522 93 522 61 c 128,-1,27
 522 29 522 29 526 5 c 1,28,29
 488 -3 488 -3 463 -3 c 0,30,31
 407 -3 407 -3 407 49 c 0,32,33
 407 55 407 55 418 132 c 1,34,35
 377 64 377 64 321 27 c 128,-1,36
 265 -10 265 -10 211 -10 c 0,37,38
 146 -10 146 -10 110.5 38.5 c 128,-1,39
 75 87 75 87 75 157 c 0,40,41
 75 182 75 182 100 371.5 c 128,-1,42
 125 561 125 561 130 663 c 1,43,44
 157 666 157 666 181 666 c 0,45,46
 243 666 243 666 243 624 c 0,47,48
 243 621 243 621 239 597 c 128,-1,49
 235 573 235 573 227 525 c 128,-1,50
 219 477 219 477 212 429 c 0,51,52
 182 215 182 215 182 180 c 0,53,54
 182 137 182 137 198 107.5 c 128,-1,55
 214 78 214 78 248 78 c 0,56,57
 296 78 296 78 352.5 138.5 c 128,-1,58
 409 199 409 199 438 290 c 1,14,15
EndSplineSet
EndChar

StartChar: Udieresis
Encoding: 220 220 155
Width: 609
GlyphClass: 2
Flags: W
LayerCount: 2
Fore
SplineSet
438 290 m 1,0,1
 476 573 476 573 480 663 c 1,2,3
 508 666 508 666 533 666 c 0,4,5
 563 666 563 666 578 657 c 128,-1,6
 593 648 593 648 593 623 c 0,7,8
 593 620 593 620 586 579.5 c 128,-1,9
 579 539 579 539 564 436 c 128,-1,10
 549 333 549 333 534 203 c 0,11,12
 522 93 522 93 522 61 c 128,-1,13
 522 29 522 29 526 5 c 1,14,15
 488 -3 488 -3 463 -3 c 0,16,17
 407 -3 407 -3 407 49 c 0,18,19
 407 55 407 55 418 132 c 1,20,21
 377 64 377 64 321 27 c 128,-1,22
 265 -10 265 -10 211 -10 c 0,23,24
 146 -10 146 -10 110.5 38.5 c 128,-1,25
 75 87 75 87 75 157 c 0,26,27
 75 182 75 182 100 371.5 c 128,-1,28
 125 561 125 561 130 663 c 1,29,30
 157 666 157 666 181 666 c 0,31,32
 243 666 243 666 243 624 c 0,33,34
 243 621 243 621 239 597 c 128,-1,35
 235 573 235 573 227 525 c 128,-1,36
 219 477 219 477 212 429 c 0,37,38
 182 215 182 215 182 180 c 0,39,40
 182 137 182 137 198 107.5 c 128,-1,41
 214 78 214 78 248 78 c 0,42,43
 296 78 296 78 352.5 138.5 c 128,-1,44
 409 199 409 199 438 290 c 1,0,1
469 721 m 0,45,46
 444 721 444 721 428.5 737.5 c 128,-1,47
 413 754 413 754 413 782 c 0,48,49
 413 814 413 814 435 837 c 128,-1,50
 457 860 457 860 486 860 c 0,51,52
 509 860 509 860 525.5 841.5 c 128,-1,53
 542 823 542 823 542 796 c 0,54,55
 542 765 542 765 518.5 743 c 128,-1,56
 495 721 495 721 469 721 c 0,45,46
296 721 m 0,57,58
 271 721 271 721 255.5 737.5 c 128,-1,59
 240 754 240 754 240 782 c 0,60,61
 240 814 240 814 262 837 c 128,-1,62
 284 860 284 860 313 860 c 0,63,64
 336 860 336 860 352.5 841.5 c 128,-1,65
 369 823 369 823 369 796 c 0,66,67
 369 765 369 765 345.5 743 c 128,-1,68
 322 721 322 721 296 721 c 0,57,58
EndSplineSet
EndChar

StartChar: Yacute
Encoding: 221 221 156
Width: 468
GlyphClass: 2
Flags: W
LayerCount: 2
Fore
SplineSet
426 801 m 0,0,1
 401 787 401 787 335.5 757 c 128,-1,2
 270 727 270 727 255 715 c 1,3,4
 231 739 231 739 231 758 c 0,5,6
 231 778 231 778 254 790 c 1,7,8
 282 803 282 803 338.5 838 c 128,-1,9
 395 873 395 873 424 899 c 1,10,11
 457 882 457 882 457 848 c 0,12,13
 457 819 457 819 426 801 c 0,0,1
521 620 m 0,14,15
 521 587 521 587 341 356 c 0,16,17
 317 325 317 325 305 309 c 1,18,-1
 291 203 l 2,19,20
 279 115 279 115 279 66 c 0,21,22
 279 32 279 32 283 5 c 1,23,24
 248 -3 248 -3 223 -3 c 0,25,26
 164 -3 164 -3 164 49 c 0,27,28
 164 55 164 55 167 78.5 c 128,-1,29
 170 102 170 102 179.5 171.5 c 128,-1,30
 189 241 189 241 199 313 c 1,31,32
 106 569 106 569 47 619 c 1,33,34
 93 667 93 667 128 667 c 0,35,36
 164 667 164 667 181 633 c 0,37,38
 237 518 237 518 275 395 c 1,39,40
 413 614 413 614 424 672 c 1,41,42
 521 672 521 672 521 620 c 0,14,15
EndSplineSet
EndChar

StartChar: Thorn
Encoding: 222 222 157
Width: 491
GlyphClass: 2
Flags: W
LayerCount: 2
Fore
SplineSet
224 559 m 1,0,1
 232 560 232 560 250 560 c 0,2,3
 481 560 481 560 481 380 c 0,4,5
 481 261 481 261 416 191.5 c 128,-1,6
 351 122 351 122 268 122 c 0,7,8
 208 122 208 122 170 154 c 1,9,10
 164 100 164 100 164 60 c 0,11,12
 164 28 164 28 168 4 c 1,13,14
 144 -4 144 -4 104 -4 c 0,15,16
 48 -4 48 -4 48 38 c 0,17,18
 48 47 48 47 52.5 79 c 128,-1,19
 57 111 57 111 64 156 c 128,-1,20
 71 201 71 201 74 230 c 2,21,-1
 99 454 l 2,22,23
 119 630 119 630 119 663 c 1,24,25
 141 666 141 666 176 666 c 0,26,27
 234 666 234 666 234 633 c 0,28,29
 234 625 234 625 224 559 c 1,0,1
212 479 m 1,30,-1
 179 224 l 1,31,32
 209 199 209 199 244 199 c 0,33,34
 304 199 304 199 335 248 c 128,-1,35
 366 297 366 297 366 374 c 0,36,37
 366 436 366 436 338.5 459.5 c 128,-1,38
 311 483 311 483 260 483 c 0,39,40
 235 483 235 483 212 479 c 1,30,-1
EndSplineSet
EndChar

StartChar: germandbls
Encoding: 223 223 158
Width: 512
GlyphClass: 2
Flags: W
LayerCount: 2
Fore
SplineSet
260 127 m 1,0,1
 261 95 261 95 277.5 78 c 128,-1,2
 294 61 294 61 315 61 c 0,3,4
 338 61 338 61 353.5 82.5 c 128,-1,5
 369 104 369 104 369 135 c 0,6,7
 369 167 369 167 346.5 195 c 128,-1,8
 324 223 324 223 297 240.5 c 128,-1,9
 270 258 270 258 247.5 286.5 c 128,-1,10
 225 315 225 315 225 348 c 0,11,12
 225 372 225 372 238.5 392.5 c 128,-1,13
 252 413 252 413 271 428 c 128,-1,14
 290 443 290 443 308.5 458.5 c 128,-1,15
 327 474 327 474 340.5 496 c 128,-1,16
 354 518 354 518 354 545 c 128,-1,17
 354 572 354 572 340.5 587 c 128,-1,18
 327 602 327 602 305 602 c 0,19,20
 268 602 268 602 232 573.5 c 128,-1,21
 196 545 196 545 190 483 c 0,22,23
 150 87 150 87 121 -31 c 0,24,25
 112 -68 112 -68 89 -97.5 c 128,-1,26
 66 -127 66 -127 31 -127 c 0,27,28
 -13 -127 -13 -127 -28 -79 c 1,29,30
 8 -69 8 -69 36 45.5 c 128,-1,31
 64 160 64 160 92 451 c 0,32,33
 102 554 102 554 176.5 613.5 c 128,-1,34
 251 673 251 673 328 673 c 0,35,36
 385 673 385 673 422.5 648 c 128,-1,37
 460 623 460 623 460 578 c 0,38,39
 460 538 460 538 445.5 507.5 c 128,-1,40
 431 477 431 477 410.5 459.5 c 128,-1,41
 390 442 390 442 369.5 427.5 c 128,-1,42
 349 413 349 413 334.5 397 c 128,-1,43
 320 381 320 381 320 362 c 0,44,45
 320 344 320 344 336 325.5 c 128,-1,46
 352 307 352 307 374.5 289 c 128,-1,47
 397 271 397 271 419.5 251 c 128,-1,48
 442 231 442 231 458 202.5 c 128,-1,49
 474 174 474 174 474 141 c 0,50,51
 474 82 474 82 422.5 36 c 128,-1,52
 371 -10 371 -10 303 -10 c 0,53,54
 257 -10 257 -10 223 10.5 c 128,-1,55
 189 31 189 31 189 62 c 0,56,57
 189 111 189 111 260 127 c 1,0,1
EndSplineSet
EndChar

StartChar: agrave
Encoding: 224 224 159
Width: 516
GlyphClass: 2
Flags: W
LayerCount: 2
Fore
SplineSet
162 633 m 1,0,1
 135 650 135 650 135 676 c 0,2,3
 135 712 135 712 176 730 c 1,4,5
 221 673 221 673 322 600 c 0,6,7
 341 587 341 587 341 566 c 0,8,9
 341 541 341 541 322 524 c 1,10,11
 309 536 309 536 248 575 c 128,-1,12
 187 614 187 614 162 633 c 1,0,1
318 94 m 1,13,14
 249 -10 249 -10 165 -10 c 0,15,16
 108 -10 108 -10 72.5 36 c 128,-1,17
 37 82 37 82 37 170 c 0,18,19
 37 299 37 299 106.5 391.5 c 128,-1,20
 176 484 176 484 277 484 c 0,21,22
 387 484 387 484 472 427 c 1,23,24
 423 203 423 203 423 116 c 0,25,26
 423 69 423 69 461 52 c 1,27,28
 457 29 457 29 438.5 9.5 c 128,-1,29
 420 -10 420 -10 388 -10 c 0,30,31
 355 -10 355 -10 336 14 c 128,-1,32
 317 38 317 38 317 75 c 0,33,34
 317 88 317 88 318 94 c 1,13,14
329 206 m 1,35,-1
 356 376 l 1,36,37
 317 418 317 418 276 418 c 0,38,39
 226 418 226 418 193 354.5 c 128,-1,40
 160 291 160 291 160 191 c 0,41,42
 160 137 160 137 176.5 101.5 c 128,-1,43
 193 66 193 66 220 66 c 0,44,45
 244 66 244 66 275 105.5 c 128,-1,46
 306 145 306 145 329 206 c 1,35,-1
EndSplineSet
EndChar

StartChar: aacute
Encoding: 225 225 160
Width: 516
GlyphClass: 2
Flags: W
LayerCount: 2
Fore
SplineSet
416 611 m 0,0,1
 391 597 391 597 325.5 567 c 128,-1,2
 260 537 260 537 245 525 c 1,3,4
 221 549 221 549 221 568 c 0,5,6
 221 588 221 588 244 600 c 1,7,8
 272 613 272 613 328.5 648 c 128,-1,9
 385 683 385 683 414 709 c 1,10,11
 447 692 447 692 447 658 c 0,12,13
 447 629 447 629 416 611 c 0,0,1
318 94 m 1,14,15
 249 -10 249 -10 165 -10 c 0,16,17
 108 -10 108 -10 72.5 36 c 128,-1,18
 37 82 37 82 37 170 c 0,19,20
 37 299 37 299 106.5 391.5 c 128,-1,21
 176 484 176 484 277 484 c 0,22,23
 387 484 387 484 472 427 c 1,24,25
 423 203 423 203 423 116 c 0,26,27
 423 69 423 69 461 52 c 1,28,29
 457 29 457 29 438.5 9.5 c 128,-1,30
 420 -10 420 -10 388 -10 c 0,31,32
 355 -10 355 -10 336 14 c 128,-1,33
 317 38 317 38 317 75 c 0,34,35
 317 88 317 88 318 94 c 1,14,15
329 206 m 1,36,-1
 356 376 l 1,37,38
 317 418 317 418 276 418 c 0,39,40
 226 418 226 418 193 354.5 c 128,-1,41
 160 291 160 291 160 191 c 0,42,43
 160 137 160 137 176.5 101.5 c 128,-1,44
 193 66 193 66 220 66 c 0,45,46
 244 66 244 66 275 105.5 c 128,-1,47
 306 145 306 145 329 206 c 1,36,-1
EndSplineSet
EndChar

StartChar: acircumflex
Encoding: 226 226 161
Width: 516
GlyphClass: 2
Flags: W
LayerCount: 2
Fore
SplineSet
432 568 m 0,0,1
 432 537 432 537 389 519 c 1,2,3
 375 540 375 540 352.5 561.5 c 128,-1,4
 330 583 330 583 315 594 c 2,5,-1
 300 606 l 1,6,7
 203 531 203 531 175 531 c 0,8,9
 155 531 155 531 145 557 c 1,10,11
 241 655 241 655 314 702 c 1,12,13
 432 610 432 610 432 568 c 0,0,1
318 94 m 1,14,15
 249 -10 249 -10 165 -10 c 0,16,17
 108 -10 108 -10 72.5 36 c 128,-1,18
 37 82 37 82 37 170 c 0,19,20
 37 299 37 299 106.5 391.5 c 128,-1,21
 176 484 176 484 277 484 c 0,22,23
 387 484 387 484 472 427 c 1,24,25
 423 203 423 203 423 116 c 0,26,27
 423 69 423 69 461 52 c 1,28,29
 457 29 457 29 438.5 9.5 c 128,-1,30
 420 -10 420 -10 388 -10 c 0,31,32
 355 -10 355 -10 336 14 c 128,-1,33
 317 38 317 38 317 75 c 0,34,35
 317 88 317 88 318 94 c 1,14,15
329 206 m 1,36,-1
 356 376 l 1,37,38
 317 418 317 418 276 418 c 0,39,40
 226 418 226 418 193 354.5 c 128,-1,41
 160 291 160 291 160 191 c 0,42,43
 160 137 160 137 176.5 101.5 c 128,-1,44
 193 66 193 66 220 66 c 0,45,46
 244 66 244 66 275 105.5 c 128,-1,47
 306 145 306 145 329 206 c 1,36,-1
EndSplineSet
EndChar

StartChar: atilde
Encoding: 227 227 162
Width: 516
GlyphClass: 2
Flags: W
LayerCount: 2
Fore
SplineSet
318 94 m 1,0,1
 249 -10 249 -10 165 -10 c 0,2,3
 108 -10 108 -10 72.5 36 c 128,-1,4
 37 82 37 82 37 170 c 0,5,6
 37 299 37 299 106.5 391.5 c 128,-1,7
 176 484 176 484 277 484 c 0,8,9
 387 484 387 484 472 427 c 1,10,11
 423 203 423 203 423 116 c 0,12,13
 423 69 423 69 461 52 c 1,14,15
 457 29 457 29 438.5 9.5 c 128,-1,16
 420 -10 420 -10 388 -10 c 0,17,18
 355 -10 355 -10 336 14 c 128,-1,19
 317 38 317 38 317 75 c 0,20,21
 317 88 317 88 318 94 c 1,0,1
329 206 m 1,22,-1
 356 376 l 1,23,24
 317 418 317 418 276 418 c 0,25,26
 226 418 226 418 193 354.5 c 128,-1,27
 160 291 160 291 160 191 c 0,28,29
 160 137 160 137 176.5 101.5 c 128,-1,30
 193 66 193 66 220 66 c 0,31,32
 244 66 244 66 275 105.5 c 128,-1,33
 306 145 306 145 329 206 c 1,22,-1
451 620 m 0,34,35
 451 587 451 587 410.5 558.5 c 128,-1,36
 370 530 370 530 332 530 c 0,37,38
 303 530 303 530 268.5 552 c 128,-1,39
 234 574 234 574 227 574 c 0,40,41
 212 574 212 574 169 528 c 1,42,43
 141 542 141 542 141 566 c 1,44,45
 145 595 145 595 182 621 c 128,-1,46
 219 647 219 647 260 647 c 0,47,48
 284 647 284 647 318.5 625 c 128,-1,49
 353 603 353 603 364 603 c 0,50,51
 382 603 382 603 421 648 c 1,52,53
 451 640 451 640 451 620 c 0,34,35
EndSplineSet
EndChar

StartChar: adieresis
Encoding: 228 228 163
Width: 516
GlyphClass: 2
Flags: W
LayerCount: 2
Fore
SplineSet
318 94 m 1,0,1
 249 -10 249 -10 165 -10 c 0,2,3
 108 -10 108 -10 72.5 36 c 128,-1,4
 37 82 37 82 37 170 c 0,5,6
 37 299 37 299 106.5 391.5 c 128,-1,7
 176 484 176 484 277 484 c 0,8,9
 387 484 387 484 472 427 c 1,10,11
 423 203 423 203 423 116 c 0,12,13
 423 69 423 69 461 52 c 1,14,15
 457 29 457 29 438.5 9.5 c 128,-1,16
 420 -10 420 -10 388 -10 c 0,17,18
 355 -10 355 -10 336 14 c 128,-1,19
 317 38 317 38 317 75 c 0,20,21
 317 88 317 88 318 94 c 1,0,1
329 206 m 1,22,-1
 356 376 l 1,23,24
 317 418 317 418 276 418 c 0,25,26
 226 418 226 418 193 354.5 c 128,-1,27
 160 291 160 291 160 191 c 0,28,29
 160 137 160 137 176.5 101.5 c 128,-1,30
 193 66 193 66 220 66 c 0,31,32
 244 66 244 66 275 105.5 c 128,-1,33
 306 145 306 145 329 206 c 1,22,-1
385 531 m 0,34,35
 360 531 360 531 344.5 547.5 c 128,-1,36
 329 564 329 564 329 592 c 0,37,38
 329 624 329 624 351 647 c 128,-1,39
 373 670 373 670 402 670 c 0,40,41
 425 670 425 670 441.5 651.5 c 128,-1,42
 458 633 458 633 458 606 c 0,43,44
 458 575 458 575 434.5 553 c 128,-1,45
 411 531 411 531 385 531 c 0,34,35
212 531 m 0,46,47
 187 531 187 531 171.5 547.5 c 128,-1,48
 156 564 156 564 156 592 c 0,49,50
 156 624 156 624 178 647 c 128,-1,51
 200 670 200 670 229 670 c 0,52,53
 252 670 252 670 268.5 651.5 c 128,-1,54
 285 633 285 633 285 606 c 0,55,56
 285 575 285 575 261.5 553 c 128,-1,57
 238 531 238 531 212 531 c 0,46,47
EndSplineSet
EndChar

StartChar: aring
Encoding: 229 229 164
Width: 516
GlyphClass: 2
Flags: W
LayerCount: 2
Fore
SplineSet
325 662 m 0,0,1
 305 662 305 662 292.5 646.5 c 128,-1,2
 280 631 280 631 280 608 c 0,3,4
 280 568 280 568 312 568 c 0,5,6
 331 568 331 568 343 584 c 128,-1,7
 355 600 355 600 355 622 c 0,8,9
 355 662 355 662 325 662 c 0,0,1
305 520 m 0,10,11
 269 520 269 520 246 542.5 c 128,-1,12
 223 565 223 565 223 599 c 0,13,14
 223 644 223 644 254 677 c 128,-1,15
 285 710 285 710 332 710 c 0,16,17
 369 710 369 710 391 689 c 128,-1,18
 413 668 413 668 413 632 c 0,19,20
 413 587 413 587 382.5 553.5 c 128,-1,21
 352 520 352 520 305 520 c 0,10,11
318 94 m 1,22,23
 249 -10 249 -10 165 -10 c 0,24,25
 108 -10 108 -10 72.5 36 c 128,-1,26
 37 82 37 82 37 170 c 0,27,28
 37 299 37 299 106.5 391.5 c 128,-1,29
 176 484 176 484 277 484 c 0,30,31
 387 484 387 484 472 427 c 1,32,33
 423 203 423 203 423 116 c 0,34,35
 423 69 423 69 461 52 c 1,36,37
 457 29 457 29 438.5 9.5 c 128,-1,38
 420 -10 420 -10 388 -10 c 0,39,40
 355 -10 355 -10 336 14 c 128,-1,41
 317 38 317 38 317 75 c 0,42,43
 317 88 317 88 318 94 c 1,22,23
329 206 m 1,44,-1
 356 376 l 1,45,46
 317 418 317 418 276 418 c 0,47,48
 226 418 226 418 193 354.5 c 128,-1,49
 160 291 160 291 160 191 c 0,50,51
 160 137 160 137 176.5 101.5 c 128,-1,52
 193 66 193 66 220 66 c 0,53,54
 244 66 244 66 275 105.5 c 128,-1,55
 306 145 306 145 329 206 c 1,44,-1
EndSplineSet
EndChar

StartChar: ae
Encoding: 230 230 165
Width: 721
GlyphClass: 2
Flags: W
LayerCount: 2
Fore
SplineSet
569 358 m 0,0,1
 569 384 569 384 556.5 401.5 c 128,-1,2
 544 419 544 419 524 419 c 0,3,4
 487 419 487 419 459 366.5 c 128,-1,5
 431 314 431 314 425 236 c 1,6,7
 444 236 444 236 457.5 237.5 c 128,-1,8
 471 239 471 239 494 246 c 128,-1,9
 517 253 517 253 531.5 265 c 128,-1,10
 546 277 546 277 557.5 301 c 128,-1,11
 569 325 569 325 569 358 c 0,0,1
300 183 m 0,12,13
 300 294 300 294 356 376 c 1,14,15
 317 418 317 418 276 418 c 0,16,17
 226 418 226 418 193 354.5 c 128,-1,18
 160 291 160 291 160 191 c 0,19,20
 160 137 160 137 176.5 101.5 c 128,-1,21
 193 66 193 66 220 66 c 0,22,23
 237 66 237 66 259.5 88 c 128,-1,24
 282 110 282 110 302 147 c 1,25,26
 300 169 300 169 300 183 c 0,12,13
424 179 m 1,27,28
 425 117 425 117 448.5 86.5 c 128,-1,29
 472 56 472 56 506 56 c 0,30,31
 534 56 534 56 561 75 c 128,-1,32
 588 94 588 94 605 126 c 1,33,34
 653 107 653 107 653 67 c 0,35,36
 653 36 653 36 606 13 c 128,-1,37
 559 -10 559 -10 498 -10 c 0,38,39
 438 -10 438 -10 389 15 c 128,-1,40
 340 40 340 40 317 93 c 1,41,42
 248 -10 248 -10 165 -10 c 0,43,44
 108 -10 108 -10 72.5 36 c 128,-1,45
 37 82 37 82 37 170 c 0,46,47
 37 299 37 299 106.5 391.5 c 128,-1,48
 176 484 176 484 277 484 c 0,49,50
 375 484 375 484 435 438 c 1,51,52
 485 484 485 484 558 484 c 0,53,54
 625 484 625 484 659 449.5 c 128,-1,55
 693 415 693 415 693 363 c 0,56,57
 693 313 693 313 664 266.5 c 128,-1,58
 635 220 635 220 586 200 c 0,59,60
 532 177 532 177 457 177 c 0,61,62
 442 177 442 177 424 179 c 1,27,28
EndSplineSet
EndChar

StartChar: ccedilla
Encoding: 231 231 166
Width: 431
GlyphClass: 2
Flags: W
LayerCount: 2
Fore
SplineSet
339 337 m 1,0,1
 318 413 318 413 266 413 c 128,-1,2
 214 413 214 413 182 348.5 c 128,-1,3
 150 284 150 284 150 195 c 0,4,5
 150 125 150 125 173 90.5 c 128,-1,6
 196 56 196 56 233 56 c 0,7,8
 293 56 293 56 332 126 c 1,9,10
 380 107 380 107 380 67 c 0,11,12
 380 37 380 37 335.5 14.5 c 128,-1,13
 291 -8 291 -8 235 -10 c 1,14,15
 225 -28 225 -28 225 -40 c 0,16,17
 225 -45 225 -45 242.5 -55.5 c 128,-1,18
 260 -66 260 -66 277 -85 c 128,-1,19
 294 -104 294 -104 294 -130 c 0,20,21
 294 -178 294 -178 246.5 -211 c 128,-1,22
 199 -244 199 -244 145 -244 c 0,23,24
 99 -244 99 -244 99 -217 c 0,25,26
 99 -197 99 -197 130 -170 c 1,27,28
 142 -184 142 -184 167 -184 c 0,29,30
 182 -184 182 -184 195 -175 c 128,-1,31
 208 -166 208 -166 208 -148 c 0,32,33
 208 -131 208 -131 180 -108.5 c 128,-1,34
 152 -86 152 -86 152 -67 c 0,35,36
 152 -42 152 -42 173 -5 c 1,37,38
 105 9 105 9 66 57.5 c 128,-1,39
 27 106 27 106 27 180 c 128,-1,40
 27 254 27 254 50 314 c 128,-1,41
 73 374 73 374 111 410 c 128,-1,42
 149 446 149 446 193 465 c 128,-1,43
 237 484 237 484 283 484 c 0,44,45
 333 484 333 484 377 463.5 c 128,-1,46
 421 443 421 443 421 403 c 0,47,48
 421 379 421 379 402 358.5 c 128,-1,49
 383 338 383 338 339 337 c 1,0,1
EndSplineSet
EndChar

StartChar: egrave
Encoding: 232 232 167
Width: 448
GlyphClass: 2
Flags: W
LayerCount: 2
Fore
SplineSet
131 633 m 1,0,1
 104 650 104 650 104 676 c 0,2,3
 104 712 104 712 145 730 c 1,4,5
 190 673 190 673 291 600 c 0,6,7
 310 587 310 587 310 566 c 0,8,9
 310 541 310 541 291 524 c 1,10,11
 278 536 278 536 217 575 c 128,-1,12
 156 614 156 614 131 633 c 1,0,1
151 179 m 1,13,14
 152 117 152 117 175.5 86.5 c 128,-1,15
 199 56 199 56 233 56 c 0,16,17
 261 56 261 56 288 75 c 128,-1,18
 315 94 315 94 332 126 c 1,19,20
 380 107 380 107 380 67 c 0,21,22
 380 36 380 36 333 13 c 128,-1,23
 286 -10 286 -10 225 -10 c 0,24,25
 187 -10 187 -10 153.5 0.5 c 128,-1,26
 120 11 120 11 90.5 32.5 c 128,-1,27
 61 54 61 54 44 92.5 c 128,-1,28
 27 131 27 131 27 183 c 0,29,30
 27 256 27 256 51 315.5 c 128,-1,31
 75 375 75 375 113.5 410.5 c 128,-1,32
 152 446 152 446 196.5 465 c 128,-1,33
 241 484 241 484 285 484 c 0,34,35
 352 484 352 484 386 449.5 c 128,-1,36
 420 415 420 415 420 363 c 0,37,38
 420 313 420 313 391 266.5 c 128,-1,39
 362 220 362 220 313 200 c 0,40,41
 259 177 259 177 184 177 c 0,42,43
 169 177 169 177 151 179 c 1,13,14
296 358 m 0,44,45
 296 384 296 384 283.5 401.5 c 128,-1,46
 271 419 271 419 251 419 c 0,47,48
 214 419 214 419 186 366.5 c 128,-1,49
 158 314 158 314 152 236 c 1,50,51
 171 236 171 236 184.5 237.5 c 128,-1,52
 198 239 198 239 221 246 c 128,-1,53
 244 253 244 253 258.5 265 c 128,-1,54
 273 277 273 277 284.5 301 c 128,-1,55
 296 325 296 325 296 358 c 0,44,45
EndSplineSet
EndChar

StartChar: eacute
Encoding: 233 233 168
Width: 448
GlyphClass: 2
Flags: W
LayerCount: 2
Fore
SplineSet
385 611 m 0,0,1
 360 597 360 597 294.5 567 c 128,-1,2
 229 537 229 537 214 525 c 1,3,4
 190 549 190 549 190 568 c 0,5,6
 190 588 190 588 213 600 c 1,7,8
 241 613 241 613 297.5 648 c 128,-1,9
 354 683 354 683 383 709 c 1,10,11
 416 692 416 692 416 658 c 0,12,13
 416 629 416 629 385 611 c 0,0,1
151 179 m 1,14,15
 152 117 152 117 175.5 86.5 c 128,-1,16
 199 56 199 56 233 56 c 0,17,18
 261 56 261 56 288 75 c 128,-1,19
 315 94 315 94 332 126 c 1,20,21
 380 107 380 107 380 67 c 0,22,23
 380 36 380 36 333 13 c 128,-1,24
 286 -10 286 -10 225 -10 c 0,25,26
 187 -10 187 -10 153.5 0.5 c 128,-1,27
 120 11 120 11 90.5 32.5 c 128,-1,28
 61 54 61 54 44 92.5 c 128,-1,29
 27 131 27 131 27 183 c 0,30,31
 27 256 27 256 51 315.5 c 128,-1,32
 75 375 75 375 113.5 410.5 c 128,-1,33
 152 446 152 446 196.5 465 c 128,-1,34
 241 484 241 484 285 484 c 0,35,36
 352 484 352 484 386 449.5 c 128,-1,37
 420 415 420 415 420 363 c 0,38,39
 420 313 420 313 391 266.5 c 128,-1,40
 362 220 362 220 313 200 c 0,41,42
 259 177 259 177 184 177 c 0,43,44
 169 177 169 177 151 179 c 1,14,15
296 358 m 0,45,46
 296 384 296 384 283.5 401.5 c 128,-1,47
 271 419 271 419 251 419 c 0,48,49
 214 419 214 419 186 366.5 c 128,-1,50
 158 314 158 314 152 236 c 1,51,52
 171 236 171 236 184.5 237.5 c 128,-1,53
 198 239 198 239 221 246 c 128,-1,54
 244 253 244 253 258.5 265 c 128,-1,55
 273 277 273 277 284.5 301 c 128,-1,56
 296 325 296 325 296 358 c 0,45,46
EndSplineSet
EndChar

StartChar: ecircumflex
Encoding: 234 234 169
Width: 448
GlyphClass: 2
Flags: W
LayerCount: 2
Fore
SplineSet
406 568 m 0,0,1
 406 537 406 537 363 519 c 1,2,3
 349 540 349 540 326.5 561.5 c 128,-1,4
 304 583 304 583 289 594 c 2,5,-1
 274 606 l 1,6,7
 177 531 177 531 149 531 c 0,8,9
 129 531 129 531 119 557 c 1,10,11
 215 655 215 655 288 702 c 1,12,13
 406 610 406 610 406 568 c 0,0,1
151 179 m 1,14,15
 152 117 152 117 175.5 86.5 c 128,-1,16
 199 56 199 56 233 56 c 0,17,18
 261 56 261 56 288 75 c 128,-1,19
 315 94 315 94 332 126 c 1,20,21
 380 107 380 107 380 67 c 0,22,23
 380 36 380 36 333 13 c 128,-1,24
 286 -10 286 -10 225 -10 c 0,25,26
 187 -10 187 -10 153.5 0.5 c 128,-1,27
 120 11 120 11 90.5 32.5 c 128,-1,28
 61 54 61 54 44 92.5 c 128,-1,29
 27 131 27 131 27 183 c 0,30,31
 27 256 27 256 51 315.5 c 128,-1,32
 75 375 75 375 113.5 410.5 c 128,-1,33
 152 446 152 446 196.5 465 c 128,-1,34
 241 484 241 484 285 484 c 0,35,36
 352 484 352 484 386 449.5 c 128,-1,37
 420 415 420 415 420 363 c 0,38,39
 420 313 420 313 391 266.5 c 128,-1,40
 362 220 362 220 313 200 c 0,41,42
 259 177 259 177 184 177 c 0,43,44
 169 177 169 177 151 179 c 1,14,15
296 358 m 0,45,46
 296 384 296 384 283.5 401.5 c 128,-1,47
 271 419 271 419 251 419 c 0,48,49
 214 419 214 419 186 366.5 c 128,-1,50
 158 314 158 314 152 236 c 1,51,52
 171 236 171 236 184.5 237.5 c 128,-1,53
 198 239 198 239 221 246 c 128,-1,54
 244 253 244 253 258.5 265 c 128,-1,55
 273 277 273 277 284.5 301 c 128,-1,56
 296 325 296 325 296 358 c 0,45,46
EndSplineSet
EndChar

StartChar: edieresis
Encoding: 235 235 170
Width: 456
GlyphClass: 2
Flags: W
LayerCount: 2
Fore
SplineSet
151 179 m 1,0,1
 152 117 152 117 175.5 86.5 c 128,-1,2
 199 56 199 56 233 56 c 0,3,4
 261 56 261 56 288 75 c 128,-1,5
 315 94 315 94 332 126 c 1,6,7
 380 107 380 107 380 67 c 0,8,9
 380 36 380 36 333 13 c 128,-1,10
 286 -10 286 -10 225 -10 c 0,11,12
 187 -10 187 -10 153.5 0.5 c 128,-1,13
 120 11 120 11 90.5 32.5 c 128,-1,14
 61 54 61 54 44 92.5 c 128,-1,15
 27 131 27 131 27 183 c 0,16,17
 27 256 27 256 51 315.5 c 128,-1,18
 75 375 75 375 113.5 410.5 c 128,-1,19
 152 446 152 446 196.5 465 c 128,-1,20
 241 484 241 484 285 484 c 0,21,22
 352 484 352 484 386 449.5 c 128,-1,23
 420 415 420 415 420 363 c 0,24,25
 420 313 420 313 391 266.5 c 128,-1,26
 362 220 362 220 313 200 c 0,27,28
 259 177 259 177 184 177 c 0,29,30
 169 177 169 177 151 179 c 1,0,1
296 358 m 0,31,32
 296 384 296 384 283.5 401.5 c 128,-1,33
 271 419 271 419 251 419 c 0,34,35
 214 419 214 419 186 366.5 c 128,-1,36
 158 314 158 314 152 236 c 1,37,38
 171 236 171 236 184.5 237.5 c 128,-1,39
 198 239 198 239 221 246 c 128,-1,40
 244 253 244 253 258.5 265 c 128,-1,41
 273 277 273 277 284.5 301 c 128,-1,42
 296 325 296 325 296 358 c 0,31,32
355 531 m 0,43,44
 330 531 330 531 314.5 547.5 c 128,-1,45
 299 564 299 564 299 592 c 0,46,47
 299 624 299 624 321 647 c 128,-1,48
 343 670 343 670 372 670 c 0,49,50
 395 670 395 670 411.5 651.5 c 128,-1,51
 428 633 428 633 428 606 c 0,52,53
 428 575 428 575 404.5 553 c 128,-1,54
 381 531 381 531 355 531 c 0,43,44
182 531 m 0,55,56
 157 531 157 531 141.5 547.5 c 128,-1,57
 126 564 126 564 126 592 c 0,58,59
 126 624 126 624 148 647 c 128,-1,60
 170 670 170 670 199 670 c 0,61,62
 222 670 222 670 238.5 651.5 c 128,-1,63
 255 633 255 633 255 606 c 0,64,65
 255 575 255 575 231.5 553 c 128,-1,66
 208 531 208 531 182 531 c 0,55,56
EndSplineSet
EndChar

StartChar: igrave
Encoding: 236 236 171
Width: 234
GlyphClass: 2
Flags: W
LayerCount: 2
Fore
SplineSet
27 633 m 1,0,1
 0 650 0 650 0 676 c 0,2,3
 0 712 0 712 41 730 c 1,4,5
 86 673 86 673 187 600 c 0,6,7
 206 587 206 587 206 566 c 0,8,9
 206 541 206 541 187 524 c 1,10,11
 174 536 174 536 113 575 c 128,-1,12
 52 614 52 614 27 633 c 1,0,1
84 366 m 0,13,14
 84 404 84 404 57 417 c 1,15,16
 60 447 60 447 83 465.5 c 128,-1,17
 106 484 106 484 135 484 c 0,18,19
 161 484 161 484 179 468 c 128,-1,20
 197 452 197 452 197 421 c 0,21,22
 197 383 197 383 175 251.5 c 128,-1,23
 153 120 153 120 153 108 c 0,24,25
 153 68 153 68 190 52 c 1,26,27
 186 26 186 26 167.5 8 c 128,-1,28
 149 -10 149 -10 120 -10 c 0,29,30
 83 -10 83 -10 65.5 17 c 128,-1,31
 48 44 48 44 48 81 c 0,32,33
 48 127 48 127 66 229.5 c 128,-1,34
 84 332 84 332 84 366 c 0,13,14
EndSplineSet
EndChar

StartChar: iacute
Encoding: 237 237 172
Width: 234
GlyphClass: 2
Flags: W
LayerCount: 2
Fore
SplineSet
231 611 m 0,0,1
 206 597 206 597 140.5 567 c 128,-1,2
 75 537 75 537 60 525 c 1,3,4
 36 549 36 549 36 568 c 0,5,6
 36 588 36 588 59 600 c 1,7,8
 87 613 87 613 143.5 648 c 128,-1,9
 200 683 200 683 229 709 c 1,10,11
 262 692 262 692 262 658 c 0,12,13
 262 629 262 629 231 611 c 0,0,1
84 366 m 0,14,15
 84 404 84 404 57 417 c 1,16,17
 60 447 60 447 83 465.5 c 128,-1,18
 106 484 106 484 135 484 c 0,19,20
 161 484 161 484 179 468 c 128,-1,21
 197 452 197 452 197 421 c 0,22,23
 197 383 197 383 175 251.5 c 128,-1,24
 153 120 153 120 153 108 c 0,25,26
 153 68 153 68 190 52 c 1,27,28
 186 26 186 26 167.5 8 c 128,-1,29
 149 -10 149 -10 120 -10 c 0,30,31
 83 -10 83 -10 65.5 17 c 128,-1,32
 48 44 48 44 48 81 c 0,33,34
 48 127 48 127 66 229.5 c 128,-1,35
 84 332 84 332 84 366 c 0,14,15
EndSplineSet
EndChar

StartChar: icircumflex
Encoding: 238 238 173
Width: 234
GlyphClass: 2
Flags: W
LayerCount: 2
Fore
SplineSet
274 568 m 0,0,1
 274 537 274 537 231 519 c 1,2,3
 217 540 217 540 194.5 561.5 c 128,-1,4
 172 583 172 583 157 594 c 2,5,-1
 142 606 l 1,6,7
 45 531 45 531 17 531 c 0,8,9
 -3 531 -3 531 -13 557 c 1,10,11
 83 655 83 655 156 702 c 1,12,13
 274 610 274 610 274 568 c 0,0,1
84 366 m 0,14,15
 84 404 84 404 57 417 c 1,16,17
 60 447 60 447 83 465.5 c 128,-1,18
 106 484 106 484 135 484 c 0,19,20
 161 484 161 484 179 468 c 128,-1,21
 197 452 197 452 197 421 c 0,22,23
 197 383 197 383 175 251.5 c 128,-1,24
 153 120 153 120 153 108 c 0,25,26
 153 68 153 68 190 52 c 1,27,28
 186 26 186 26 167.5 8 c 128,-1,29
 149 -10 149 -10 120 -10 c 0,30,31
 83 -10 83 -10 65.5 17 c 128,-1,32
 48 44 48 44 48 81 c 0,33,34
 48 127 48 127 66 229.5 c 128,-1,35
 84 332 84 332 84 366 c 0,14,15
EndSplineSet
EndChar

StartChar: idieresis
Encoding: 239 239 174
Width: 232
GlyphClass: 2
Flags: W
LayerCount: 2
Fore
SplineSet
87 366 m 0,0,1
 87 404 87 404 60 417 c 1,2,3
 63 447 63 447 86 465.5 c 128,-1,4
 109 484 109 484 138 484 c 0,5,6
 164 484 164 484 182 468 c 128,-1,7
 200 452 200 452 200 421 c 0,8,9
 200 383 200 383 172.5 251.5 c 128,-1,10
 145 120 145 120 145 108 c 0,11,12
 145 68 145 68 182 52 c 1,13,14
 178 26 178 26 159.5 8 c 128,-1,15
 141 -10 141 -10 112 -10 c 0,16,17
 75 -10 75 -10 57.5 17 c 128,-1,18
 40 44 40 44 40 81 c 0,19,20
 40 128 40 128 63.5 230 c 128,-1,21
 87 332 87 332 87 366 c 0,0,1
226 531 m 0,22,23
 201 531 201 531 185.5 547.5 c 128,-1,24
 170 564 170 564 170 592 c 0,25,26
 170 624 170 624 192 647 c 128,-1,27
 214 670 214 670 243 670 c 0,28,29
 266 670 266 670 282.5 651.5 c 128,-1,30
 299 633 299 633 299 606 c 0,31,32
 299 575 299 575 275.5 553 c 128,-1,33
 252 531 252 531 226 531 c 0,22,23
53 531 m 0,34,35
 28 531 28 531 12.5 547.5 c 128,-1,36
 -3 564 -3 564 -3 592 c 0,37,38
 -3 624 -3 624 19 647 c 128,-1,39
 41 670 41 670 70 670 c 0,40,41
 93 670 93 670 109.5 651.5 c 128,-1,42
 126 633 126 633 126 606 c 0,43,44
 126 575 126 575 102.5 553 c 128,-1,45
 79 531 79 531 53 531 c 0,34,35
EndSplineSet
EndChar

StartChar: eth
Encoding: 240 240 175
Width: 553
GlyphClass: 2
Flags: W
LayerCount: 2
Fore
SplineSet
277 413 m 0,0,1
 217 413 217 413 182 353.5 c 128,-1,2
 147 294 147 294 147 211 c 0,3,4
 147 146 147 146 170.5 104 c 128,-1,5
 194 62 194 62 237 62 c 0,6,7
 298 62 298 62 332 123.5 c 128,-1,8
 366 185 366 185 366 270 c 0,9,10
 366 333 366 333 342.5 373 c 128,-1,11
 319 413 319 413 277 413 c 0,0,1
447 670 m 0,12,13
 438 664 438 664 412.5 647 c 128,-1,14
 387 630 387 630 375 621 c 1,15,16
 435 569 435 569 460 507 c 128,-1,17
 485 445 485 445 485 359 c 0,18,19
 485 289 485 289 470.5 226 c 128,-1,20
 456 163 456 163 426 108.5 c 128,-1,21
 396 54 396 54 343.5 22 c 128,-1,22
 291 -10 291 -10 221 -10 c 0,23,24
 135 -10 135 -10 84.5 43.5 c 128,-1,25
 34 97 34 97 34 189 c 0,26,27
 34 322 34 322 107 403 c 128,-1,28
 180 484 180 484 272 484 c 0,29,30
 300 484 300 484 320.5 476.5 c 128,-1,31
 341 469 341 469 367 444 c 1,32,33
 350 526 350 526 305 572 c 1,34,-1
 219 511 l 1,35,36
 183 526 183 526 183 551 c 0,37,38
 183 572 183 572 202 588 c 1,39,40
 221 600 221 600 243 615 c 1,41,42
 206 635 206 635 152 645 c 1,43,44
 149 654 149 654 149 667 c 0,45,46
 149 698 149 698 179 698 c 0,47,48
 236 698 236 698 313 661 c 1,49,50
 372 700 372 700 435 749 c 1,51,52
 466 727 466 727 466 702 c 0,53,54
 466 685 466 685 447 670 c 0,12,13
EndSplineSet
EndChar

StartChar: ntilde
Encoding: 241 241 176
Width: 504
GlyphClass: 2
Flags: W
LayerCount: 2
Fore
SplineSet
182 259 m 1,0,1
 162 109 162 109 162 59 c 0,2,3
 162 30 162 30 165 5 c 1,4,5
 126 -4 126 -4 99 -4 c 0,6,7
 44 -4 44 -4 44 31 c 0,8,9
 44 44 44 44 66.5 189.5 c 128,-1,10
 89 335 89 335 89 363 c 0,11,12
 89 405 89 405 61 417 c 1,13,14
 65 448 65 448 88 466 c 128,-1,15
 111 484 111 484 139 484 c 0,16,17
 165 484 165 484 183 468 c 128,-1,18
 201 452 201 452 201 422 c 0,19,20
 201 404 201 404 198 386 c 1,21,22
 227 433 227 433 268.5 458.5 c 128,-1,23
 310 484 310 484 348 484 c 0,24,25
 397 484 397 484 423.5 449 c 128,-1,26
 450 414 450 414 450 358 c 0,27,28
 450 340 450 340 432.5 238 c 128,-1,29
 415 136 415 136 413 108 c 1,30,31
 413 69 413 69 450 52 c 1,32,33
 446 24 446 24 424.5 7 c 128,-1,34
 403 -10 403 -10 377 -10 c 0,35,36
 347 -10 347 -10 326 13 c 128,-1,37
 305 36 305 36 305 80 c 0,38,39
 305 122 305 122 323 222.5 c 128,-1,40
 341 323 341 323 341 342 c 0,41,42
 341 407 341 407 301 407 c 0,43,44
 271 407 271 407 238.5 365.5 c 128,-1,45
 206 324 206 324 182 259 c 1,0,1
442 620 m 0,46,47
 442 587 442 587 401.5 558.5 c 128,-1,48
 361 530 361 530 323 530 c 0,49,50
 294 530 294 530 259.5 552 c 128,-1,51
 225 574 225 574 218 574 c 0,52,53
 203 574 203 574 160 528 c 1,54,55
 132 542 132 542 132 566 c 1,56,57
 136 595 136 595 173 621 c 128,-1,58
 210 647 210 647 251 647 c 0,59,60
 275 647 275 647 309.5 625 c 128,-1,61
 344 603 344 603 355 603 c 0,62,63
 373 603 373 603 412 648 c 1,64,65
 442 640 442 640 442 620 c 0,46,47
EndSplineSet
EndChar

StartChar: ograve
Encoding: 242 242 177
Width: 501
GlyphClass: 2
Flags: W
LayerCount: 2
Fore
SplineSet
159 633 m 1,0,1
 132 650 132 650 132 676 c 0,2,3
 132 712 132 712 173 730 c 1,4,5
 218 673 218 673 319 600 c 0,6,7
 338 587 338 587 338 566 c 0,8,9
 338 541 338 541 319 524 c 1,10,11
 306 536 306 536 245 575 c 128,-1,12
 184 614 184 614 159 633 c 1,0,1
213 -10 m 0,13,14
 125 -10 125 -10 76 41.5 c 128,-1,15
 27 93 27 93 27 185 c 0,16,17
 27 311 27 311 99 397.5 c 128,-1,18
 171 484 171 484 283 484 c 0,19,20
 373 484 373 484 423.5 431.5 c 128,-1,21
 474 379 474 379 474 287 c 0,22,23
 474 162 474 162 399.5 76 c 128,-1,24
 325 -10 325 -10 213 -10 c 0,13,14
269 418 m 0,25,26
 214 418 214 418 182 352.5 c 128,-1,27
 150 287 150 287 150 201 c 0,28,29
 150 138 150 138 171.5 97 c 128,-1,30
 193 56 193 56 232 56 c 0,31,32
 286 56 286 56 318 120 c 128,-1,33
 350 184 350 184 350 269 c 0,34,35
 350 334 350 334 328.5 376 c 128,-1,36
 307 418 307 418 269 418 c 0,25,26
EndSplineSet
EndChar

StartChar: oacute
Encoding: 243 243 178
Width: 501
GlyphClass: 2
Flags: W
LayerCount: 2
Fore
SplineSet
412 611 m 0,0,1
 387 597 387 597 321.5 567 c 128,-1,2
 256 537 256 537 241 525 c 1,3,4
 217 549 217 549 217 568 c 0,5,6
 217 588 217 588 240 600 c 1,7,8
 268 613 268 613 324.5 648 c 128,-1,9
 381 683 381 683 410 709 c 1,10,11
 443 692 443 692 443 658 c 0,12,13
 443 629 443 629 412 611 c 0,0,1
213 -10 m 0,14,15
 125 -10 125 -10 76 41.5 c 128,-1,16
 27 93 27 93 27 185 c 0,17,18
 27 311 27 311 99 397.5 c 128,-1,19
 171 484 171 484 283 484 c 0,20,21
 373 484 373 484 423.5 431.5 c 128,-1,22
 474 379 474 379 474 287 c 0,23,24
 474 162 474 162 399.5 76 c 128,-1,25
 325 -10 325 -10 213 -10 c 0,14,15
269 418 m 0,26,27
 214 418 214 418 182 352.5 c 128,-1,28
 150 287 150 287 150 201 c 0,29,30
 150 138 150 138 171.5 97 c 128,-1,31
 193 56 193 56 232 56 c 0,32,33
 286 56 286 56 318 120 c 128,-1,34
 350 184 350 184 350 269 c 0,35,36
 350 334 350 334 328.5 376 c 128,-1,37
 307 418 307 418 269 418 c 0,26,27
EndSplineSet
EndChar

StartChar: ocircumflex
Encoding: 244 244 179
Width: 501
GlyphClass: 2
Flags: W
LayerCount: 2
Fore
SplineSet
434 568 m 0,0,1
 434 537 434 537 391 519 c 1,2,3
 377 540 377 540 354.5 561.5 c 128,-1,4
 332 583 332 583 317 594 c 2,5,-1
 302 606 l 1,6,7
 205 531 205 531 177 531 c 0,8,9
 157 531 157 531 147 557 c 1,10,11
 243 655 243 655 316 702 c 1,12,13
 434 610 434 610 434 568 c 0,0,1
213 -10 m 0,14,15
 125 -10 125 -10 76 41.5 c 128,-1,16
 27 93 27 93 27 185 c 0,17,18
 27 311 27 311 99 397.5 c 128,-1,19
 171 484 171 484 283 484 c 0,20,21
 373 484 373 484 423.5 431.5 c 128,-1,22
 474 379 474 379 474 287 c 0,23,24
 474 162 474 162 399.5 76 c 128,-1,25
 325 -10 325 -10 213 -10 c 0,14,15
269 418 m 0,26,27
 214 418 214 418 182 352.5 c 128,-1,28
 150 287 150 287 150 201 c 0,29,30
 150 138 150 138 171.5 97 c 128,-1,31
 193 56 193 56 232 56 c 0,32,33
 286 56 286 56 318 120 c 128,-1,34
 350 184 350 184 350 269 c 0,35,36
 350 334 350 334 328.5 376 c 128,-1,37
 307 418 307 418 269 418 c 0,26,27
EndSplineSet
EndChar

StartChar: otilde
Encoding: 245 245 180
Width: 501
GlyphClass: 2
Flags: W
LayerCount: 2
Fore
SplineSet
448 630 m 0,0,1
 448 597 448 597 407.5 568.5 c 128,-1,2
 367 540 367 540 329 540 c 0,3,4
 300 540 300 540 265.5 562 c 128,-1,5
 231 584 231 584 224 584 c 0,6,7
 209 584 209 584 166 538 c 1,8,9
 138 552 138 552 138 576 c 1,10,11
 142 605 142 605 179 631 c 128,-1,12
 216 657 216 657 257 657 c 0,13,14
 281 657 281 657 315.5 635 c 128,-1,15
 350 613 350 613 361 613 c 0,16,17
 379 613 379 613 418 658 c 1,18,19
 448 650 448 650 448 630 c 0,0,1
213 -10 m 0,20,21
 125 -10 125 -10 76 41.5 c 128,-1,22
 27 93 27 93 27 185 c 0,23,24
 27 311 27 311 99 397.5 c 128,-1,25
 171 484 171 484 283 484 c 0,26,27
 373 484 373 484 423.5 431.5 c 128,-1,28
 474 379 474 379 474 287 c 0,29,30
 474 162 474 162 399.5 76 c 128,-1,31
 325 -10 325 -10 213 -10 c 0,20,21
269 418 m 0,32,33
 214 418 214 418 182 352.5 c 128,-1,34
 150 287 150 287 150 201 c 0,35,36
 150 138 150 138 171.5 97 c 128,-1,37
 193 56 193 56 232 56 c 0,38,39
 286 56 286 56 318 120 c 128,-1,40
 350 184 350 184 350 269 c 0,41,42
 350 334 350 334 328.5 376 c 128,-1,43
 307 418 307 418 269 418 c 0,32,33
EndSplineSet
EndChar

StartChar: odieresis
Encoding: 246 246 181
Width: 501
GlyphClass: 2
Flags: W
LayerCount: 2
Fore
SplineSet
213 -10 m 0,0,1
 125 -10 125 -10 76 41.5 c 128,-1,2
 27 93 27 93 27 185 c 0,3,4
 27 311 27 311 99 397.5 c 128,-1,5
 171 484 171 484 283 484 c 0,6,7
 373 484 373 484 423.5 431.5 c 128,-1,8
 474 379 474 379 474 287 c 0,9,10
 474 162 474 162 399.5 76 c 128,-1,11
 325 -10 325 -10 213 -10 c 0,0,1
269 418 m 0,12,13
 214 418 214 418 182 352.5 c 128,-1,14
 150 287 150 287 150 201 c 0,15,16
 150 138 150 138 171.5 97 c 128,-1,17
 193 56 193 56 232 56 c 0,18,19
 286 56 286 56 318 120 c 128,-1,20
 350 184 350 184 350 269 c 0,21,22
 350 334 350 334 328.5 376 c 128,-1,23
 307 418 307 418 269 418 c 0,12,13
389 531 m 0,24,25
 364 531 364 531 348.5 547.5 c 128,-1,26
 333 564 333 564 333 592 c 0,27,28
 333 624 333 624 355 647 c 128,-1,29
 377 670 377 670 406 670 c 0,30,31
 429 670 429 670 445.5 651.5 c 128,-1,32
 462 633 462 633 462 606 c 0,33,34
 462 575 462 575 438.5 553 c 128,-1,35
 415 531 415 531 389 531 c 0,24,25
216 531 m 0,36,37
 191 531 191 531 175.5 547.5 c 128,-1,38
 160 564 160 564 160 592 c 0,39,40
 160 624 160 624 182 647 c 128,-1,41
 204 670 204 670 233 670 c 0,42,43
 256 670 256 670 272.5 651.5 c 128,-1,44
 289 633 289 633 289 606 c 0,45,46
 289 575 289 575 265.5 553 c 128,-1,47
 242 531 242 531 216 531 c 0,36,37
EndSplineSet
EndChar

StartChar: divide
Encoding: 247 247 182
Width: 574
GlyphClass: 2
Flags: W
LayerCount: 2
Fore
SplineSet
498 260 m 0,0,1
 498 240 498 240 483.5 225.5 c 128,-1,2
 469 211 469 211 446 211 c 0,3,4
 430 211 430 211 374 215 c 128,-1,5
 318 219 318 219 294 219 c 0,6,7
 189 219 189 219 81 209 c 1,8,9
 76 234 76 234 76 248 c 0,10,11
 76 267 76 267 88.5 282 c 128,-1,12
 101 297 101 297 128 297 c 0,13,14
 131 297 131 297 188 293.5 c 128,-1,15
 245 290 245 290 292 290 c 0,16,17
 419 290 419 290 492 299 c 1,18,19
 498 282 498 282 498 260 c 0,0,1
297 359 m 0,20,21
 271 359 271 359 253 376.5 c 128,-1,22
 235 394 235 394 235 422 c 0,23,24
 235 449 235 449 253 467.5 c 128,-1,25
 271 486 271 486 297 486 c 0,26,27
 322 486 322 486 339.5 467.5 c 128,-1,28
 357 449 357 449 357 422 c 0,29,30
 357 394 357 394 339.5 376.5 c 128,-1,31
 322 359 322 359 297 359 c 0,20,21
297 22 m 0,32,33
 271 22 271 22 253 40 c 128,-1,34
 235 58 235 58 235 86 c 0,35,36
 235 112 235 112 253.5 131 c 128,-1,37
 272 150 272 150 297 150 c 128,-1,38
 322 150 322 150 339.5 131 c 128,-1,39
 357 112 357 112 357 86 c 0,40,41
 357 58 357 58 339.5 40 c 128,-1,42
 322 22 322 22 297 22 c 0,32,33
EndSplineSet
EndChar

StartChar: oslash
Encoding: 248 248 183
Width: 514
GlyphClass: 2
Flags: W
LayerCount: 2
Fore
SplineSet
350 269 m 0,0,1
 350 280 350 280 348 300 c 1,2,-1
 197 67 l 1,3,4
 213 56 213 56 232 56 c 0,5,6
 286 56 286 56 318 120 c 128,-1,7
 350 184 350 184 350 269 c 0,0,1
269 418 m 0,8,9
 214 418 214 418 182 352.5 c 128,-1,10
 150 287 150 287 150 201 c 0,11,12
 150 171 150 171 155 143 c 1,13,14
 192 200 192 200 245.5 281 c 128,-1,15
 299 362 299 362 318 392 c 1,16,17
 297 418 297 418 269 418 c 0,8,9
213 -10 m 0,18,19
 181 -10 181 -10 152 -2 c 1,20,21
 119 -55 119 -55 104 -84 c 1,22,23
 75 -82 75 -82 58 -72 c 128,-1,24
 41 -62 41 -62 41 -46 c 0,25,26
 41 -35 41 -35 85 32 c 1,27,28
 27 84 27 84 27 185 c 0,29,30
 27 311 27 311 99 397.5 c 128,-1,31
 171 484 171 484 283 484 c 0,32,33
 326 484 326 484 366 469 c 1,34,35
 371 476 371 476 424 564 c 1,36,37
 451 562 451 562 469 552 c 128,-1,38
 487 542 487 542 487 526 c 0,39,40
 487 516 487 516 429 425 c 1,41,42
 474 374 474 374 474 287 c 0,43,44
 474 162 474 162 399.5 76 c 128,-1,45
 325 -10 325 -10 213 -10 c 0,18,19
EndSplineSet
EndChar

StartChar: ugrave
Encoding: 249 249 184
Width: 501
GlyphClass: 2
Flags: W
LayerCount: 2
Fore
SplineSet
164 633 m 1,0,1
 137 650 137 650 137 676 c 0,2,3
 137 712 137 712 178 730 c 1,4,5
 223 673 223 673 324 600 c 0,6,7
 343 587 343 587 343 566 c 0,8,9
 343 541 343 541 324 524 c 1,10,11
 311 536 311 536 250 575 c 128,-1,12
 189 614 189 614 164 633 c 1,0,1
201 422 m 0,13,14
 201 380 201 380 180 265.5 c 128,-1,15
 159 151 159 151 159 132 c 0,16,17
 159 67 159 67 199 67 c 0,18,19
 229 67 229 67 261.5 108.5 c 128,-1,20
 294 150 294 150 318 215 c 1,21,22
 321 240 321 240 329 297 c 128,-1,23
 337 354 337 354 341.5 393 c 128,-1,24
 346 432 346 432 348 474 c 1,25,26
 373 481 373 481 404 481 c 0,27,28
 459 481 459 481 459 446 c 0,29,30
 459 440 459 440 457 427 c 128,-1,31
 455 414 455 414 450 387 c 128,-1,32
 445 360 445 360 442 338 c 0,33,34
 442 336 442 336 432.5 280.5 c 128,-1,35
 423 225 423 225 417 179.5 c 128,-1,36
 411 134 411 134 411 111 c 0,37,38
 411 69 411 69 439 57 c 1,39,40
 435 26 435 26 412 8 c 128,-1,41
 389 -10 389 -10 361 -10 c 0,42,43
 335 -10 335 -10 317 6 c 128,-1,44
 299 22 299 22 299 52 c 0,45,46
 299 70 299 70 302 88 c 1,47,48
 273 41 273 41 231.5 15.5 c 128,-1,49
 190 -10 190 -10 152 -10 c 0,50,51
 103 -10 103 -10 76.5 25 c 128,-1,52
 50 60 50 60 50 116 c 0,53,54
 50 134 50 134 69 242 c 128,-1,55
 88 350 88 350 88 374 c 0,56,57
 88 399 88 399 61 417 c 1,58,59
 63 441 63 441 84 462.5 c 128,-1,60
 105 484 105 484 139 484 c 0,61,62
 165 484 165 484 183 469 c 128,-1,63
 201 454 201 454 201 422 c 0,13,14
EndSplineSet
EndChar

StartChar: uacute
Encoding: 250 250 185
Width: 501
GlyphClass: 2
Flags: W
LayerCount: 2
Fore
SplineSet
416 611 m 0,0,1
 391 597 391 597 325.5 567 c 128,-1,2
 260 537 260 537 245 525 c 1,3,4
 221 549 221 549 221 568 c 0,5,6
 221 588 221 588 244 600 c 1,7,8
 272 613 272 613 328.5 648 c 128,-1,9
 385 683 385 683 414 709 c 1,10,11
 447 692 447 692 447 658 c 0,12,13
 447 629 447 629 416 611 c 0,0,1
201 422 m 0,14,15
 201 380 201 380 180 265.5 c 128,-1,16
 159 151 159 151 159 132 c 0,17,18
 159 67 159 67 199 67 c 0,19,20
 229 67 229 67 261.5 108.5 c 128,-1,21
 294 150 294 150 318 215 c 1,22,23
 321 240 321 240 329 297 c 128,-1,24
 337 354 337 354 341.5 393 c 128,-1,25
 346 432 346 432 348 474 c 1,26,27
 373 481 373 481 404 481 c 0,28,29
 459 481 459 481 459 446 c 0,30,31
 459 440 459 440 457 427 c 128,-1,32
 455 414 455 414 450 387 c 128,-1,33
 445 360 445 360 442 338 c 0,34,35
 442 336 442 336 432.5 280.5 c 128,-1,36
 423 225 423 225 417 179.5 c 128,-1,37
 411 134 411 134 411 111 c 0,38,39
 411 69 411 69 439 57 c 1,40,41
 435 26 435 26 412 8 c 128,-1,42
 389 -10 389 -10 361 -10 c 0,43,44
 335 -10 335 -10 317 6 c 128,-1,45
 299 22 299 22 299 52 c 0,46,47
 299 70 299 70 302 88 c 1,48,49
 273 41 273 41 231.5 15.5 c 128,-1,50
 190 -10 190 -10 152 -10 c 0,51,52
 103 -10 103 -10 76.5 25 c 128,-1,53
 50 60 50 60 50 116 c 0,54,55
 50 134 50 134 69 242 c 128,-1,56
 88 350 88 350 88 374 c 0,57,58
 88 399 88 399 61 417 c 1,59,60
 63 441 63 441 84 462.5 c 128,-1,61
 105 484 105 484 139 484 c 0,62,63
 165 484 165 484 183 469 c 128,-1,64
 201 454 201 454 201 422 c 0,14,15
EndSplineSet
EndChar

